<ttFont>
    <TTGlyph name="A" xMin="5" yMin="0" xMax="668" yMax="710">
      <contour>
        <pt x="276" y="710" on="1"/>
        <pt x="398" y="710" on="1"/>
        <pt x="668" y="0" on="1"/>
        <pt x="526" y="0" on="1"/>
        <pt x="460" y="177" on="1"/>
        <pt x="212" y="177" on="1"/>
        <pt x="147" y="0" on="1"/>
        <pt x="5" y="0" on="1"/>
      </contour>
      <contour>
        <pt x="435" y="274" on="1"/>
        <pt x="337" y="553" on="1"/>
        <pt x="235" y="274" on="1"/>
      </contour>
    </TTGlyph>
    <TTGlyph name="A.sc" xMin="3" yMin="0" xMax="589" yMax="559">
      <contour>
        <pt x="3" y="0" on="1"/>
        <pt x="247" y="559" on="1"/>
        <pt x="346" y="559" on="1"/>
        <pt x="589" y="0" on="1"/>
        <pt x="461" y="0" on="1"/>
        <pt x="405" y="131" on="1"/>
        <pt x="188" y="131" on="1"/>
        <pt x="132" y="0" on="1"/>
      </contour>
      <contour>
        <pt x="297" y="412" on="1"/>
        <pt x="215" y="236" on="1"/>
        <pt x="376" y="236" on="1"/>
      </contour>
    </TTGlyph>
    <TTGlyph name="AE" xMin="-25" yMin="0" xMax="932" yMax="710">
      <contour>
        <pt x="418" y="710" on="1"/>
        <pt x="923" y="710" on="1"/>
        <pt x="923" y="589" on="1"/>
        <pt x="590" y="589" on="1"/>
        <pt x="590" y="422" on="1"/>
        <pt x="869" y="422" on="1"/>
        <pt x="869" y="301" on="1"/>
        <pt x="590" y="301" on="1"/>
        <pt x="590" y="121" on="1"/>
        <pt x="932" y="121" on="1"/>
        <pt x="932" y="0" on="1"/>
        <pt x="454" y="0" on="1"/>
        <pt x="454" y="177" on="1"/>
        <pt x="226" y="177" on="1"/>
        <pt x="121" y="0" on="1"/>
        <pt x="-25" y="0" on="1"/>
      </contour>
      <contour>
        <pt x="444" y="297" on="1"/>
        <pt x="444" y="555" on="1"/>
        <pt x="285" y="297" on="1"/>
      </contour>
    </TTGlyph>
    <TTGlyph name="AEacute" xMin="-25" yMin="0" xMax="932" yMax="915">
      <contour>
        <pt x="609" y="770" on="1"/>
        <pt x="523" y="796" on="1"/>
        <pt x="577" y="915" on="1"/>
        <pt x="702" y="915" on="1"/>
      </contour>
      <contour>
        <pt x="418" y="710" on="1"/>
        <pt x="923" y="710" on="1"/>
        <pt x="923" y="589" on="1"/>
        <pt x="590" y="589" on="1"/>
        <pt x="590" y="422" on="1"/>
        <pt x="869" y="422" on="1"/>
        <pt x="869" y="301" on="1"/>
        <pt x="590" y="301" on="1"/>
        <pt x="590" y="121" on="1"/>
        <pt x="932" y="121" on="1"/>
        <pt x="932" y="0" on="1"/>
        <pt x="454" y="0" on="1"/>
        <pt x="454" y="177" on="1"/>
        <pt x="226" y="177" on="1"/>
        <pt x="121" y="0" on="1"/>
        <pt x="-25" y="0" on="1"/>
      </contour>
      <contour>
        <pt x="444" y="297" on="1"/>
        <pt x="444" y="555" on="1"/>
        <pt x="285" y="297" on="1"/>
      </contour>
    </TTGlyph>
    <TTGlyph name="Aacute" xMin="5" yMin="0" xMax="668" yMax="915">
      <contour>
        <pt x="276" y="710" on="1"/>
        <pt x="398" y="710" on="1"/>
        <pt x="668" y="0" on="1"/>
        <pt x="526" y="0" on="1"/>
        <pt x="460" y="177" on="1"/>
        <pt x="212" y="177" on="1"/>
        <pt x="147" y="0" on="1"/>
        <pt x="5" y="0" on="1"/>
      </contour>
      <contour>
        <pt x="435" y="274" on="1"/>
        <pt x="337" y="553" on="1"/>
        <pt x="235" y="274" on="1"/>
      </contour>
      <contour>
        <pt x="372" y="770" on="1"/>
        <pt x="286" y="796" on="1"/>
        <pt x="340" y="915" on="1"/>
        <pt x="465" y="915" on="1"/>
      </contour>
    </TTGlyph>
    <TTGlyph name="Abreve" xMin="5" yMin="0" xMax="668" yMax="915">
      <contour>
        <pt x="276" y="710" on="1"/>
        <pt x="398" y="710" on="1"/>
        <pt x="668" y="0" on="1"/>
        <pt x="526" y="0" on="1"/>
        <pt x="460" y="177" on="1"/>
        <pt x="212" y="177" on="1"/>
        <pt x="147" y="0" on="1"/>
        <pt x="5" y="0" on="1"/>
      </contour>
      <contour>
        <pt x="435" y="274" on="1"/>
        <pt x="337" y="553" on="1"/>
        <pt x="235" y="274" on="1"/>
      </contour>
      <contour>
        <pt x="337" y="841" on="1"/>
        <pt x="360" y="841" on="0"/>
        <pt x="394" y="883" on="0"/>
        <pt x="397" y="915" on="1"/>
        <pt x="468" y="915" on="1"/>
        <pt x="468" y="886" on="0"/>
        <pt x="448" y="837" on="0"/>
        <pt x="414" y="801" on="0"/>
        <pt x="365" y="781" on="0"/>
        <pt x="337" y="781" on="1"/>
        <pt x="308" y="781" on="0"/>
        <pt x="260" y="801" on="0"/>
        <pt x="226" y="837" on="0"/>
        <pt x="206" y="886" on="0"/>
        <pt x="206" y="915" on="1"/>
        <pt x="278" y="915" on="1"/>
        <pt x="278" y="885" on="0"/>
        <pt x="314" y="841" on="0"/>
      </contour>
    </TTGlyph>
    <TTGlyph name="Acircumflex" xMin="5" yMin="0" xMax="668" yMax="915">
      <contour>
        <pt x="276" y="710" on="1"/>
        <pt x="398" y="710" on="1"/>
        <pt x="668" y="0" on="1"/>
        <pt x="526" y="0" on="1"/>
        <pt x="460" y="177" on="1"/>
        <pt x="212" y="177" on="1"/>
        <pt x="147" y="0" on="1"/>
        <pt x="5" y="0" on="1"/>
      </contour>
      <contour>
        <pt x="435" y="274" on="1"/>
        <pt x="337" y="553" on="1"/>
        <pt x="235" y="274" on="1"/>
      </contour>
      <contour>
        <pt x="182" y="814" on="1"/>
        <pt x="288" y="915" on="1"/>
        <pt x="385" y="915" on="1"/>
        <pt x="491" y="814" on="1"/>
        <pt x="422" y="782" on="1"/>
        <pt x="337" y="845" on="1"/>
        <pt x="252" y="782" on="1"/>
      </contour>
    </TTGlyph>
    <TTGlyph name="Adblgrave" xMin="5" yMin="0" xMax="668" yMax="917">
      <contour>
        <pt x="276" y="710" on="1"/>
        <pt x="398" y="710" on="1"/>
        <pt x="668" y="0" on="1"/>
        <pt x="526" y="0" on="1"/>
        <pt x="460" y="177" on="1"/>
        <pt x="212" y="177" on="1"/>
        <pt x="147" y="0" on="1"/>
        <pt x="5" y="0" on="1"/>
      </contour>
      <contour>
        <pt x="435" y="274" on="1"/>
        <pt x="337" y="553" on="1"/>
        <pt x="235" y="274" on="1"/>
      </contour>
      <contour>
        <pt x="314" y="917" on="1"/>
        <pt x="419" y="917" on="1"/>
        <pt x="466" y="798" on="1"/>
        <pt x="400" y="772" on="1"/>
      </contour>
      <contour>
        <pt x="154" y="917" on="1"/>
        <pt x="258" y="917" on="1"/>
        <pt x="306" y="798" on="1"/>
        <pt x="240" y="772" on="1"/>
      </contour>
    </TTGlyph>
    <TTGlyph name="Adieresis" xMin="5" yMin="0" xMax="668" yMax="909">
      <contour>
        <pt x="276" y="710" on="1"/>
        <pt x="398" y="710" on="1"/>
        <pt x="668" y="0" on="1"/>
        <pt x="526" y="0" on="1"/>
        <pt x="460" y="177" on="1"/>
        <pt x="212" y="177" on="1"/>
        <pt x="147" y="0" on="1"/>
        <pt x="5" y="0" on="1"/>
      </contour>
      <contour>
        <pt x="435" y="274" on="1"/>
        <pt x="337" y="553" on="1"/>
        <pt x="235" y="274" on="1"/>
      </contour>
      <contour>
        <pt x="185" y="790" on="1"/>
        <pt x="185" y="909" on="1"/>
        <pt x="296" y="909" on="1"/>
        <pt x="296" y="790" on="1"/>
      </contour>
      <contour>
        <pt x="377" y="790" on="1"/>
        <pt x="377" y="909" on="1"/>
        <pt x="488" y="909" on="1"/>
        <pt x="488" y="790" on="1"/>
      </contour>
    </TTGlyph>
    <TTGlyph name="Agrave" xMin="5" yMin="0" xMax="668" yMax="916">
      <contour>
        <pt x="276" y="710" on="1"/>
        <pt x="398" y="710" on="1"/>
        <pt x="668" y="0" on="1"/>
        <pt x="526" y="0" on="1"/>
        <pt x="460" y="177" on="1"/>
        <pt x="212" y="177" on="1"/>
        <pt x="147" y="0" on="1"/>
        <pt x="5" y="0" on="1"/>
      </contour>
      <contour>
        <pt x="435" y="274" on="1"/>
        <pt x="337" y="553" on="1"/>
        <pt x="235" y="274" on="1"/>
      </contour>
      <contour>
        <pt x="209" y="916" on="1"/>
        <pt x="333" y="916" on="1"/>
        <pt x="388" y="797" on="1"/>
        <pt x="302" y="771" on="1"/>
      </contour>
    </TTGlyph>
    <TTGlyph name="Ainvertedbreve" xMin="5" yMin="0" xMax="668" yMax="915">
      <contour>
        <pt x="276" y="710" on="1"/>
        <pt x="398" y="710" on="1"/>
        <pt x="668" y="0" on="1"/>
        <pt x="526" y="0" on="1"/>
        <pt x="460" y="177" on="1"/>
        <pt x="212" y="177" on="1"/>
        <pt x="147" y="0" on="1"/>
        <pt x="5" y="0" on="1"/>
      </contour>
      <contour>
        <pt x="435" y="274" on="1"/>
        <pt x="337" y="553" on="1"/>
        <pt x="235" y="274" on="1"/>
      </contour>
      <contour>
        <pt x="337" y="855" on="1"/>
        <pt x="314" y="855" on="0"/>
        <pt x="278" y="811" on="0"/>
        <pt x="278" y="781" on="1"/>
        <pt x="206" y="781" on="1"/>
        <pt x="206" y="810" on="0"/>
        <pt x="226" y="859" on="0"/>
        <pt x="260" y="895" on="0"/>
        <pt x="308" y="915" on="0"/>
        <pt x="337" y="915" on="1"/>
        <pt x="365" y="915" on="0"/>
        <pt x="414" y="895" on="0"/>
        <pt x="448" y="859" on="0"/>
        <pt x="468" y="810" on="0"/>
        <pt x="468" y="781" on="1"/>
        <pt x="397" y="781" on="1"/>
        <pt x="394" y="813" on="0"/>
        <pt x="360" y="855" on="0"/>
      </contour>
    </TTGlyph>
    <TTGlyph name="Amacron" xMin="5" yMin="0" xMax="668" yMax="901">
      <contour>
        <pt x="276" y="710" on="1"/>
        <pt x="398" y="710" on="1"/>
        <pt x="668" y="0" on="1"/>
        <pt x="526" y="0" on="1"/>
        <pt x="460" y="177" on="1"/>
        <pt x="212" y="177" on="1"/>
        <pt x="147" y="0" on="1"/>
        <pt x="5" y="0" on="1"/>
      </contour>
      <contour>
        <pt x="435" y="274" on="1"/>
        <pt x="337" y="553" on="1"/>
        <pt x="235" y="274" on="1"/>
      </contour>
      <contour>
        <pt x="188" y="818" on="1"/>
        <pt x="188" y="901" on="1"/>
        <pt x="488" y="901" on="1"/>
        <pt x="488" y="818" on="1"/>
      </contour>
    </TTGlyph>
    <TTGlyph name="Aogonek" xMin="5" yMin="-196" xMax="668" yMax="710">
      <contour>
        <pt x="625" y="-196" on="1"/>
        <pt x="567" y="-188" on="0"/>
        <pt x="510" y="-140" on="0"/>
        <pt x="510" y="-109" on="1"/>
        <pt x="510" y="-51" on="0"/>
        <pt x="591" y="0" on="1"/>
        <pt x="526" y="0" on="1"/>
        <pt x="460" y="177" on="1"/>
        <pt x="212" y="177" on="1"/>
        <pt x="147" y="0" on="1"/>
        <pt x="5" y="0" on="1"/>
        <pt x="276" y="710" on="1"/>
        <pt x="398" y="710" on="1"/>
        <pt x="668" y="0" on="1"/>
        <pt x="591" y="-46" on="0"/>
        <pt x="591" y="-85" on="1"/>
        <pt x="591" y="-122" on="0"/>
        <pt x="653" y="-126" on="1"/>
      </contour>
      <contour>
        <pt x="435" y="274" on="1"/>
        <pt x="337" y="553" on="1"/>
        <pt x="235" y="274" on="1"/>
      </contour>
    </TTGlyph>
    <TTGlyph name="Aring" xMin="5" yMin="0" xMax="668" yMax="915">
      <contour>
        <pt x="276" y="710" on="1"/>
        <pt x="398" y="710" on="1"/>
        <pt x="668" y="0" on="1"/>
        <pt x="526" y="0" on="1"/>
        <pt x="460" y="177" on="1"/>
        <pt x="212" y="177" on="1"/>
        <pt x="147" y="0" on="1"/>
        <pt x="5" y="0" on="1"/>
      </contour>
      <contour>
        <pt x="435" y="274" on="1"/>
        <pt x="337" y="553" on="1"/>
        <pt x="235" y="274" on="1"/>
      </contour>
      <contour>
        <pt x="239" y="838" on="1"/>
        <pt x="239" y="875" on="0"/>
        <pt x="292" y="915" on="0"/>
        <pt x="336" y="915" on="1"/>
        <pt x="380" y="915" on="0"/>
        <pt x="433" y="875" on="0"/>
        <pt x="433" y="838" on="1"/>
        <pt x="433" y="801" on="0"/>
        <pt x="380" y="761" on="0"/>
        <pt x="336" y="761" on="1"/>
        <pt x="292" y="761" on="0"/>
        <pt x="239" y="801" on="0"/>
      </contour>
      <contour>
        <pt x="336" y="874" on="1"/>
        <pt x="319" y="874" on="0"/>
        <pt x="296" y="855" on="0"/>
        <pt x="296" y="838" on="1"/>
        <pt x="296" y="823" on="0"/>
        <pt x="319" y="802" on="0"/>
        <pt x="336" y="802" on="1"/>
        <pt x="352" y="802" on="0"/>
        <pt x="377" y="822" on="0"/>
        <pt x="377" y="838" on="1"/>
        <pt x="377" y="855" on="0"/>
        <pt x="353" y="874" on="0"/>
      </contour>
    </TTGlyph>
    <TTGlyph name="Aringacute" xMin="5" yMin="0" xMax="668" yMax="918">
      <contour>
        <pt x="398" y="808" on="1"/>
        <pt x="433" y="787" on="0"/>
        <pt x="433" y="746" on="1"/>
        <pt x="433" y="709" on="0"/>
        <pt x="406" y="688" on="1"/>
        <pt x="668" y="0" on="1"/>
        <pt x="526" y="0" on="1"/>
        <pt x="460" y="177" on="1"/>
        <pt x="212" y="177" on="1"/>
        <pt x="147" y="0" on="1"/>
        <pt x="5" y="0" on="1"/>
        <pt x="267" y="688" on="1"/>
        <pt x="239" y="708" on="0"/>
        <pt x="239" y="746" on="1"/>
        <pt x="239" y="777" on="0"/>
        <pt x="278" y="816" on="0"/>
        <pt x="311" y="821" on="1"/>
        <pt x="350" y="918" on="1"/>
        <pt x="475" y="918" on="1"/>
      </contour>
      <contour>
        <pt x="435" y="274" on="1"/>
        <pt x="337" y="553" on="1"/>
        <pt x="235" y="274" on="1"/>
      </contour>
      <contour>
        <pt x="336" y="782" on="1"/>
        <pt x="319" y="782" on="0"/>
        <pt x="296" y="763" on="0"/>
        <pt x="296" y="746" on="1"/>
        <pt x="296" y="731" on="0"/>
        <pt x="319" y="710" on="0"/>
        <pt x="336" y="710" on="1"/>
        <pt x="352" y="710" on="0"/>
        <pt x="377" y="730" on="0"/>
        <pt x="377" y="746" on="1"/>
        <pt x="377" y="763" on="0"/>
        <pt x="353" y="782" on="0"/>
      </contour>
    </TTGlyph>
    <TTGlyph name="Atilde" xMin="5" yMin="0" xMax="668" yMax="915">
      <contour>
        <pt x="276" y="710" on="1"/>
        <pt x="398" y="710" on="1"/>
        <pt x="668" y="0" on="1"/>
        <pt x="526" y="0" on="1"/>
        <pt x="460" y="177" on="1"/>
        <pt x="212" y="177" on="1"/>
        <pt x="147" y="0" on="1"/>
        <pt x="5" y="0" on="1"/>
      </contour>
      <contour>
        <pt x="435" y="274" on="1"/>
        <pt x="337" y="553" on="1"/>
        <pt x="235" y="274" on="1"/>
      </contour>
      <contour>
        <pt x="400" y="787" on="1"/>
        <pt x="377" y="787" on="0"/>
        <pt x="343" y="801" on="0"/>
        <pt x="314" y="818" on="0"/>
        <pt x="285" y="832" on="0"/>
        <pt x="269" y="832" on="1"/>
        <pt x="252" y="832" on="0"/>
        <pt x="233" y="818" on="0"/>
        <pt x="223" y="800" on="0"/>
        <pt x="221" y="785" on="0"/>
        <pt x="221" y="784" on="1"/>
        <pt x="147" y="784" on="1"/>
        <pt x="147" y="793" on="0"/>
        <pt x="159" y="836" on="0"/>
        <pt x="186" y="879" on="0"/>
        <pt x="231" y="912" on="0"/>
        <pt x="264" y="912" on="1"/>
        <pt x="287" y="912" on="0"/>
        <pt x="320" y="897" on="0"/>
        <pt x="349" y="880" on="0"/>
        <pt x="378" y="865" on="0"/>
        <pt x="396" y="865" on="1"/>
        <pt x="414" y="865" on="0"/>
        <pt x="435" y="879" on="0"/>
        <pt x="446" y="897" on="0"/>
        <pt x="449" y="913" on="0"/>
        <pt x="449" y="915" on="1"/>
        <pt x="523" y="915" on="1"/>
        <pt x="523" y="908" on="0"/>
        <pt x="511" y="866" on="0"/>
        <pt x="482" y="822" on="0"/>
        <pt x="435" y="787" on="0"/>
      </contour>
    </TTGlyph>
    <TTGlyph name="B" xMin="74" yMin="0" xMax="646" yMax="710">
      <contour>
        <pt x="646" y="183" on="1"/>
        <pt x="646" y="138" on="0"/>
        <pt x="610" y="70" on="0"/>
        <pt x="547" y="24" on="0"/>
        <pt x="464" y="0" on="0"/>
        <pt x="417" y="0" on="1"/>
        <pt x="74" y="0" on="1"/>
        <pt x="74" y="710" on="1"/>
        <pt x="454" y="710" on="1"/>
        <pt x="491" y="710" on="0"/>
        <pt x="551" y="678" on="0"/>
        <pt x="593" y="627" on="0"/>
        <pt x="616" y="562" on="0"/>
        <pt x="616" y="529" on="1"/>
        <pt x="616" y="477" on="0"/>
        <pt x="564" y="386" on="0"/>
        <pt x="514" y="364" on="1"/>
        <pt x="575" y="346" on="0"/>
        <pt x="646" y="253" on="0"/>
      </contour>
      <contour>
        <pt x="507" y="209" on="1"/>
        <pt x="507" y="228" on="0"/>
        <pt x="494" y="263" on="0"/>
        <pt x="472" y="289" on="0"/>
        <pt x="442" y="304" on="0"/>
        <pt x="424" y="304" on="1"/>
        <pt x="212" y="304" on="1"/>
        <pt x="212" y="117" on="1"/>
        <pt x="417" y="117" on="1"/>
        <pt x="436" y="117" on="0"/>
        <pt x="469" y="131" on="0"/>
        <pt x="493" y="156" on="0"/>
        <pt x="507" y="190" on="0"/>
      </contour>
      <contour>
        <pt x="212" y="592" on="1"/>
        <pt x="212" y="413" on="1"/>
        <pt x="396" y="413" on="1"/>
        <pt x="431" y="413" on="0"/>
        <pt x="480" y="461" on="0"/>
        <pt x="480" y="503" on="1"/>
        <pt x="480" y="544" on="0"/>
        <pt x="435" y="592" on="0"/>
        <pt x="402" y="592" on="1"/>
      </contour>
    </TTGlyph>
    <TTGlyph name="B.sc" xMin="68" yMin="0" xMax="562" yMax="559">
      <contour>
        <pt x="562" y="143" on="1"/>
        <pt x="562" y="108" on="0"/>
        <pt x="530" y="54" on="0"/>
        <pt x="476" y="18" on="0"/>
        <pt x="404" y="0" on="0"/>
        <pt x="364" y="0" on="1"/>
        <pt x="68" y="0" on="1"/>
        <pt x="68" y="559" on="1"/>
        <pt x="397" y="559" on="1"/>
        <pt x="429" y="559" on="0"/>
        <pt x="480" y="534" on="0"/>
        <pt x="516" y="493" on="0"/>
        <pt x="536" y="442" on="0"/>
        <pt x="536" y="415" on="1"/>
        <pt x="536" y="375" on="0"/>
        <pt x="491" y="304" on="0"/>
        <pt x="449" y="287" on="1"/>
        <pt x="501" y="273" on="0"/>
        <pt x="562" y="200" on="0"/>
      </contour>
      <contour>
        <pt x="440" y="168" on="1"/>
        <pt x="440" y="195" on="0"/>
        <pt x="400" y="235" on="0"/>
        <pt x="370" y="235" on="1"/>
        <pt x="189" y="235" on="1"/>
        <pt x="189" y="102" on="1"/>
        <pt x="364" y="102" on="1"/>
        <pt x="396" y="102" on="0"/>
        <pt x="440" y="139" on="0"/>
      </contour>
      <contour>
        <pt x="189" y="455" on="1"/>
        <pt x="189" y="330" on="1"/>
        <pt x="346" y="330" on="1"/>
        <pt x="375" y="330" on="0"/>
        <pt x="416" y="362" on="0"/>
        <pt x="416" y="393" on="1"/>
        <pt x="416" y="422" on="0"/>
        <pt x="378" y="455" on="0"/>
        <pt x="351" y="455" on="1"/>
      </contour>
    </TTGlyph>
    <TTGlyph name="C" xMin="31" yMin="-6" xMax="667" yMax="714">
      <contour>
        <pt x="31" y="360" on="1"/>
        <pt x="31" y="425" on="0"/>
        <pt x="78" y="552" on="0"/>
        <pt x="168" y="652" on="0"/>
        <pt x="298" y="714" on="0"/>
        <pt x="381" y="714" on="1"/>
        <pt x="479" y="714" on="0"/>
        <pt x="622" y="628" on="0"/>
        <pt x="657" y="559" on="1"/>
        <pt x="551" y="486" on="1"/>
        <pt x="537" y="516" on="0"/>
        <pt x="497" y="557" on="0"/>
        <pt x="451" y="581" on="0"/>
        <pt x="401" y="592" on="0"/>
        <pt x="377" y="592" on="1"/>
        <pt x="325" y="592" on="0"/>
        <pt x="248" y="550" on="0"/>
        <pt x="197" y="483" on="0"/>
        <pt x="171" y="398" on="0"/>
        <pt x="171" y="356" on="1"/>
        <pt x="171" y="309" on="0"/>
        <pt x="201" y="222" on="0"/>
        <pt x="256" y="156" on="0"/>
        <pt x="333" y="116" on="0"/>
        <pt x="379" y="116" on="1"/>
        <pt x="403" y="116" on="0"/>
        <pt x="455" y="128" on="0"/>
        <pt x="502" y="154" on="0"/>
        <pt x="542" y="195" on="0"/>
        <pt x="554" y="224" on="1"/>
        <pt x="667" y="159" on="1"/>
        <pt x="650" y="119" on="0"/>
        <pt x="587" y="58" on="0"/>
        <pt x="508" y="16" on="0"/>
        <pt x="418" y="-6" on="0"/>
        <pt x="375" y="-6" on="1"/>
        <pt x="299" y="-6" on="0"/>
        <pt x="173" y="58" on="0"/>
        <pt x="82" y="161" on="0"/>
        <pt x="31" y="292" on="0"/>
      </contour>
    </TTGlyph>
    <TTGlyph name="C.sc" xMin="32" yMin="-5" xMax="572" yMax="562">
      <contour>
        <pt x="32" y="284" on="1"/>
        <pt x="32" y="335" on="0"/>
        <pt x="72" y="435" on="0"/>
        <pt x="148" y="513" on="0"/>
        <pt x="258" y="562" on="0"/>
        <pt x="329" y="562" on="1"/>
        <pt x="412" y="562" on="0"/>
        <pt x="533" y="495" on="0"/>
        <pt x="562" y="440" on="1"/>
        <pt x="469" y="375" on="1"/>
        <pt x="458" y="398" on="0"/>
        <pt x="425" y="428" on="0"/>
        <pt x="386" y="446" on="0"/>
        <pt x="345" y="454" on="0"/>
        <pt x="326" y="454" on="1"/>
        <pt x="283" y="454" on="0"/>
        <pt x="219" y="423" on="0"/>
        <pt x="176" y="374" on="0"/>
        <pt x="154" y="311" on="0"/>
        <pt x="154" y="280" on="1"/>
        <pt x="154" y="245" on="0"/>
        <pt x="179" y="181" on="0"/>
        <pt x="225" y="132" on="0"/>
        <pt x="289" y="103" on="0"/>
        <pt x="328" y="103" on="1"/>
        <pt x="348" y="103" on="0"/>
        <pt x="390" y="112" on="0"/>
        <pt x="429" y="131" on="0"/>
        <pt x="462" y="162" on="0"/>
        <pt x="472" y="184" on="1"/>
        <pt x="572" y="125" on="1"/>
        <pt x="558" y="94" on="0"/>
        <pt x="504" y="45" on="0"/>
        <pt x="437" y="12" on="0"/>
        <pt x="361" y="-5" on="0"/>
        <pt x="324" y="-5" on="1"/>
        <pt x="259" y="-5" on="0"/>
        <pt x="152" y="45" on="0"/>
        <pt x="75" y="127" on="0"/>
        <pt x="32" y="230" on="0"/>
      </contour>
    </TTGlyph>
    <TTGlyph name="Cacute" xMin="31" yMin="-6" xMax="667" yMax="915">
      <contour>
        <pt x="417" y="770" on="1"/>
        <pt x="331" y="796" on="1"/>
        <pt x="385" y="915" on="1"/>
        <pt x="510" y="915" on="1"/>
      </contour>
      <contour>
        <pt x="31" y="360" on="1"/>
        <pt x="31" y="425" on="0"/>
        <pt x="78" y="552" on="0"/>
        <pt x="168" y="652" on="0"/>
        <pt x="298" y="714" on="0"/>
        <pt x="381" y="714" on="1"/>
        <pt x="479" y="714" on="0"/>
        <pt x="622" y="628" on="0"/>
        <pt x="657" y="559" on="1"/>
        <pt x="551" y="486" on="1"/>
        <pt x="537" y="516" on="0"/>
        <pt x="497" y="557" on="0"/>
        <pt x="451" y="581" on="0"/>
        <pt x="401" y="592" on="0"/>
        <pt x="377" y="592" on="1"/>
        <pt x="325" y="592" on="0"/>
        <pt x="248" y="550" on="0"/>
        <pt x="197" y="483" on="0"/>
        <pt x="171" y="398" on="0"/>
        <pt x="171" y="356" on="1"/>
        <pt x="171" y="309" on="0"/>
        <pt x="201" y="222" on="0"/>
        <pt x="256" y="156" on="0"/>
        <pt x="333" y="116" on="0"/>
        <pt x="379" y="116" on="1"/>
        <pt x="403" y="116" on="0"/>
        <pt x="455" y="128" on="0"/>
        <pt x="502" y="154" on="0"/>
        <pt x="542" y="195" on="0"/>
        <pt x="554" y="224" on="1"/>
        <pt x="667" y="159" on="1"/>
        <pt x="650" y="119" on="0"/>
        <pt x="587" y="58" on="0"/>
        <pt x="508" y="16" on="0"/>
        <pt x="418" y="-6" on="0"/>
        <pt x="375" y="-6" on="1"/>
        <pt x="299" y="-6" on="0"/>
        <pt x="173" y="58" on="0"/>
        <pt x="82" y="161" on="0"/>
        <pt x="31" y="292" on="0"/>
      </contour>
    </TTGlyph>
    <TTGlyph name="Ccaron" xMin="31" yMin="-6" xMax="667" yMax="915">
      <contour>
        <pt x="300" y="915" on="1"/>
        <pt x="385" y="852" on="1"/>
        <pt x="470" y="915" on="1"/>
        <pt x="539" y="883" on="1"/>
        <pt x="433" y="782" on="1"/>
        <pt x="336" y="782" on="1"/>
        <pt x="230" y="883" on="1"/>
      </contour>
      <contour>
        <pt x="31" y="360" on="1"/>
        <pt x="31" y="425" on="0"/>
        <pt x="78" y="552" on="0"/>
        <pt x="168" y="652" on="0"/>
        <pt x="298" y="714" on="0"/>
        <pt x="381" y="714" on="1"/>
        <pt x="479" y="714" on="0"/>
        <pt x="622" y="628" on="0"/>
        <pt x="657" y="559" on="1"/>
        <pt x="551" y="486" on="1"/>
        <pt x="537" y="516" on="0"/>
        <pt x="497" y="557" on="0"/>
        <pt x="451" y="581" on="0"/>
        <pt x="401" y="592" on="0"/>
        <pt x="377" y="592" on="1"/>
        <pt x="325" y="592" on="0"/>
        <pt x="248" y="550" on="0"/>
        <pt x="197" y="483" on="0"/>
        <pt x="171" y="398" on="0"/>
        <pt x="171" y="356" on="1"/>
        <pt x="171" y="309" on="0"/>
        <pt x="201" y="222" on="0"/>
        <pt x="256" y="156" on="0"/>
        <pt x="333" y="116" on="0"/>
        <pt x="379" y="116" on="1"/>
        <pt x="403" y="116" on="0"/>
        <pt x="455" y="128" on="0"/>
        <pt x="502" y="154" on="0"/>
        <pt x="542" y="195" on="0"/>
        <pt x="554" y="224" on="1"/>
        <pt x="667" y="159" on="1"/>
        <pt x="650" y="119" on="0"/>
        <pt x="587" y="58" on="0"/>
        <pt x="508" y="16" on="0"/>
        <pt x="418" y="-6" on="0"/>
        <pt x="375" y="-6" on="1"/>
        <pt x="299" y="-6" on="0"/>
        <pt x="173" y="58" on="0"/>
        <pt x="82" y="161" on="0"/>
        <pt x="31" y="292" on="0"/>
      </contour>
    </TTGlyph>
    <TTGlyph name="Ccedilla" xMin="29" yMin="-196" xMax="665" yMax="714">
      <contour>
        <pt x="285" y="-127" on="1"/>
        <pt x="297" y="-134" on="0"/>
        <pt x="347" y="-146" on="0"/>
        <pt x="374" y="-146" on="1"/>
        <pt x="400" y="-146" on="0"/>
        <pt x="430" y="-131" on="0"/>
        <pt x="430" y="-113" on="1"/>
        <pt x="430" y="-95" on="0"/>
        <pt x="401" y="-80" on="0"/>
        <pt x="378" y="-80" on="1"/>
        <pt x="357" y="-80" on="0"/>
        <pt x="310" y="-89" on="0"/>
        <pt x="298" y="-92" on="1"/>
        <pt x="342" y="-4" on="1"/>
        <pt x="273" y="2" on="0"/>
        <pt x="157" y="70" on="0"/>
        <pt x="75" y="171" on="0"/>
        <pt x="29" y="296" on="0"/>
        <pt x="29" y="360" on="1"/>
        <pt x="29" y="425" on="0"/>
        <pt x="76" y="552" on="0"/>
        <pt x="166" y="652" on="0"/>
        <pt x="296" y="714" on="0"/>
        <pt x="379" y="714" on="1"/>
        <pt x="477" y="714" on="0"/>
        <pt x="620" y="628" on="0"/>
        <pt x="655" y="559" on="1"/>
        <pt x="549" y="486" on="1"/>
        <pt x="535" y="516" on="0"/>
        <pt x="495" y="557" on="0"/>
        <pt x="449" y="581" on="0"/>
        <pt x="399" y="592" on="0"/>
        <pt x="375" y="592" on="1"/>
        <pt x="323" y="592" on="0"/>
        <pt x="246" y="550" on="0"/>
        <pt x="195" y="483" on="0"/>
        <pt x="169" y="398" on="0"/>
        <pt x="169" y="356" on="1"/>
        <pt x="169" y="309" on="0"/>
        <pt x="199" y="222" on="0"/>
        <pt x="254" y="156" on="0"/>
        <pt x="331" y="116" on="0"/>
        <pt x="377" y="116" on="1"/>
        <pt x="401" y="116" on="0"/>
        <pt x="453" y="128" on="0"/>
        <pt x="500" y="154" on="0"/>
        <pt x="540" y="195" on="0"/>
        <pt x="552" y="224" on="1"/>
        <pt x="665" y="159" on="1"/>
        <pt x="650" y="122" on="0"/>
        <pt x="593" y="64" on="0"/>
        <pt x="522" y="22" on="0"/>
        <pt x="440" y="-2" on="0"/>
        <pt x="400" y="-5" on="1"/>
        <pt x="376" y="-42" on="1"/>
        <pt x="383" y="-40" on="0"/>
        <pt x="400" y="-38" on="0"/>
        <pt x="408" y="-38" on="1"/>
        <pt x="443" y="-38" on="0"/>
        <pt x="493" y="-71" on="0"/>
        <pt x="493" y="-108" on="1"/>
        <pt x="493" y="-146" on="0"/>
        <pt x="430" y="-196" on="0"/>
        <pt x="365" y="-196" on="1"/>
        <pt x="332" y="-196" on="0"/>
        <pt x="278" y="-184" on="0"/>
        <pt x="258" y="-176" on="1"/>
      </contour>
    </TTGlyph>
    <TTGlyph name="Ccircumflex" xMin="31" yMin="-6" xMax="667" yMax="915">
      <contour>
        <pt x="224" y="814" on="1"/>
        <pt x="330" y="915" on="1"/>
        <pt x="427" y="915" on="1"/>
        <pt x="533" y="814" on="1"/>
        <pt x="464" y="782" on="1"/>
        <pt x="379" y="845" on="1"/>
        <pt x="294" y="782" on="1"/>
      </contour>
      <contour>
        <pt x="31" y="360" on="1"/>
        <pt x="31" y="425" on="0"/>
        <pt x="78" y="552" on="0"/>
        <pt x="168" y="652" on="0"/>
        <pt x="298" y="714" on="0"/>
        <pt x="381" y="714" on="1"/>
        <pt x="479" y="714" on="0"/>
        <pt x="622" y="628" on="0"/>
        <pt x="657" y="559" on="1"/>
        <pt x="551" y="486" on="1"/>
        <pt x="537" y="516" on="0"/>
        <pt x="497" y="557" on="0"/>
        <pt x="451" y="581" on="0"/>
        <pt x="401" y="592" on="0"/>
        <pt x="377" y="592" on="1"/>
        <pt x="325" y="592" on="0"/>
        <pt x="248" y="550" on="0"/>
        <pt x="197" y="483" on="0"/>
        <pt x="171" y="398" on="0"/>
        <pt x="171" y="356" on="1"/>
        <pt x="171" y="309" on="0"/>
        <pt x="201" y="222" on="0"/>
        <pt x="256" y="156" on="0"/>
        <pt x="333" y="116" on="0"/>
        <pt x="379" y="116" on="1"/>
        <pt x="403" y="116" on="0"/>
        <pt x="455" y="128" on="0"/>
        <pt x="502" y="154" on="0"/>
        <pt x="542" y="195" on="0"/>
        <pt x="554" y="224" on="1"/>
        <pt x="667" y="159" on="1"/>
        <pt x="650" y="119" on="0"/>
        <pt x="587" y="58" on="0"/>
        <pt x="508" y="16" on="0"/>
        <pt x="418" y="-6" on="0"/>
        <pt x="375" y="-6" on="1"/>
        <pt x="299" y="-6" on="0"/>
        <pt x="173" y="58" on="0"/>
        <pt x="82" y="161" on="0"/>
        <pt x="31" y="292" on="0"/>
      </contour>
    </TTGlyph>
    <TTGlyph name="Cdotaccent" xMin="31" yMin="-6" xMax="667" yMax="915">
      <contour>
        <pt x="31" y="360" on="1"/>
        <pt x="31" y="425" on="0"/>
        <pt x="78" y="552" on="0"/>
        <pt x="168" y="652" on="0"/>
        <pt x="298" y="714" on="0"/>
        <pt x="381" y="714" on="1"/>
        <pt x="479" y="714" on="0"/>
        <pt x="622" y="628" on="0"/>
        <pt x="657" y="559" on="1"/>
        <pt x="551" y="486" on="1"/>
        <pt x="537" y="516" on="0"/>
        <pt x="497" y="557" on="0"/>
        <pt x="451" y="581" on="0"/>
        <pt x="401" y="592" on="0"/>
        <pt x="377" y="592" on="1"/>
        <pt x="325" y="592" on="0"/>
        <pt x="248" y="550" on="0"/>
        <pt x="197" y="483" on="0"/>
        <pt x="171" y="398" on="0"/>
        <pt x="171" y="356" on="1"/>
        <pt x="171" y="309" on="0"/>
        <pt x="201" y="222" on="0"/>
        <pt x="256" y="156" on="0"/>
        <pt x="333" y="116" on="0"/>
        <pt x="379" y="116" on="1"/>
        <pt x="403" y="116" on="0"/>
        <pt x="455" y="128" on="0"/>
        <pt x="502" y="154" on="0"/>
        <pt x="542" y="195" on="0"/>
        <pt x="554" y="224" on="1"/>
        <pt x="667" y="159" on="1"/>
        <pt x="650" y="119" on="0"/>
        <pt x="587" y="58" on="0"/>
        <pt x="508" y="16" on="0"/>
        <pt x="418" y="-6" on="0"/>
        <pt x="375" y="-6" on="1"/>
        <pt x="299" y="-6" on="0"/>
        <pt x="173" y="58" on="0"/>
        <pt x="82" y="161" on="0"/>
        <pt x="31" y="292" on="0"/>
      </contour>
      <contour>
        <pt x="322" y="789" on="1"/>
        <pt x="322" y="915" on="1"/>
        <pt x="443" y="915" on="1"/>
        <pt x="443" y="789" on="1"/>
      </contour>
    </TTGlyph>
    <TTGlyph name="D" xMin="74" yMin="0" xMax="682" yMax="710">
      <contour>
        <pt x="74" y="0" on="1"/>
        <pt x="74" y="710" on="1"/>
        <pt x="332" y="710" on="1"/>
        <pt x="419" y="710" on="0"/>
        <pt x="550" y="654" on="0"/>
        <pt x="638" y="558" on="0"/>
        <pt x="682" y="429" on="0"/>
        <pt x="682" y="356" on="1"/>
        <pt x="682" y="275" on="0"/>
        <pt x="633" y="144" on="0"/>
        <pt x="541" y="51" on="0"/>
        <pt x="412" y="0" on="0"/>
        <pt x="332" y="0" on="1"/>
      </contour>
      <contour>
        <pt x="543" y="356" on="1"/>
        <pt x="543" y="407" on="0"/>
        <pt x="515" y="493" on="0"/>
        <pt x="461" y="555" on="0"/>
        <pt x="382" y="589" on="0"/>
        <pt x="332" y="589" on="1"/>
        <pt x="212" y="589" on="1"/>
        <pt x="212" y="121" on="1"/>
        <pt x="332" y="121" on="1"/>
        <pt x="383" y="121" on="0"/>
        <pt x="462" y="157" on="0"/>
        <pt x="515" y="220" on="0"/>
        <pt x="543" y="306" on="0"/>
      </contour>
    </TTGlyph>
    <TTGlyph name="D.sc" xMin="68" yMin="0" xMax="600" yMax="559">
      <contour>
        <pt x="68" y="0" on="1"/>
        <pt x="68" y="559" on="1"/>
        <pt x="294" y="559" on="1"/>
        <pt x="370" y="559" on="0"/>
        <pt x="484" y="515" on="0"/>
        <pt x="561" y="440" on="0"/>
        <pt x="600" y="339" on="0"/>
        <pt x="600" y="281" on="1"/>
        <pt x="600" y="217" on="0"/>
        <pt x="556" y="113" on="0"/>
        <pt x="476" y="40" on="0"/>
        <pt x="363" y="0" on="0"/>
        <pt x="294" y="0" on="1"/>
      </contour>
      <contour>
        <pt x="477" y="281" on="1"/>
        <pt x="477" y="357" on="0"/>
        <pt x="382" y="453" on="0"/>
        <pt x="294" y="453" on="1"/>
        <pt x="189" y="453" on="1"/>
        <pt x="189" y="106" on="1"/>
        <pt x="294" y="106" on="1"/>
        <pt x="339" y="106" on="0"/>
        <pt x="407" y="132" on="0"/>
        <pt x="453" y="179" on="0"/>
        <pt x="477" y="243" on="0"/>
      </contour>
    </TTGlyph>
    <TTGlyph name="Dcaron" xMin="74" yMin="0" xMax="682" yMax="915">
      <contour>
        <pt x="245" y="915" on="1"/>
        <pt x="330" y="852" on="1"/>
        <pt x="415" y="915" on="1"/>
        <pt x="484" y="883" on="1"/>
        <pt x="378" y="782" on="1"/>
        <pt x="281" y="782" on="1"/>
        <pt x="175" y="883" on="1"/>
      </contour>
      <contour>
        <pt x="74" y="0" on="1"/>
        <pt x="74" y="710" on="1"/>
        <pt x="332" y="710" on="1"/>
        <pt x="419" y="710" on="0"/>
        <pt x="550" y="654" on="0"/>
        <pt x="638" y="558" on="0"/>
        <pt x="682" y="429" on="0"/>
        <pt x="682" y="356" on="1"/>
        <pt x="682" y="275" on="0"/>
        <pt x="633" y="144" on="0"/>
        <pt x="541" y="51" on="0"/>
        <pt x="412" y="0" on="0"/>
        <pt x="332" y="0" on="1"/>
      </contour>
      <contour>
        <pt x="543" y="356" on="1"/>
        <pt x="543" y="407" on="0"/>
        <pt x="515" y="493" on="0"/>
        <pt x="461" y="555" on="0"/>
        <pt x="382" y="589" on="0"/>
        <pt x="332" y="589" on="1"/>
        <pt x="212" y="589" on="1"/>
        <pt x="212" y="121" on="1"/>
        <pt x="332" y="121" on="1"/>
        <pt x="383" y="121" on="0"/>
        <pt x="462" y="157" on="0"/>
        <pt x="515" y="220" on="0"/>
        <pt x="543" y="306" on="0"/>
      </contour>
    </TTGlyph>
    <TTGlyph name="Dcroat" xMin="31" yMin="0" xMax="687" yMax="710">
      <contour>
        <pt x="79" y="0" on="1"/>
        <pt x="79" y="307" on="1"/>
        <pt x="31" y="307" on="1"/>
        <pt x="31" y="407" on="1"/>
        <pt x="79" y="407" on="1"/>
        <pt x="79" y="710" on="1"/>
        <pt x="337" y="710" on="1"/>
        <pt x="424" y="710" on="0"/>
        <pt x="555" y="654" on="0"/>
        <pt x="643" y="558" on="0"/>
        <pt x="687" y="429" on="0"/>
        <pt x="687" y="356" on="1"/>
        <pt x="687" y="275" on="0"/>
        <pt x="638" y="144" on="0"/>
        <pt x="546" y="51" on="0"/>
        <pt x="417" y="0" on="0"/>
        <pt x="337" y="0" on="1"/>
      </contour>
      <contour>
        <pt x="548" y="356" on="1"/>
        <pt x="548" y="407" on="0"/>
        <pt x="520" y="493" on="0"/>
        <pt x="466" y="555" on="0"/>
        <pt x="387" y="589" on="0"/>
        <pt x="337" y="589" on="1"/>
        <pt x="217" y="589" on="1"/>
        <pt x="217" y="407" on="1"/>
        <pt x="356" y="407" on="1"/>
        <pt x="356" y="307" on="1"/>
        <pt x="217" y="307" on="1"/>
        <pt x="217" y="121" on="1"/>
        <pt x="337" y="121" on="1"/>
        <pt x="388" y="121" on="0"/>
        <pt x="467" y="157" on="0"/>
        <pt x="520" y="220" on="0"/>
        <pt x="548" y="306" on="0"/>
      </contour>
    </TTGlyph>
    <TTGlyph name="Ddotbelow" xMin="74" yMin="-196" xMax="682" yMax="710">
      <contour>
        <pt x="281" y="-196" on="1"/>
        <pt x="281" y="-70" on="1"/>
        <pt x="402" y="-70" on="1"/>
        <pt x="402" y="-196" on="1"/>
      </contour>
      <contour>
        <pt x="74" y="0" on="1"/>
        <pt x="74" y="710" on="1"/>
        <pt x="332" y="710" on="1"/>
        <pt x="419" y="710" on="0"/>
        <pt x="550" y="654" on="0"/>
        <pt x="638" y="558" on="0"/>
        <pt x="682" y="429" on="0"/>
        <pt x="682" y="356" on="1"/>
        <pt x="682" y="275" on="0"/>
        <pt x="633" y="144" on="0"/>
        <pt x="541" y="51" on="0"/>
        <pt x="412" y="0" on="0"/>
        <pt x="332" y="0" on="1"/>
      </contour>
      <contour>
        <pt x="543" y="356" on="1"/>
        <pt x="543" y="407" on="0"/>
        <pt x="515" y="493" on="0"/>
        <pt x="461" y="555" on="0"/>
        <pt x="382" y="589" on="0"/>
        <pt x="332" y="589" on="1"/>
        <pt x="212" y="589" on="1"/>
        <pt x="212" y="121" on="1"/>
        <pt x="332" y="121" on="1"/>
        <pt x="383" y="121" on="0"/>
        <pt x="462" y="157" on="0"/>
        <pt x="515" y="220" on="0"/>
        <pt x="543" y="306" on="0"/>
      </contour>
    </TTGlyph>
    <TTGlyph name="Delta" xMin="7" yMin="0" xMax="622" yMax="710">
      <contour>
        <pt x="622" y="104" on="1"/>
        <pt x="622" y="0" on="1"/>
        <pt x="7" y="0" on="1"/>
        <pt x="7" y="104" on="1"/>
        <pt x="259" y="710" on="1"/>
        <pt x="371" y="710" on="1"/>
      </contour>
      <contour>
        <pt x="485" y="121" on="1"/>
        <pt x="315" y="557" on="1"/>
        <pt x="147" y="121" on="1"/>
      </contour>
    </TTGlyph>
    <TTGlyph name="E" xMin="74" yMin="0" xMax="567" yMax="710">
      <contour>
        <pt x="567" y="121" on="1"/>
        <pt x="567" y="0" on="1"/>
        <pt x="74" y="0" on="1"/>
        <pt x="74" y="710" on="1"/>
        <pt x="558" y="710" on="1"/>
        <pt x="558" y="589" on="1"/>
        <pt x="212" y="589" on="1"/>
        <pt x="212" y="418" on="1"/>
        <pt x="511" y="418" on="1"/>
        <pt x="511" y="306" on="1"/>
        <pt x="212" y="306" on="1"/>
        <pt x="212" y="121" on="1"/>
      </contour>
    </TTGlyph>
    <TTGlyph name="E.sc" xMin="68" yMin="0" xMax="499" yMax="559">
      <contour>
        <pt x="499" y="106" on="1"/>
        <pt x="499" y="0" on="1"/>
        <pt x="68" y="0" on="1"/>
        <pt x="68" y="559" on="1"/>
        <pt x="491" y="559" on="1"/>
        <pt x="491" y="453" on="1"/>
        <pt x="189" y="453" on="1"/>
        <pt x="189" y="334" on="1"/>
        <pt x="450" y="334" on="1"/>
        <pt x="450" y="235" on="1"/>
        <pt x="189" y="235" on="1"/>
        <pt x="189" y="106" on="1"/>
      </contour>
    </TTGlyph>
    <TTGlyph name="Eacute" xMin="74" yMin="0" xMax="567" yMax="915">
      <contour>
        <pt x="361" y="770" on="1"/>
        <pt x="275" y="796" on="1"/>
        <pt x="329" y="915" on="1"/>
        <pt x="454" y="915" on="1"/>
      </contour>
      <contour>
        <pt x="567" y="121" on="1"/>
        <pt x="567" y="0" on="1"/>
        <pt x="74" y="0" on="1"/>
        <pt x="74" y="710" on="1"/>
        <pt x="558" y="710" on="1"/>
        <pt x="558" y="589" on="1"/>
        <pt x="212" y="589" on="1"/>
        <pt x="212" y="418" on="1"/>
        <pt x="511" y="418" on="1"/>
        <pt x="511" y="306" on="1"/>
        <pt x="212" y="306" on="1"/>
        <pt x="212" y="121" on="1"/>
      </contour>
    </TTGlyph>
    <TTGlyph name="Ebreve" xMin="74" yMin="0" xMax="567" yMax="915">
      <contour>
        <pt x="567" y="121" on="1"/>
        <pt x="567" y="0" on="1"/>
        <pt x="74" y="0" on="1"/>
        <pt x="74" y="710" on="1"/>
        <pt x="558" y="710" on="1"/>
        <pt x="558" y="589" on="1"/>
        <pt x="212" y="589" on="1"/>
        <pt x="212" y="418" on="1"/>
        <pt x="511" y="418" on="1"/>
        <pt x="511" y="306" on="1"/>
        <pt x="212" y="306" on="1"/>
        <pt x="212" y="121" on="1"/>
      </contour>
      <contour>
        <pt x="326" y="841" on="1"/>
        <pt x="349" y="841" on="0"/>
        <pt x="383" y="883" on="0"/>
        <pt x="386" y="915" on="1"/>
        <pt x="457" y="915" on="1"/>
        <pt x="457" y="886" on="0"/>
        <pt x="437" y="837" on="0"/>
        <pt x="403" y="801" on="0"/>
        <pt x="354" y="781" on="0"/>
        <pt x="326" y="781" on="1"/>
        <pt x="297" y="781" on="0"/>
        <pt x="249" y="801" on="0"/>
        <pt x="215" y="837" on="0"/>
        <pt x="195" y="886" on="0"/>
        <pt x="195" y="915" on="1"/>
        <pt x="267" y="915" on="1"/>
        <pt x="267" y="885" on="0"/>
        <pt x="303" y="841" on="0"/>
      </contour>
    </TTGlyph>
    <TTGlyph name="Ecaron" xMin="74" yMin="0" xMax="567" yMax="915">
      <contour>
        <pt x="241" y="915" on="1"/>
        <pt x="326" y="852" on="1"/>
        <pt x="411" y="915" on="1"/>
        <pt x="480" y="883" on="1"/>
        <pt x="374" y="782" on="1"/>
        <pt x="277" y="782" on="1"/>
        <pt x="171" y="883" on="1"/>
      </contour>
      <contour>
        <pt x="567" y="121" on="1"/>
        <pt x="567" y="0" on="1"/>
        <pt x="74" y="0" on="1"/>
        <pt x="74" y="710" on="1"/>
        <pt x="558" y="710" on="1"/>
        <pt x="558" y="589" on="1"/>
        <pt x="212" y="589" on="1"/>
        <pt x="212" y="418" on="1"/>
        <pt x="511" y="418" on="1"/>
        <pt x="511" y="306" on="1"/>
        <pt x="212" y="306" on="1"/>
        <pt x="212" y="121" on="1"/>
      </contour>
    </TTGlyph>
    <TTGlyph name="Ecircumflex" xMin="74" yMin="0" xMax="567" yMax="915">
      <contour>
        <pt x="171" y="814" on="1"/>
        <pt x="277" y="915" on="1"/>
        <pt x="374" y="915" on="1"/>
        <pt x="480" y="814" on="1"/>
        <pt x="411" y="782" on="1"/>
        <pt x="326" y="845" on="1"/>
        <pt x="241" y="782" on="1"/>
      </contour>
      <contour>
        <pt x="567" y="121" on="1"/>
        <pt x="567" y="0" on="1"/>
        <pt x="74" y="0" on="1"/>
        <pt x="74" y="710" on="1"/>
        <pt x="558" y="710" on="1"/>
        <pt x="558" y="589" on="1"/>
        <pt x="212" y="589" on="1"/>
        <pt x="212" y="418" on="1"/>
        <pt x="511" y="418" on="1"/>
        <pt x="511" y="306" on="1"/>
        <pt x="212" y="306" on="1"/>
        <pt x="212" y="121" on="1"/>
      </contour>
    </TTGlyph>
    <TTGlyph name="Edblgrave" xMin="74" yMin="0" xMax="567" yMax="917">
      <contour>
        <pt x="299" y="917" on="1"/>
        <pt x="404" y="917" on="1"/>
        <pt x="451" y="798" on="1"/>
        <pt x="385" y="772" on="1"/>
      </contour>
      <contour>
        <pt x="139" y="917" on="1"/>
        <pt x="243" y="917" on="1"/>
        <pt x="291" y="798" on="1"/>
        <pt x="225" y="772" on="1"/>
      </contour>
      <contour>
        <pt x="567" y="121" on="1"/>
        <pt x="567" y="0" on="1"/>
        <pt x="74" y="0" on="1"/>
        <pt x="74" y="710" on="1"/>
        <pt x="558" y="710" on="1"/>
        <pt x="558" y="589" on="1"/>
        <pt x="212" y="589" on="1"/>
        <pt x="212" y="418" on="1"/>
        <pt x="511" y="418" on="1"/>
        <pt x="511" y="306" on="1"/>
        <pt x="212" y="306" on="1"/>
        <pt x="212" y="121" on="1"/>
      </contour>
    </TTGlyph>
    <TTGlyph name="Edieresis" xMin="74" yMin="0" xMax="567" yMax="909">
      <contour>
        <pt x="174" y="790" on="1"/>
        <pt x="174" y="909" on="1"/>
        <pt x="285" y="909" on="1"/>
        <pt x="285" y="790" on="1"/>
      </contour>
      <contour>
        <pt x="366" y="790" on="1"/>
        <pt x="366" y="909" on="1"/>
        <pt x="477" y="909" on="1"/>
        <pt x="477" y="790" on="1"/>
      </contour>
      <contour>
        <pt x="567" y="121" on="1"/>
        <pt x="567" y="0" on="1"/>
        <pt x="74" y="0" on="1"/>
        <pt x="74" y="710" on="1"/>
        <pt x="558" y="710" on="1"/>
        <pt x="558" y="589" on="1"/>
        <pt x="212" y="589" on="1"/>
        <pt x="212" y="418" on="1"/>
        <pt x="511" y="418" on="1"/>
        <pt x="511" y="306" on="1"/>
        <pt x="212" y="306" on="1"/>
        <pt x="212" y="121" on="1"/>
      </contour>
    </TTGlyph>
    <TTGlyph name="Edotaccent" xMin="74" yMin="0" xMax="567" yMax="915">
      <contour>
        <pt x="567" y="121" on="1"/>
        <pt x="567" y="0" on="1"/>
        <pt x="74" y="0" on="1"/>
        <pt x="74" y="710" on="1"/>
        <pt x="558" y="710" on="1"/>
        <pt x="558" y="589" on="1"/>
        <pt x="212" y="589" on="1"/>
        <pt x="212" y="418" on="1"/>
        <pt x="511" y="418" on="1"/>
        <pt x="511" y="306" on="1"/>
        <pt x="212" y="306" on="1"/>
        <pt x="212" y="121" on="1"/>
      </contour>
      <contour>
        <pt x="266" y="789" on="1"/>
        <pt x="266" y="915" on="1"/>
        <pt x="387" y="915" on="1"/>
        <pt x="387" y="789" on="1"/>
      </contour>
    </TTGlyph>
    <TTGlyph name="Edotbelow" xMin="74" yMin="-196" xMax="567" yMax="710">
      <contour>
        <pt x="567" y="121" on="1"/>
        <pt x="567" y="0" on="1"/>
        <pt x="74" y="0" on="1"/>
        <pt x="74" y="710" on="1"/>
        <pt x="558" y="710" on="1"/>
        <pt x="558" y="589" on="1"/>
        <pt x="212" y="589" on="1"/>
        <pt x="212" y="418" on="1"/>
        <pt x="511" y="418" on="1"/>
        <pt x="511" y="306" on="1"/>
        <pt x="212" y="306" on="1"/>
        <pt x="212" y="121" on="1"/>
      </contour>
      <contour>
        <pt x="259" y="-196" on="1"/>
        <pt x="259" y="-70" on="1"/>
        <pt x="380" y="-70" on="1"/>
        <pt x="380" y="-196" on="1"/>
      </contour>
    </TTGlyph>
    <TTGlyph name="Egrave" xMin="74" yMin="0" xMax="567" yMax="916">
      <contour>
        <pt x="567" y="121" on="1"/>
        <pt x="567" y="0" on="1"/>
        <pt x="74" y="0" on="1"/>
        <pt x="74" y="710" on="1"/>
        <pt x="558" y="710" on="1"/>
        <pt x="558" y="589" on="1"/>
        <pt x="212" y="589" on="1"/>
        <pt x="212" y="418" on="1"/>
        <pt x="511" y="418" on="1"/>
        <pt x="511" y="306" on="1"/>
        <pt x="212" y="306" on="1"/>
        <pt x="212" y="121" on="1"/>
      </contour>
      <contour>
        <pt x="198" y="916" on="1"/>
        <pt x="322" y="916" on="1"/>
        <pt x="377" y="797" on="1"/>
        <pt x="291" y="771" on="1"/>
      </contour>
    </TTGlyph>
    <TTGlyph name="Einvertedbreve" xMin="74" yMin="0" xMax="567" yMax="915">
      <contour>
        <pt x="324" y="855" on="1"/>
        <pt x="301" y="855" on="0"/>
        <pt x="265" y="811" on="0"/>
        <pt x="265" y="781" on="1"/>
        <pt x="193" y="781" on="1"/>
        <pt x="193" y="810" on="0"/>
        <pt x="213" y="859" on="0"/>
        <pt x="247" y="895" on="0"/>
        <pt x="295" y="915" on="0"/>
        <pt x="324" y="915" on="1"/>
        <pt x="352" y="915" on="0"/>
        <pt x="401" y="895" on="0"/>
        <pt x="435" y="859" on="0"/>
        <pt x="455" y="810" on="0"/>
        <pt x="455" y="781" on="1"/>
        <pt x="384" y="781" on="1"/>
        <pt x="381" y="813" on="0"/>
        <pt x="347" y="855" on="0"/>
      </contour>
      <contour>
        <pt x="567" y="121" on="1"/>
        <pt x="567" y="0" on="1"/>
        <pt x="74" y="0" on="1"/>
        <pt x="74" y="710" on="1"/>
        <pt x="558" y="710" on="1"/>
        <pt x="558" y="589" on="1"/>
        <pt x="212" y="589" on="1"/>
        <pt x="212" y="418" on="1"/>
        <pt x="511" y="418" on="1"/>
        <pt x="511" y="306" on="1"/>
        <pt x="212" y="306" on="1"/>
        <pt x="212" y="121" on="1"/>
      </contour>
    </TTGlyph>
    <TTGlyph name="Emacron" xMin="74" yMin="0" xMax="567" yMax="901">
      <contour>
        <pt x="567" y="121" on="1"/>
        <pt x="567" y="0" on="1"/>
        <pt x="74" y="0" on="1"/>
        <pt x="74" y="710" on="1"/>
        <pt x="558" y="710" on="1"/>
        <pt x="558" y="589" on="1"/>
        <pt x="212" y="589" on="1"/>
        <pt x="212" y="418" on="1"/>
        <pt x="511" y="418" on="1"/>
        <pt x="511" y="306" on="1"/>
        <pt x="212" y="306" on="1"/>
        <pt x="212" y="121" on="1"/>
      </contour>
      <contour>
        <pt x="177" y="818" on="1"/>
        <pt x="177" y="901" on="1"/>
        <pt x="477" y="901" on="1"/>
        <pt x="477" y="818" on="1"/>
      </contour>
    </TTGlyph>
    <TTGlyph name="Eng" xMin="74" yMin="-196" xMax="675" yMax="710">
      <contour>
        <pt x="212" y="451" on="1"/>
        <pt x="212" y="0" on="1"/>
        <pt x="74" y="0" on="1"/>
        <pt x="74" y="710" on="1"/>
        <pt x="180" y="710" on="1"/>
        <pt x="538" y="250" on="1"/>
        <pt x="538" y="709" on="1"/>
        <pt x="675" y="709" on="1"/>
        <pt x="675" y="-9" on="1"/>
        <pt x="675" y="-51" on="0"/>
        <pt x="646" y="-120" on="0"/>
        <pt x="596" y="-169" on="0"/>
        <pt x="530" y="-196" on="0"/>
        <pt x="493" y="-196" on="1"/>
        <pt x="455" y="-196" on="0"/>
        <pt x="387" y="-173" on="0"/>
        <pt x="360" y="-149" on="1"/>
        <pt x="418" y="-58" on="1"/>
        <pt x="429" y="-69" on="0"/>
        <pt x="460" y="-80" on="0"/>
        <pt x="476" y="-80" on="1"/>
        <pt x="502" y="-80" on="0"/>
        <pt x="541" y="-43" on="0"/>
        <pt x="541" y="-14" on="1"/>
        <pt x="541" y="28" on="1"/>
      </contour>
    </TTGlyph>
    <TTGlyph name="Eogonek" xMin="74" yMin="-196" xMax="567" yMax="710">
      <contour>
        <pt x="567" y="121" on="1"/>
        <pt x="567" y="0" on="1"/>
        <pt x="490" y="-46" on="0"/>
        <pt x="490" y="-85" on="1"/>
        <pt x="490" y="-122" on="0"/>
        <pt x="552" y="-126" on="1"/>
        <pt x="524" y="-196" on="1"/>
        <pt x="466" y="-188" on="0"/>
        <pt x="409" y="-140" on="0"/>
        <pt x="409" y="-109" on="1"/>
        <pt x="409" y="-51" on="0"/>
        <pt x="490" y="0" on="1"/>
        <pt x="74" y="0" on="1"/>
        <pt x="74" y="710" on="1"/>
        <pt x="558" y="710" on="1"/>
        <pt x="558" y="589" on="1"/>
        <pt x="212" y="589" on="1"/>
        <pt x="212" y="418" on="1"/>
        <pt x="511" y="418" on="1"/>
        <pt x="511" y="306" on="1"/>
        <pt x="212" y="306" on="1"/>
        <pt x="212" y="121" on="1"/>
      </contour>
    </TTGlyph>
    <TTGlyph name="Eth" xMin="31" yMin="0" xMax="687" yMax="710">
      <contour>
        <pt x="79" y="0" on="1"/>
        <pt x="79" y="307" on="1"/>
        <pt x="31" y="307" on="1"/>
        <pt x="31" y="407" on="1"/>
        <pt x="79" y="407" on="1"/>
        <pt x="79" y="710" on="1"/>
        <pt x="337" y="710" on="1"/>
        <pt x="424" y="710" on="0"/>
        <pt x="555" y="654" on="0"/>
        <pt x="643" y="558" on="0"/>
        <pt x="687" y="429" on="0"/>
        <pt x="687" y="356" on="1"/>
        <pt x="687" y="275" on="0"/>
        <pt x="638" y="144" on="0"/>
        <pt x="546" y="51" on="0"/>
        <pt x="417" y="0" on="0"/>
        <pt x="337" y="0" on="1"/>
      </contour>
      <contour>
        <pt x="548" y="356" on="1"/>
        <pt x="548" y="407" on="0"/>
        <pt x="520" y="493" on="0"/>
        <pt x="466" y="555" on="0"/>
        <pt x="387" y="589" on="0"/>
        <pt x="337" y="589" on="1"/>
        <pt x="217" y="589" on="1"/>
        <pt x="217" y="407" on="1"/>
        <pt x="356" y="407" on="1"/>
        <pt x="356" y="307" on="1"/>
        <pt x="217" y="307" on="1"/>
        <pt x="217" y="121" on="1"/>
        <pt x="337" y="121" on="1"/>
        <pt x="388" y="121" on="0"/>
        <pt x="467" y="157" on="0"/>
        <pt x="520" y="220" on="0"/>
        <pt x="548" y="306" on="0"/>
      </contour>
    </TTGlyph>
    <TTGlyph name="Etilde" xMin="74" yMin="0" xMax="567" yMax="915">
      <contour>
        <pt x="567" y="121" on="1"/>
        <pt x="567" y="0" on="1"/>
        <pt x="74" y="0" on="1"/>
        <pt x="74" y="710" on="1"/>
        <pt x="558" y="710" on="1"/>
        <pt x="558" y="589" on="1"/>
        <pt x="212" y="589" on="1"/>
        <pt x="212" y="418" on="1"/>
        <pt x="511" y="418" on="1"/>
        <pt x="511" y="306" on="1"/>
        <pt x="212" y="306" on="1"/>
        <pt x="212" y="121" on="1"/>
      </contour>
      <contour>
        <pt x="389" y="787" on="1"/>
        <pt x="366" y="787" on="0"/>
        <pt x="332" y="801" on="0"/>
        <pt x="303" y="818" on="0"/>
        <pt x="274" y="832" on="0"/>
        <pt x="258" y="832" on="1"/>
        <pt x="241" y="832" on="0"/>
        <pt x="222" y="818" on="0"/>
        <pt x="212" y="800" on="0"/>
        <pt x="210" y="785" on="0"/>
        <pt x="210" y="784" on="1"/>
        <pt x="136" y="784" on="1"/>
        <pt x="136" y="793" on="0"/>
        <pt x="148" y="836" on="0"/>
        <pt x="175" y="879" on="0"/>
        <pt x="220" y="912" on="0"/>
        <pt x="253" y="912" on="1"/>
        <pt x="276" y="912" on="0"/>
        <pt x="309" y="897" on="0"/>
        <pt x="338" y="880" on="0"/>
        <pt x="367" y="865" on="0"/>
        <pt x="385" y="865" on="1"/>
        <pt x="403" y="865" on="0"/>
        <pt x="424" y="879" on="0"/>
        <pt x="435" y="897" on="0"/>
        <pt x="438" y="913" on="0"/>
        <pt x="438" y="915" on="1"/>
        <pt x="512" y="915" on="1"/>
        <pt x="512" y="908" on="0"/>
        <pt x="500" y="866" on="0"/>
        <pt x="471" y="822" on="0"/>
        <pt x="424" y="787" on="0"/>
      </contour>
    </TTGlyph>
    <TTGlyph name="Euro" xMin="33" yMin="-6" xMax="753" yMax="714">
      <contour>
        <pt x="126" y="441" on="1"/>
        <pt x="138" y="495" on="0"/>
        <pt x="195" y="594" on="0"/>
        <pt x="282" y="669" on="0"/>
        <pt x="397" y="714" on="0"/>
        <pt x="467" y="714" on="1"/>
        <pt x="565" y="714" on="0"/>
        <pt x="708" y="628" on="0"/>
        <pt x="743" y="559" on="1"/>
        <pt x="637" y="486" on="1"/>
        <pt x="623" y="516" on="0"/>
        <pt x="583" y="557" on="0"/>
        <pt x="537" y="581" on="0"/>
        <pt x="487" y="592" on="0"/>
        <pt x="463" y="592" on="1"/>
        <pt x="424" y="592" on="0"/>
        <pt x="361" y="568" on="0"/>
        <pt x="313" y="527" on="0"/>
        <pt x="279" y="472" on="0"/>
        <pt x="270" y="441" on="1"/>
        <pt x="526" y="441" on="1"/>
        <pt x="496" y="367" on="1"/>
        <pt x="257" y="367" on="1"/>
        <pt x="257" y="356" on="1"/>
        <pt x="257" y="335" on="0"/>
        <pt x="260" y="316" on="1"/>
        <pt x="494" y="316" on="1"/>
        <pt x="464" y="242" on="1"/>
        <pt x="281" y="242" on="1"/>
        <pt x="307" y="186" on="0"/>
        <pt x="402" y="116" on="0"/>
        <pt x="465" y="116" on="1"/>
        <pt x="489" y="116" on="0"/>
        <pt x="541" y="128" on="0"/>
        <pt x="588" y="154" on="0"/>
        <pt x="628" y="195" on="0"/>
        <pt x="640" y="224" on="1"/>
        <pt x="753" y="159" on="1"/>
        <pt x="736" y="119" on="0"/>
        <pt x="673" y="58" on="0"/>
        <pt x="594" y="16" on="0"/>
        <pt x="504" y="-6" on="0"/>
        <pt x="461" y="-6" on="1"/>
        <pt x="402" y="-6" on="0"/>
        <pt x="299" y="34" on="0"/>
        <pt x="215" y="101" on="0"/>
        <pt x="154" y="191" on="0"/>
        <pt x="137" y="242" on="1"/>
        <pt x="33" y="242" on="1"/>
        <pt x="64" y="316" on="1"/>
        <pt x="120" y="316" on="1"/>
        <pt x="117" y="337" on="0"/>
        <pt x="117" y="360" on="1"/>
        <pt x="117" y="367" on="1"/>
        <pt x="47" y="367" on="1"/>
        <pt x="77" y="441" on="1"/>
      </contour>
    </TTGlyph>
    <TTGlyph name="F" xMin="74" yMin="0" xMax="551" yMax="710">
      <contour>
        <pt x="74" y="0" on="1"/>
        <pt x="74" y="710" on="1"/>
        <pt x="551" y="710" on="1"/>
        <pt x="551" y="589" on="1"/>
        <pt x="212" y="589" on="1"/>
        <pt x="212" y="406" on="1"/>
        <pt x="494" y="406" on="1"/>
        <pt x="494" y="294" on="1"/>
        <pt x="212" y="294" on="1"/>
        <pt x="212" y="0" on="1"/>
      </contour>
    </TTGlyph>
    <TTGlyph name="F.sc" xMin="68" yMin="0" xMax="485" yMax="559">
      <contour>
        <pt x="68" y="0" on="1"/>
        <pt x="68" y="559" on="1"/>
        <pt x="485" y="559" on="1"/>
        <pt x="485" y="453" on="1"/>
        <pt x="189" y="453" on="1"/>
        <pt x="189" y="323" on="1"/>
        <pt x="436" y="323" on="1"/>
        <pt x="436" y="224" on="1"/>
        <pt x="189" y="224" on="1"/>
        <pt x="189" y="0" on="1"/>
      </contour>
    </TTGlyph>
    <TTGlyph name="G" xMin="32" yMin="-5" xMax="681" yMax="715">
      <contour>
        <pt x="567" y="80" on="1"/>
        <pt x="482" y="-5" on="0"/>
        <pt x="369" y="-5" on="1"/>
        <pt x="299" y="-5" on="0"/>
        <pt x="176" y="51" on="0"/>
        <pt x="85" y="149" on="0"/>
        <pt x="32" y="282" on="0"/>
        <pt x="32" y="359" on="1"/>
        <pt x="32" y="432" on="0"/>
        <pt x="85" y="561" on="0"/>
        <pt x="178" y="658" on="0"/>
        <pt x="304" y="715" on="0"/>
        <pt x="378" y="715" on="1"/>
        <pt x="478" y="715" on="0"/>
        <pt x="621" y="631" on="0"/>
        <pt x="657" y="560" on="1"/>
        <pt x="554" y="484" on="1"/>
        <pt x="527" y="537" on="0"/>
        <pt x="430" y="593" on="0"/>
        <pt x="373" y="593" on="1"/>
        <pt x="328" y="593" on="0"/>
        <pt x="253" y="555" on="0"/>
        <pt x="200" y="489" on="0"/>
        <pt x="171" y="403" on="0"/>
        <pt x="171" y="355" on="1"/>
        <pt x="171" y="305" on="0"/>
        <pt x="203" y="218" on="0"/>
        <pt x="259" y="154" on="0"/>
        <pt x="336" y="117" on="0"/>
        <pt x="381" y="117" on="1"/>
        <pt x="484" y="117" on="0"/>
        <pt x="567" y="214" on="1"/>
        <pt x="567" y="264" on="1"/>
        <pt x="424" y="264" on="1"/>
        <pt x="424" y="365" on="1"/>
        <pt x="681" y="365" on="1"/>
        <pt x="681" y="0" on="1"/>
        <pt x="567" y="0" on="1"/>
      </contour>
    </TTGlyph>
    <TTGlyph name="G.alt" xMin="32" yMin="-5" xMax="699" yMax="715">
      <contour>
        <pt x="381" y="-5" on="1"/>
        <pt x="304" y="-5" on="0"/>
        <pt x="176" y="56" on="0"/>
        <pt x="83" y="158" on="0"/>
        <pt x="32" y="289" on="0"/>
        <pt x="32" y="359" on="1"/>
        <pt x="32" y="428" on="0"/>
        <pt x="81" y="556" on="0"/>
        <pt x="171" y="655" on="0"/>
        <pt x="298" y="715" on="0"/>
        <pt x="377" y="715" on="1"/>
        <pt x="468" y="715" on="0"/>
        <pt x="607" y="636" on="0"/>
        <pt x="648" y="566" on="1"/>
        <pt x="539" y="480" on="1"/>
        <pt x="531" y="495" on="0"/>
        <pt x="502" y="534" on="0"/>
        <pt x="460" y="569" on="0"/>
        <pt x="405" y="593" on="0"/>
        <pt x="369" y="593" on="1"/>
        <pt x="321" y="593" on="0"/>
        <pt x="248" y="552" on="0"/>
        <pt x="197" y="485" on="0"/>
        <pt x="171" y="399" on="0"/>
        <pt x="171" y="355" on="1"/>
        <pt x="171" y="313" on="0"/>
        <pt x="196" y="228" on="0"/>
        <pt x="245" y="160" on="0"/>
        <pt x="319" y="117" on="0"/>
        <pt x="368" y="117" on="1"/>
        <pt x="402" y="117" on="0"/>
        <pt x="463" y="140" on="0"/>
        <pt x="511" y="179" on="0"/>
        <pt x="543" y="228" on="0"/>
        <pt x="550" y="255" on="1"/>
        <pt x="395" y="255" on="1"/>
        <pt x="395" y="375" on="1"/>
        <pt x="699" y="375" on="1"/>
        <pt x="699" y="374" on="0"/>
        <pt x="699" y="354" on="0"/>
        <pt x="698" y="330" on="0"/>
        <pt x="698" y="309" on="0"/>
        <pt x="698" y="308" on="1"/>
        <pt x="695" y="245" on="0"/>
        <pt x="648" y="131" on="0"/>
        <pt x="565" y="45" on="0"/>
        <pt x="450" y="-5" on="0"/>
      </contour>
    </TTGlyph>
    <TTGlyph name="G.sc" xMin="32" yMin="-4" xMax="577" yMax="563">
      <contour>
        <pt x="477" y="57" on="1"/>
        <pt x="407" y="-4" on="0"/>
        <pt x="315" y="-4" on="1"/>
        <pt x="256" y="-4" on="0"/>
        <pt x="153" y="43" on="0"/>
        <pt x="76" y="123" on="0"/>
        <pt x="32" y="226" on="0"/>
        <pt x="32" y="283" on="1"/>
        <pt x="32" y="341" on="0"/>
        <pt x="76" y="443" on="0"/>
        <pt x="154" y="519" on="0"/>
        <pt x="261" y="563" on="0"/>
        <pt x="323" y="563" on="1"/>
        <pt x="407" y="563" on="0"/>
        <pt x="527" y="497" on="0"/>
        <pt x="557" y="441" on="1"/>
        <pt x="465" y="373" on="1"/>
        <pt x="444" y="412" on="0"/>
        <pt x="366" y="455" on="0"/>
        <pt x="319" y="455" on="1"/>
        <pt x="282" y="455" on="0"/>
        <pt x="221" y="427" on="0"/>
        <pt x="178" y="379" on="0"/>
        <pt x="154" y="315" on="0"/>
        <pt x="154" y="279" on="1"/>
        <pt x="154" y="241" on="0"/>
        <pt x="180" y="177" on="0"/>
        <pt x="226" y="131" on="0"/>
        <pt x="289" y="104" on="0"/>
        <pt x="326" y="104" on="1"/>
        <pt x="409" y="104" on="0"/>
        <pt x="477" y="175" on="1"/>
        <pt x="477" y="202" on="1"/>
        <pt x="353" y="202" on="1"/>
        <pt x="353" y="290" on="1"/>
        <pt x="577" y="290" on="1"/>
        <pt x="577" y="0" on="1"/>
        <pt x="477" y="0" on="1"/>
      </contour>
    </TTGlyph>
    <TTGlyph name="Gacute" xMin="32" yMin="-5" xMax="681" yMax="915">
      <contour>
        <pt x="417" y="770" on="1"/>
        <pt x="331" y="796" on="1"/>
        <pt x="385" y="915" on="1"/>
        <pt x="510" y="915" on="1"/>
      </contour>
      <contour>
        <pt x="567" y="80" on="1"/>
        <pt x="482" y="-5" on="0"/>
        <pt x="369" y="-5" on="1"/>
        <pt x="299" y="-5" on="0"/>
        <pt x="176" y="51" on="0"/>
        <pt x="85" y="149" on="0"/>
        <pt x="32" y="282" on="0"/>
        <pt x="32" y="359" on="1"/>
        <pt x="32" y="432" on="0"/>
        <pt x="85" y="561" on="0"/>
        <pt x="178" y="658" on="0"/>
        <pt x="304" y="715" on="0"/>
        <pt x="378" y="715" on="1"/>
        <pt x="478" y="715" on="0"/>
        <pt x="621" y="631" on="0"/>
        <pt x="657" y="560" on="1"/>
        <pt x="554" y="484" on="1"/>
        <pt x="527" y="537" on="0"/>
        <pt x="430" y="593" on="0"/>
        <pt x="373" y="593" on="1"/>
        <pt x="328" y="593" on="0"/>
        <pt x="253" y="555" on="0"/>
        <pt x="200" y="489" on="0"/>
        <pt x="171" y="403" on="0"/>
        <pt x="171" y="355" on="1"/>
        <pt x="171" y="305" on="0"/>
        <pt x="203" y="218" on="0"/>
        <pt x="259" y="154" on="0"/>
        <pt x="336" y="117" on="0"/>
        <pt x="381" y="117" on="1"/>
        <pt x="484" y="117" on="0"/>
        <pt x="567" y="214" on="1"/>
        <pt x="567" y="264" on="1"/>
        <pt x="424" y="264" on="1"/>
        <pt x="424" y="365" on="1"/>
        <pt x="681" y="365" on="1"/>
        <pt x="681" y="0" on="1"/>
        <pt x="567" y="0" on="1"/>
      </contour>
    </TTGlyph>
    <TTGlyph name="Gbreve" xMin="32" yMin="-5" xMax="681" yMax="915">
      <contour>
        <pt x="567" y="80" on="1"/>
        <pt x="482" y="-5" on="0"/>
        <pt x="369" y="-5" on="1"/>
        <pt x="299" y="-5" on="0"/>
        <pt x="176" y="51" on="0"/>
        <pt x="85" y="149" on="0"/>
        <pt x="32" y="282" on="0"/>
        <pt x="32" y="359" on="1"/>
        <pt x="32" y="432" on="0"/>
        <pt x="85" y="561" on="0"/>
        <pt x="178" y="658" on="0"/>
        <pt x="304" y="715" on="0"/>
        <pt x="378" y="715" on="1"/>
        <pt x="478" y="715" on="0"/>
        <pt x="621" y="631" on="0"/>
        <pt x="657" y="560" on="1"/>
        <pt x="554" y="484" on="1"/>
        <pt x="527" y="537" on="0"/>
        <pt x="430" y="593" on="0"/>
        <pt x="373" y="593" on="1"/>
        <pt x="328" y="593" on="0"/>
        <pt x="253" y="555" on="0"/>
        <pt x="200" y="489" on="0"/>
        <pt x="171" y="403" on="0"/>
        <pt x="171" y="355" on="1"/>
        <pt x="171" y="305" on="0"/>
        <pt x="203" y="218" on="0"/>
        <pt x="259" y="154" on="0"/>
        <pt x="336" y="117" on="0"/>
        <pt x="381" y="117" on="1"/>
        <pt x="484" y="117" on="0"/>
        <pt x="567" y="214" on="1"/>
        <pt x="567" y="264" on="1"/>
        <pt x="424" y="264" on="1"/>
        <pt x="424" y="365" on="1"/>
        <pt x="681" y="365" on="1"/>
        <pt x="681" y="0" on="1"/>
        <pt x="567" y="0" on="1"/>
      </contour>
      <contour>
        <pt x="378" y="841" on="1"/>
        <pt x="401" y="841" on="0"/>
        <pt x="435" y="883" on="0"/>
        <pt x="438" y="915" on="1"/>
        <pt x="509" y="915" on="1"/>
        <pt x="509" y="886" on="0"/>
        <pt x="489" y="837" on="0"/>
        <pt x="455" y="801" on="0"/>
        <pt x="406" y="781" on="0"/>
        <pt x="378" y="781" on="1"/>
        <pt x="349" y="781" on="0"/>
        <pt x="301" y="801" on="0"/>
        <pt x="267" y="837" on="0"/>
        <pt x="247" y="886" on="0"/>
        <pt x="247" y="915" on="1"/>
        <pt x="319" y="915" on="1"/>
        <pt x="319" y="885" on="0"/>
        <pt x="355" y="841" on="0"/>
      </contour>
    </TTGlyph>
    <TTGlyph name="Gcircumflex" xMin="32" yMin="-5" xMax="681" yMax="915">
      <contour>
        <pt x="223" y="814" on="1"/>
        <pt x="329" y="915" on="1"/>
        <pt x="426" y="915" on="1"/>
        <pt x="532" y="814" on="1"/>
        <pt x="463" y="782" on="1"/>
        <pt x="378" y="845" on="1"/>
        <pt x="293" y="782" on="1"/>
      </contour>
      <contour>
        <pt x="567" y="80" on="1"/>
        <pt x="482" y="-5" on="0"/>
        <pt x="369" y="-5" on="1"/>
        <pt x="299" y="-5" on="0"/>
        <pt x="176" y="51" on="0"/>
        <pt x="85" y="149" on="0"/>
        <pt x="32" y="282" on="0"/>
        <pt x="32" y="359" on="1"/>
        <pt x="32" y="432" on="0"/>
        <pt x="85" y="561" on="0"/>
        <pt x="178" y="658" on="0"/>
        <pt x="304" y="715" on="0"/>
        <pt x="378" y="715" on="1"/>
        <pt x="478" y="715" on="0"/>
        <pt x="621" y="631" on="0"/>
        <pt x="657" y="560" on="1"/>
        <pt x="554" y="484" on="1"/>
        <pt x="527" y="537" on="0"/>
        <pt x="430" y="593" on="0"/>
        <pt x="373" y="593" on="1"/>
        <pt x="328" y="593" on="0"/>
        <pt x="253" y="555" on="0"/>
        <pt x="200" y="489" on="0"/>
        <pt x="171" y="403" on="0"/>
        <pt x="171" y="355" on="1"/>
        <pt x="171" y="305" on="0"/>
        <pt x="203" y="218" on="0"/>
        <pt x="259" y="154" on="0"/>
        <pt x="336" y="117" on="0"/>
        <pt x="381" y="117" on="1"/>
        <pt x="484" y="117" on="0"/>
        <pt x="567" y="214" on="1"/>
        <pt x="567" y="264" on="1"/>
        <pt x="424" y="264" on="1"/>
        <pt x="424" y="365" on="1"/>
        <pt x="681" y="365" on="1"/>
        <pt x="681" y="0" on="1"/>
        <pt x="567" y="0" on="1"/>
      </contour>
    </TTGlyph>
    <TTGlyph name="Gcommaaccent" xMin="32" yMin="-213" xMax="681" yMax="715">
      <contour>
        <pt x="326" y="-213" on="1"/>
        <pt x="353" y="-141" on="1"/>
        <pt x="314" y="-141" on="1"/>
        <pt x="314" y="-47" on="1"/>
        <pt x="427" y="-47" on="1"/>
        <pt x="427" y="-141" on="1"/>
        <pt x="387" y="-213" on="1"/>
      </contour>
      <contour>
        <pt x="567" y="80" on="1"/>
        <pt x="482" y="-5" on="0"/>
        <pt x="369" y="-5" on="1"/>
        <pt x="299" y="-5" on="0"/>
        <pt x="176" y="51" on="0"/>
        <pt x="85" y="149" on="0"/>
        <pt x="32" y="282" on="0"/>
        <pt x="32" y="359" on="1"/>
        <pt x="32" y="432" on="0"/>
        <pt x="85" y="561" on="0"/>
        <pt x="178" y="658" on="0"/>
        <pt x="304" y="715" on="0"/>
        <pt x="378" y="715" on="1"/>
        <pt x="478" y="715" on="0"/>
        <pt x="621" y="631" on="0"/>
        <pt x="657" y="560" on="1"/>
        <pt x="554" y="484" on="1"/>
        <pt x="527" y="537" on="0"/>
        <pt x="430" y="593" on="0"/>
        <pt x="373" y="593" on="1"/>
        <pt x="328" y="593" on="0"/>
        <pt x="253" y="555" on="0"/>
        <pt x="200" y="489" on="0"/>
        <pt x="171" y="403" on="0"/>
        <pt x="171" y="355" on="1"/>
        <pt x="171" y="305" on="0"/>
        <pt x="203" y="218" on="0"/>
        <pt x="259" y="154" on="0"/>
        <pt x="336" y="117" on="0"/>
        <pt x="381" y="117" on="1"/>
        <pt x="484" y="117" on="0"/>
        <pt x="567" y="214" on="1"/>
        <pt x="567" y="264" on="1"/>
        <pt x="424" y="264" on="1"/>
        <pt x="424" y="365" on="1"/>
        <pt x="681" y="365" on="1"/>
        <pt x="681" y="0" on="1"/>
        <pt x="567" y="0" on="1"/>
      </contour>
    </TTGlyph>
    <TTGlyph name="Gdotaccent" xMin="32" yMin="-5" xMax="681" yMax="915">
      <contour>
        <pt x="567" y="80" on="1"/>
        <pt x="482" y="-5" on="0"/>
        <pt x="369" y="-5" on="1"/>
        <pt x="299" y="-5" on="0"/>
        <pt x="176" y="51" on="0"/>
        <pt x="85" y="149" on="0"/>
        <pt x="32" y="282" on="0"/>
        <pt x="32" y="359" on="1"/>
        <pt x="32" y="432" on="0"/>
        <pt x="85" y="561" on="0"/>
        <pt x="178" y="658" on="0"/>
        <pt x="304" y="715" on="0"/>
        <pt x="378" y="715" on="1"/>
        <pt x="478" y="715" on="0"/>
        <pt x="621" y="631" on="0"/>
        <pt x="657" y="560" on="1"/>
        <pt x="554" y="484" on="1"/>
        <pt x="527" y="537" on="0"/>
        <pt x="430" y="593" on="0"/>
        <pt x="373" y="593" on="1"/>
        <pt x="328" y="593" on="0"/>
        <pt x="253" y="555" on="0"/>
        <pt x="200" y="489" on="0"/>
        <pt x="171" y="403" on="0"/>
        <pt x="171" y="355" on="1"/>
        <pt x="171" y="305" on="0"/>
        <pt x="203" y="218" on="0"/>
        <pt x="259" y="154" on="0"/>
        <pt x="336" y="117" on="0"/>
        <pt x="381" y="117" on="1"/>
        <pt x="484" y="117" on="0"/>
        <pt x="567" y="214" on="1"/>
        <pt x="567" y="264" on="1"/>
        <pt x="424" y="264" on="1"/>
        <pt x="424" y="365" on="1"/>
        <pt x="681" y="365" on="1"/>
        <pt x="681" y="0" on="1"/>
        <pt x="567" y="0" on="1"/>
      </contour>
      <contour>
        <pt x="319" y="789" on="1"/>
        <pt x="319" y="915" on="1"/>
        <pt x="440" y="915" on="1"/>
        <pt x="440" y="789" on="1"/>
      </contour>
    </TTGlyph>
    <TTGlyph name="H" xMin="74" yMin="0" xMax="671" yMax="710">
      <contour>
        <pt x="671" y="710" on="1"/>
        <pt x="671" y="0" on="1"/>
        <pt x="534" y="0" on="1"/>
        <pt x="534" y="303" on="1"/>
        <pt x="212" y="303" on="1"/>
        <pt x="212" y="0" on="1"/>
        <pt x="74" y="0" on="1"/>
        <pt x="74" y="710" on="1"/>
        <pt x="212" y="710" on="1"/>
        <pt x="212" y="423" on="1"/>
        <pt x="534" y="423" on="1"/>
        <pt x="534" y="710" on="1"/>
      </contour>
    </TTGlyph>
    <TTGlyph name="H.sc" xMin="68" yMin="0" xMax="590" yMax="559">
      <contour>
        <pt x="590" y="559" on="1"/>
        <pt x="590" y="0" on="1"/>
        <pt x="469" y="0" on="1"/>
        <pt x="469" y="232" on="1"/>
        <pt x="189" y="232" on="1"/>
        <pt x="189" y="0" on="1"/>
        <pt x="68" y="0" on="1"/>
        <pt x="68" y="559" on="1"/>
        <pt x="189" y="559" on="1"/>
        <pt x="189" y="339" on="1"/>
        <pt x="469" y="339" on="1"/>
        <pt x="469" y="559" on="1"/>
      </contour>
    </TTGlyph>
    <TTGlyph name="Hbar" xMin="28" yMin="0" xMax="725" yMax="710">
      <contour>
        <pt x="675" y="710" on="1"/>
        <pt x="675" y="609" on="1"/>
        <pt x="725" y="609" on="1"/>
        <pt x="725" y="543" on="1"/>
        <pt x="675" y="543" on="1"/>
        <pt x="675" y="0" on="1"/>
        <pt x="538" y="0" on="1"/>
        <pt x="538" y="303" on="1"/>
        <pt x="216" y="303" on="1"/>
        <pt x="216" y="0" on="1"/>
        <pt x="78" y="0" on="1"/>
        <pt x="78" y="543" on="1"/>
        <pt x="28" y="543" on="1"/>
        <pt x="28" y="609" on="1"/>
        <pt x="78" y="609" on="1"/>
        <pt x="78" y="710" on="1"/>
        <pt x="216" y="710" on="1"/>
        <pt x="216" y="609" on="1"/>
        <pt x="538" y="609" on="1"/>
        <pt x="538" y="710" on="1"/>
      </contour>
      <contour>
        <pt x="538" y="423" on="1"/>
        <pt x="538" y="543" on="1"/>
        <pt x="216" y="543" on="1"/>
        <pt x="216" y="423" on="1"/>
      </contour>
    </TTGlyph>
    <TTGlyph name="Hcircumflex" xMin="74" yMin="0" xMax="671" yMax="915">
      <contour>
        <pt x="221" y="814" on="1"/>
        <pt x="327" y="915" on="1"/>
        <pt x="424" y="915" on="1"/>
        <pt x="530" y="814" on="1"/>
        <pt x="461" y="782" on="1"/>
        <pt x="376" y="845" on="1"/>
        <pt x="291" y="782" on="1"/>
      </contour>
      <contour>
        <pt x="671" y="710" on="1"/>
        <pt x="671" y="0" on="1"/>
        <pt x="534" y="0" on="1"/>
        <pt x="534" y="303" on="1"/>
        <pt x="212" y="303" on="1"/>
        <pt x="212" y="0" on="1"/>
        <pt x="74" y="0" on="1"/>
        <pt x="74" y="710" on="1"/>
        <pt x="212" y="710" on="1"/>
        <pt x="212" y="423" on="1"/>
        <pt x="534" y="423" on="1"/>
        <pt x="534" y="710" on="1"/>
      </contour>
    </TTGlyph>
    <TTGlyph name="Hdotbelow" xMin="74" yMin="-196" xMax="671" yMax="710">
      <contour>
        <pt x="671" y="710" on="1"/>
        <pt x="671" y="0" on="1"/>
        <pt x="534" y="0" on="1"/>
        <pt x="534" y="303" on="1"/>
        <pt x="212" y="303" on="1"/>
        <pt x="212" y="0" on="1"/>
        <pt x="74" y="0" on="1"/>
        <pt x="74" y="710" on="1"/>
        <pt x="212" y="710" on="1"/>
        <pt x="212" y="423" on="1"/>
        <pt x="534" y="423" on="1"/>
        <pt x="534" y="710" on="1"/>
      </contour>
      <contour>
        <pt x="311" y="-196" on="1"/>
        <pt x="311" y="-70" on="1"/>
        <pt x="432" y="-70" on="1"/>
        <pt x="432" y="-196" on="1"/>
      </contour>
    </TTGlyph>
    <TTGlyph name="I" xMin="74" yMin="0" xMax="212" yMax="710">
      <contour>
        <pt x="74" y="0" on="1"/>
        <pt x="74" y="710" on="1"/>
        <pt x="212" y="710" on="1"/>
        <pt x="212" y="0" on="1"/>
      </contour>
    </TTGlyph>
    <TTGlyph name="I.sc" xMin="68" yMin="0" xMax="189" yMax="559">
      <contour>
        <pt x="68" y="0" on="1"/>
        <pt x="68" y="559" on="1"/>
        <pt x="189" y="559" on="1"/>
        <pt x="189" y="0" on="1"/>
      </contour>
    </TTGlyph>
    <TTGlyph name="IJ" xMin="74" yMin="-11" xMax="711" yMax="710">
      <contour>
        <pt x="74" y="0" on="1"/>
        <pt x="74" y="710" on="1"/>
        <pt x="212" y="710" on="1"/>
        <pt x="212" y="0" on="1"/>
      </contour>
      <contour>
        <pt x="324" y="145" on="1"/>
        <pt x="338" y="135" on="0"/>
        <pt x="404" y="111" on="0"/>
        <pt x="447" y="111" on="1"/>
        <pt x="489" y="111" on="0"/>
        <pt x="539" y="140" on="0"/>
        <pt x="565" y="200" on="0"/>
        <pt x="573" y="289" on="0"/>
        <pt x="573" y="349" on="1"/>
        <pt x="573" y="710" on="1"/>
        <pt x="711" y="710" on="1"/>
        <pt x="711" y="349" on="1"/>
        <pt x="711" y="268" on="0"/>
        <pt x="694" y="135" on="0"/>
        <pt x="639" y="41" on="0"/>
        <pt x="535" y="-11" on="0"/>
        <pt x="447" y="-11" on="1"/>
        <pt x="357" y="-11" on="0"/>
        <pt x="293" y="33" on="1"/>
      </contour>
    </TTGlyph>
    <TTGlyph name="Iacute" xMin="74" yMin="0" xMax="270" yMax="915">
      <contour>
        <pt x="74" y="0" on="1"/>
        <pt x="74" y="710" on="1"/>
        <pt x="212" y="710" on="1"/>
        <pt x="212" y="0" on="1"/>
      </contour>
      <contour>
        <pt x="177" y="770" on="1"/>
        <pt x="91" y="796" on="1"/>
        <pt x="145" y="915" on="1"/>
        <pt x="270" y="915" on="1"/>
      </contour>
    </TTGlyph>
    <TTGlyph name="Ibreve" xMin="11" yMin="0" xMax="273" yMax="915">
      <contour>
        <pt x="74" y="0" on="1"/>
        <pt x="74" y="710" on="1"/>
        <pt x="212" y="710" on="1"/>
        <pt x="212" y="0" on="1"/>
      </contour>
      <contour>
        <pt x="142" y="841" on="1"/>
        <pt x="165" y="841" on="0"/>
        <pt x="199" y="883" on="0"/>
        <pt x="202" y="915" on="1"/>
        <pt x="273" y="915" on="1"/>
        <pt x="273" y="886" on="0"/>
        <pt x="253" y="837" on="0"/>
        <pt x="219" y="801" on="0"/>
        <pt x="170" y="781" on="0"/>
        <pt x="142" y="781" on="1"/>
        <pt x="113" y="781" on="0"/>
        <pt x="65" y="801" on="0"/>
        <pt x="31" y="837" on="0"/>
        <pt x="11" y="886" on="0"/>
        <pt x="11" y="915" on="1"/>
        <pt x="83" y="915" on="1"/>
        <pt x="83" y="885" on="0"/>
        <pt x="119" y="841" on="0"/>
      </contour>
    </TTGlyph>
    <TTGlyph name="Icircumflex" xMin="-12" yMin="0" xMax="297" yMax="915">
      <contour>
        <pt x="74" y="0" on="1"/>
        <pt x="74" y="710" on="1"/>
        <pt x="212" y="710" on="1"/>
        <pt x="212" y="0" on="1"/>
      </contour>
      <contour>
        <pt x="-12" y="814" on="1"/>
        <pt x="94" y="915" on="1"/>
        <pt x="191" y="915" on="1"/>
        <pt x="297" y="814" on="1"/>
        <pt x="228" y="782" on="1"/>
        <pt x="143" y="845" on="1"/>
        <pt x="58" y="782" on="1"/>
      </contour>
    </TTGlyph>
    <TTGlyph name="Idblgrave" xMin="-32" yMin="0" xMax="280" yMax="917">
      <contour>
        <pt x="74" y="0" on="1"/>
        <pt x="74" y="710" on="1"/>
        <pt x="212" y="710" on="1"/>
        <pt x="212" y="0" on="1"/>
      </contour>
      <contour>
        <pt x="128" y="917" on="1"/>
        <pt x="233" y="917" on="1"/>
        <pt x="280" y="798" on="1"/>
        <pt x="214" y="772" on="1"/>
      </contour>
      <contour>
        <pt x="-32" y="917" on="1"/>
        <pt x="72" y="917" on="1"/>
        <pt x="120" y="798" on="1"/>
        <pt x="54" y="772" on="1"/>
      </contour>
    </TTGlyph>
    <TTGlyph name="Idieresis" xMin="-9" yMin="0" xMax="294" yMax="909">
      <contour>
        <pt x="74" y="0" on="1"/>
        <pt x="74" y="710" on="1"/>
        <pt x="212" y="710" on="1"/>
        <pt x="212" y="0" on="1"/>
      </contour>
      <contour>
        <pt x="-9" y="790" on="1"/>
        <pt x="-9" y="909" on="1"/>
        <pt x="102" y="909" on="1"/>
        <pt x="102" y="790" on="1"/>
      </contour>
      <contour>
        <pt x="183" y="790" on="1"/>
        <pt x="183" y="909" on="1"/>
        <pt x="294" y="909" on="1"/>
        <pt x="294" y="790" on="1"/>
      </contour>
    </TTGlyph>
    <TTGlyph name="Idotaccent" xMin="74" yMin="0" xMax="212" yMax="915">
      <contour>
        <pt x="74" y="0" on="1"/>
        <pt x="74" y="710" on="1"/>
        <pt x="212" y="710" on="1"/>
        <pt x="212" y="0" on="1"/>
      </contour>
      <contour>
        <pt x="82" y="789" on="1"/>
        <pt x="82" y="915" on="1"/>
        <pt x="203" y="915" on="1"/>
        <pt x="203" y="789" on="1"/>
      </contour>
    </TTGlyph>
    <TTGlyph name="Idotbelow" xMin="74" yMin="-196" xMax="212" yMax="710">
      <contour>
        <pt x="74" y="0" on="1"/>
        <pt x="74" y="710" on="1"/>
        <pt x="212" y="710" on="1"/>
        <pt x="212" y="0" on="1"/>
      </contour>
      <contour>
        <pt x="80" y="-196" on="1"/>
        <pt x="80" y="-70" on="1"/>
        <pt x="201" y="-70" on="1"/>
        <pt x="201" y="-196" on="1"/>
      </contour>
    </TTGlyph>
    <TTGlyph name="Igrave" xMin="15" yMin="0" xMax="212" yMax="916">
      <contour>
        <pt x="74" y="0" on="1"/>
        <pt x="74" y="710" on="1"/>
        <pt x="212" y="710" on="1"/>
        <pt x="212" y="0" on="1"/>
      </contour>
      <contour>
        <pt x="15" y="916" on="1"/>
        <pt x="139" y="916" on="1"/>
        <pt x="194" y="797" on="1"/>
        <pt x="108" y="771" on="1"/>
      </contour>
    </TTGlyph>
    <TTGlyph name="Iinvertedbreve" xMin="10" yMin="0" xMax="272" yMax="915">
      <contour>
        <pt x="74" y="0" on="1"/>
        <pt x="74" y="710" on="1"/>
        <pt x="212" y="710" on="1"/>
        <pt x="212" y="0" on="1"/>
      </contour>
      <contour>
        <pt x="141" y="855" on="1"/>
        <pt x="118" y="855" on="0"/>
        <pt x="82" y="811" on="0"/>
        <pt x="82" y="781" on="1"/>
        <pt x="10" y="781" on="1"/>
        <pt x="10" y="810" on="0"/>
        <pt x="30" y="859" on="0"/>
        <pt x="64" y="895" on="0"/>
        <pt x="112" y="915" on="0"/>
        <pt x="141" y="915" on="1"/>
        <pt x="169" y="915" on="0"/>
        <pt x="218" y="895" on="0"/>
        <pt x="252" y="859" on="0"/>
        <pt x="272" y="810" on="0"/>
        <pt x="272" y="781" on="1"/>
        <pt x="201" y="781" on="1"/>
        <pt x="198" y="813" on="0"/>
        <pt x="164" y="855" on="0"/>
      </contour>
    </TTGlyph>
    <TTGlyph name="Imacron" xMin="-6" yMin="0" xMax="294" yMax="901">
      <contour>
        <pt x="74" y="0" on="1"/>
        <pt x="74" y="710" on="1"/>
        <pt x="212" y="710" on="1"/>
        <pt x="212" y="0" on="1"/>
      </contour>
      <contour>
        <pt x="-6" y="818" on="1"/>
        <pt x="-6" y="901" on="1"/>
        <pt x="294" y="901" on="1"/>
        <pt x="294" y="818" on="1"/>
      </contour>
    </TTGlyph>
    <TTGlyph name="Iogonek" xMin="54" yMin="-196" xMax="212" yMax="710">
      <contour>
        <pt x="169" y="-196" on="1"/>
        <pt x="111" y="-188" on="0"/>
        <pt x="54" y="-140" on="0"/>
        <pt x="54" y="-109" on="1"/>
        <pt x="54" y="-51" on="0"/>
        <pt x="135" y="0" on="1"/>
        <pt x="74" y="0" on="1"/>
        <pt x="74" y="710" on="1"/>
        <pt x="212" y="710" on="1"/>
        <pt x="212" y="0" on="1"/>
        <pt x="135" y="-46" on="0"/>
        <pt x="135" y="-85" on="1"/>
        <pt x="135" y="-122" on="0"/>
        <pt x="197" y="-126" on="1"/>
        <pt x="169" y="-196" on="1"/>
      </contour>
    </TTGlyph>
    <TTGlyph name="Itilde" xMin="-47" yMin="0" xMax="329" yMax="915">
      <contour>
        <pt x="74" y="0" on="1"/>
        <pt x="74" y="710" on="1"/>
        <pt x="212" y="710" on="1"/>
        <pt x="212" y="0" on="1"/>
      </contour>
      <contour>
        <pt x="206" y="787" on="1"/>
        <pt x="183" y="787" on="0"/>
        <pt x="149" y="801" on="0"/>
        <pt x="120" y="818" on="0"/>
        <pt x="91" y="832" on="0"/>
        <pt x="75" y="832" on="1"/>
        <pt x="58" y="832" on="0"/>
        <pt x="39" y="818" on="0"/>
        <pt x="29" y="800" on="0"/>
        <pt x="27" y="785" on="0"/>
        <pt x="27" y="784" on="1"/>
        <pt x="-47" y="784" on="1"/>
        <pt x="-47" y="793" on="0"/>
        <pt x="-35" y="836" on="0"/>
        <pt x="-8" y="879" on="0"/>
        <pt x="37" y="912" on="0"/>
        <pt x="70" y="912" on="1"/>
        <pt x="93" y="912" on="0"/>
        <pt x="126" y="897" on="0"/>
        <pt x="155" y="880" on="0"/>
        <pt x="184" y="865" on="0"/>
        <pt x="202" y="865" on="1"/>
        <pt x="220" y="865" on="0"/>
        <pt x="241" y="879" on="0"/>
        <pt x="252" y="897" on="0"/>
        <pt x="255" y="913" on="0"/>
        <pt x="255" y="915" on="1"/>
        <pt x="329" y="915" on="1"/>
        <pt x="329" y="908" on="0"/>
        <pt x="317" y="866" on="0"/>
        <pt x="288" y="822" on="0"/>
        <pt x="241" y="787" on="0"/>
      </contour>
    </TTGlyph>
    <TTGlyph name="J" xMin="7" yMin="-11" xMax="425" yMax="710">
      <contour>
        <pt x="38" y="145" on="1"/>
        <pt x="52" y="135" on="0"/>
        <pt x="118" y="111" on="0"/>
        <pt x="161" y="111" on="1"/>
        <pt x="203" y="111" on="0"/>
        <pt x="253" y="140" on="0"/>
        <pt x="279" y="200" on="0"/>
        <pt x="287" y="289" on="0"/>
        <pt x="287" y="349" on="1"/>
        <pt x="287" y="710" on="1"/>
        <pt x="425" y="710" on="1"/>
        <pt x="425" y="349" on="1"/>
        <pt x="425" y="268" on="0"/>
        <pt x="408" y="135" on="0"/>
        <pt x="353" y="41" on="0"/>
        <pt x="249" y="-11" on="0"/>
        <pt x="161" y="-11" on="1"/>
        <pt x="71" y="-11" on="0"/>
        <pt x="7" y="33" on="1"/>
      </contour>
    </TTGlyph>
    <TTGlyph name="J.sc" xMin="12" yMin="-8" xMax="377" yMax="559">
      <contour>
        <pt x="39" y="124" on="1"/>
        <pt x="51" y="118" on="0"/>
        <pt x="109" y="99" on="0"/>
        <pt x="147" y="99" on="1"/>
        <pt x="183" y="99" on="0"/>
        <pt x="227" y="120" on="0"/>
        <pt x="249" y="163" on="0"/>
        <pt x="256" y="230" on="0"/>
        <pt x="256" y="275" on="1"/>
        <pt x="256" y="559" on="1"/>
        <pt x="377" y="559" on="1"/>
        <pt x="377" y="275" on="1"/>
        <pt x="377" y="211" on="0"/>
        <pt x="363" y="106" on="0"/>
        <pt x="315" y="32" on="0"/>
        <pt x="224" y="-8" on="0"/>
        <pt x="147" y="-8" on="1"/>
        <pt x="67" y="-8" on="0"/>
        <pt x="12" y="25" on="1"/>
      </contour>
    </TTGlyph>
    <TTGlyph name="Jcircumflex" xMin="7" yMin="-11" xMax="512" yMax="915">
      <contour>
        <pt x="203" y="814" on="1"/>
        <pt x="309" y="915" on="1"/>
        <pt x="406" y="915" on="1"/>
        <pt x="512" y="814" on="1"/>
        <pt x="443" y="782" on="1"/>
        <pt x="358" y="845" on="1"/>
        <pt x="273" y="782" on="1"/>
      </contour>
      <contour>
        <pt x="38" y="145" on="1"/>
        <pt x="52" y="135" on="0"/>
        <pt x="118" y="111" on="0"/>
        <pt x="161" y="111" on="1"/>
        <pt x="203" y="111" on="0"/>
        <pt x="253" y="140" on="0"/>
        <pt x="279" y="200" on="0"/>
        <pt x="287" y="289" on="0"/>
        <pt x="287" y="349" on="1"/>
        <pt x="287" y="710" on="1"/>
        <pt x="425" y="710" on="1"/>
        <pt x="425" y="349" on="1"/>
        <pt x="425" y="268" on="0"/>
        <pt x="408" y="135" on="0"/>
        <pt x="353" y="41" on="0"/>
        <pt x="249" y="-11" on="0"/>
        <pt x="161" y="-11" on="1"/>
        <pt x="71" y="-11" on="0"/>
        <pt x="7" y="33" on="1"/>
      </contour>
    </TTGlyph>
    <TTGlyph name="K" xMin="74" yMin="0" xMax="679" yMax="710">
      <contour>
        <pt x="74" y="0" on="1"/>
        <pt x="74" y="709" on="1"/>
        <pt x="212" y="709" on="1"/>
        <pt x="212" y="372" on="1"/>
        <pt x="510" y="710" on="1"/>
        <pt x="662" y="710" on="1"/>
        <pt x="390" y="395" on="1"/>
        <pt x="679" y="0" on="1"/>
        <pt x="524" y="0" on="1"/>
        <pt x="303" y="307" on="1"/>
        <pt x="212" y="212" on="1"/>
        <pt x="212" y="0" on="1"/>
      </contour>
    </TTGlyph>
    <TTGlyph name="K.sc" xMin="68" yMin="0" xMax="597" yMax="559">
      <contour>
        <pt x="68" y="0" on="1"/>
        <pt x="68" y="559" on="1"/>
        <pt x="189" y="559" on="1"/>
        <pt x="189" y="298" on="1"/>
        <pt x="456" y="559" on="1"/>
        <pt x="583" y="559" on="1"/>
        <pt x="345" y="310" on="1"/>
        <pt x="597" y="0" on="1"/>
        <pt x="470" y="0" on="1"/>
        <pt x="272" y="242" on="1"/>
        <pt x="189" y="168" on="1"/>
        <pt x="189" y="0" on="1"/>
      </contour>
    </TTGlyph>
    <TTGlyph name="Kcommaaccent" xMin="74" yMin="-213" xMax="679" yMax="710">
      <contour>
        <pt x="304" y="-213" on="1"/>
        <pt x="331" y="-141" on="1"/>
        <pt x="292" y="-141" on="1"/>
        <pt x="292" y="-47" on="1"/>
        <pt x="405" y="-47" on="1"/>
        <pt x="405" y="-141" on="1"/>
        <pt x="365" y="-213" on="1"/>
      </contour>
      <contour>
        <pt x="74" y="0" on="1"/>
        <pt x="74" y="709" on="1"/>
        <pt x="212" y="709" on="1"/>
        <pt x="212" y="372" on="1"/>
        <pt x="510" y="710" on="1"/>
        <pt x="662" y="710" on="1"/>
        <pt x="390" y="395" on="1"/>
        <pt x="679" y="0" on="1"/>
        <pt x="524" y="0" on="1"/>
        <pt x="303" y="307" on="1"/>
        <pt x="212" y="212" on="1"/>
        <pt x="212" y="0" on="1"/>
      </contour>
    </TTGlyph>
    <TTGlyph name="L" xMin="74" yMin="0" xMax="574" yMax="710">
      <contour>
        <pt x="74" y="0" on="1"/>
        <pt x="74" y="710" on="1"/>
        <pt x="212" y="710" on="1"/>
        <pt x="212" y="121" on="1"/>
        <pt x="574" y="121" on="1"/>
        <pt x="574" y="0" on="1"/>
      </contour>
    </TTGlyph>
    <TTGlyph name="L.sc" xMin="68" yMin="0" xMax="475" yMax="559">
      <contour>
        <pt x="68" y="0" on="1"/>
        <pt x="68" y="559" on="1"/>
        <pt x="189" y="559" on="1"/>
        <pt x="189" y="106" on="1"/>
        <pt x="475" y="106" on="1"/>
        <pt x="475" y="0" on="1"/>
      </contour>
    </TTGlyph>
    <TTGlyph name="Lacute" xMin="74" yMin="0" xMax="574" yMax="915">
      <contour>
        <pt x="393" y="770" on="1"/>
        <pt x="307" y="796" on="1"/>
        <pt x="361" y="915" on="1"/>
        <pt x="486" y="915" on="1"/>
      </contour>
      <contour>
        <pt x="74" y="0" on="1"/>
        <pt x="74" y="710" on="1"/>
        <pt x="212" y="710" on="1"/>
        <pt x="212" y="121" on="1"/>
        <pt x="574" y="121" on="1"/>
        <pt x="574" y="0" on="1"/>
      </contour>
    </TTGlyph>
    <TTGlyph name="Lcaron" xMin="74" yMin="0" xMax="574" yMax="730">
      <contour>
        <pt x="413" y="585" on="1"/>
        <pt x="327" y="611" on="1"/>
        <pt x="381" y="730" on="1"/>
        <pt x="506" y="730" on="1"/>
      </contour>
      <contour>
        <pt x="74" y="0" on="1"/>
        <pt x="74" y="710" on="1"/>
        <pt x="212" y="710" on="1"/>
        <pt x="212" y="121" on="1"/>
        <pt x="574" y="121" on="1"/>
        <pt x="574" y="0" on="1"/>
      </contour>
    </TTGlyph>
    <TTGlyph name="Lcommaaccent" xMin="74" yMin="-213" xMax="574" yMax="710">
      <contour>
        <pt x="288" y="-213" on="1"/>
        <pt x="315" y="-141" on="1"/>
        <pt x="276" y="-141" on="1"/>
        <pt x="276" y="-47" on="1"/>
        <pt x="389" y="-47" on="1"/>
        <pt x="389" y="-141" on="1"/>
        <pt x="349" y="-213" on="1"/>
      </contour>
      <contour>
        <pt x="74" y="0" on="1"/>
        <pt x="74" y="710" on="1"/>
        <pt x="212" y="710" on="1"/>
        <pt x="212" y="121" on="1"/>
        <pt x="574" y="121" on="1"/>
        <pt x="574" y="0" on="1"/>
      </contour>
    </TTGlyph>
    <TTGlyph name="Ldot" xMin="74" yMin="0" xMax="574" yMax="710">
      <contour>
        <pt x="74" y="0" on="1"/>
        <pt x="74" y="710" on="1"/>
        <pt x="212" y="710" on="1"/>
        <pt x="212" y="121" on="1"/>
        <pt x="574" y="121" on="1"/>
        <pt x="574" y="0" on="1"/>
      </contour>
      <contour>
        <pt x="365" y="331" on="1"/>
        <pt x="365" y="482" on="1"/>
        <pt x="475" y="482" on="1"/>
        <pt x="475" y="331" on="1"/>
      </contour>
    </TTGlyph>
    <TTGlyph name="Lslash" xMin="-2" yMin="0" xMax="583" yMax="710">
      <contour>
        <pt x="83" y="0" on="1"/>
        <pt x="83" y="275" on="1"/>
        <pt x="31" y="242" on="1"/>
        <pt x="-2" y="315" on="1"/>
        <pt x="83" y="368" on="1"/>
        <pt x="83" y="710" on="1"/>
        <pt x="221" y="710" on="1"/>
        <pt x="221" y="455" on="1"/>
        <pt x="331" y="525" on="1"/>
        <pt x="364" y="452" on="1"/>
        <pt x="221" y="362" on="1"/>
        <pt x="221" y="121" on="1"/>
        <pt x="583" y="121" on="1"/>
        <pt x="583" y="0" on="1"/>
      </contour>
    </TTGlyph>
    <TTGlyph name="M" xMin="74" yMin="0" xMax="791" yMax="710">
      <contour>
        <pt x="653" y="0" on="1"/>
        <pt x="653" y="470" on="1"/>
        <pt x="470" y="120" on="1"/>
        <pt x="395" y="120" on="1"/>
        <pt x="212" y="470" on="1"/>
        <pt x="212" y="0" on="1"/>
        <pt x="74" y="0" on="1"/>
        <pt x="74" y="710" on="1"/>
        <pt x="222" y="710" on="1"/>
        <pt x="432" y="306" on="1"/>
        <pt x="644" y="710" on="1"/>
        <pt x="791" y="710" on="1"/>
        <pt x="791" y="0" on="1"/>
      </contour>
    </TTGlyph>
    <TTGlyph name="M.sc" xMin="68" yMin="0" xMax="694" yMax="559">
      <contour>
        <pt x="574" y="0" on="1"/>
        <pt x="574" y="349" on="1"/>
        <pt x="414" y="93" on="1"/>
        <pt x="348" y="93" on="1"/>
        <pt x="189" y="349" on="1"/>
        <pt x="189" y="0" on="1"/>
        <pt x="68" y="0" on="1"/>
        <pt x="68" y="559" on="1"/>
        <pt x="199" y="559" on="1"/>
        <pt x="382" y="257" on="1"/>
        <pt x="565" y="559" on="1"/>
        <pt x="694" y="559" on="1"/>
        <pt x="694" y="0" on="1"/>
      </contour>
    </TTGlyph>
    <TTGlyph name="N" xMin="74" yMin="0" xMax="689" yMax="710">
      <contour>
        <pt x="212" y="455" on="1"/>
        <pt x="212" y="0" on="1"/>
        <pt x="74" y="0" on="1"/>
        <pt x="74" y="710" on="1"/>
        <pt x="181" y="710" on="1"/>
        <pt x="551" y="244" on="1"/>
        <pt x="551" y="709" on="1"/>
        <pt x="689" y="709" on="1"/>
        <pt x="689" y="0" on="1"/>
        <pt x="577" y="0" on="1"/>
      </contour>
    </TTGlyph>
    <TTGlyph name="N.sc" xMin="68" yMin="0" xMax="605" yMax="559">
      <contour>
        <pt x="189" y="335" on="1"/>
        <pt x="189" y="0" on="1"/>
        <pt x="68" y="0" on="1"/>
        <pt x="68" y="559" on="1"/>
        <pt x="162" y="559" on="1"/>
        <pt x="484" y="215" on="1"/>
        <pt x="484" y="559" on="1"/>
        <pt x="605" y="559" on="1"/>
        <pt x="605" y="0" on="1"/>
        <pt x="507" y="0" on="1"/>
      </contour>
    </TTGlyph>
    <TTGlyph name="Nacute" xMin="74" yMin="0" xMax="689" yMax="915">
      <contour>
        <pt x="416" y="770" on="1"/>
        <pt x="330" y="796" on="1"/>
        <pt x="384" y="915" on="1"/>
        <pt x="509" y="915" on="1"/>
      </contour>
      <contour>
        <pt x="212" y="455" on="1"/>
        <pt x="212" y="0" on="1"/>
        <pt x="74" y="0" on="1"/>
        <pt x="74" y="710" on="1"/>
        <pt x="181" y="710" on="1"/>
        <pt x="551" y="244" on="1"/>
        <pt x="551" y="709" on="1"/>
        <pt x="689" y="709" on="1"/>
        <pt x="689" y="0" on="1"/>
        <pt x="577" y="0" on="1"/>
      </contour>
    </TTGlyph>
    <TTGlyph name="Ncaron" xMin="74" yMin="0" xMax="689" yMax="915">
      <contour>
        <pt x="297" y="915" on="1"/>
        <pt x="382" y="852" on="1"/>
        <pt x="467" y="915" on="1"/>
        <pt x="536" y="883" on="1"/>
        <pt x="430" y="782" on="1"/>
        <pt x="333" y="782" on="1"/>
        <pt x="227" y="883" on="1"/>
      </contour>
      <contour>
        <pt x="212" y="455" on="1"/>
        <pt x="212" y="0" on="1"/>
        <pt x="74" y="0" on="1"/>
        <pt x="74" y="710" on="1"/>
        <pt x="181" y="710" on="1"/>
        <pt x="551" y="244" on="1"/>
        <pt x="551" y="709" on="1"/>
        <pt x="689" y="709" on="1"/>
        <pt x="689" y="0" on="1"/>
        <pt x="577" y="0" on="1"/>
      </contour>
    </TTGlyph>
    <TTGlyph name="Ncommaaccent" xMin="74" yMin="-213" xMax="689" yMax="710">
      <contour>
        <pt x="333" y="-213" on="1"/>
        <pt x="360" y="-141" on="1"/>
        <pt x="321" y="-141" on="1"/>
        <pt x="321" y="-47" on="1"/>
        <pt x="434" y="-47" on="1"/>
        <pt x="434" y="-141" on="1"/>
        <pt x="394" y="-213" on="1"/>
      </contour>
      <contour>
        <pt x="212" y="455" on="1"/>
        <pt x="212" y="0" on="1"/>
        <pt x="74" y="0" on="1"/>
        <pt x="74" y="710" on="1"/>
        <pt x="181" y="710" on="1"/>
        <pt x="551" y="244" on="1"/>
        <pt x="551" y="709" on="1"/>
        <pt x="689" y="709" on="1"/>
        <pt x="689" y="0" on="1"/>
        <pt x="577" y="0" on="1"/>
      </contour>
    </TTGlyph>
    <TTGlyph name="Ndotaccent" xMin="74" yMin="0" xMax="689" yMax="915">
      <contour>
        <pt x="321" y="789" on="1"/>
        <pt x="321" y="915" on="1"/>
        <pt x="442" y="915" on="1"/>
        <pt x="442" y="789" on="1"/>
      </contour>
      <contour>
        <pt x="212" y="455" on="1"/>
        <pt x="212" y="0" on="1"/>
        <pt x="74" y="0" on="1"/>
        <pt x="74" y="710" on="1"/>
        <pt x="181" y="710" on="1"/>
        <pt x="551" y="244" on="1"/>
        <pt x="551" y="709" on="1"/>
        <pt x="689" y="709" on="1"/>
        <pt x="689" y="0" on="1"/>
        <pt x="577" y="0" on="1"/>
      </contour>
    </TTGlyph>
    <TTGlyph name="Ntilde" xMin="74" yMin="0" xMax="689" yMax="915">
      <contour>
        <pt x="212" y="455" on="1"/>
        <pt x="212" y="0" on="1"/>
        <pt x="74" y="0" on="1"/>
        <pt x="74" y="710" on="1"/>
        <pt x="181" y="710" on="1"/>
        <pt x="551" y="244" on="1"/>
        <pt x="551" y="709" on="1"/>
        <pt x="689" y="709" on="1"/>
        <pt x="689" y="0" on="1"/>
        <pt x="577" y="0" on="1"/>
      </contour>
      <contour>
        <pt x="444" y="787" on="1"/>
        <pt x="421" y="787" on="0"/>
        <pt x="387" y="801" on="0"/>
        <pt x="358" y="818" on="0"/>
        <pt x="329" y="832" on="0"/>
        <pt x="313" y="832" on="1"/>
        <pt x="296" y="832" on="0"/>
        <pt x="277" y="818" on="0"/>
        <pt x="267" y="800" on="0"/>
        <pt x="265" y="785" on="0"/>
        <pt x="265" y="784" on="1"/>
        <pt x="191" y="784" on="1"/>
        <pt x="191" y="793" on="0"/>
        <pt x="203" y="836" on="0"/>
        <pt x="230" y="879" on="0"/>
        <pt x="275" y="912" on="0"/>
        <pt x="308" y="912" on="1"/>
        <pt x="331" y="912" on="0"/>
        <pt x="364" y="897" on="0"/>
        <pt x="393" y="880" on="0"/>
        <pt x="422" y="865" on="0"/>
        <pt x="440" y="865" on="1"/>
        <pt x="458" y="865" on="0"/>
        <pt x="479" y="879" on="0"/>
        <pt x="490" y="897" on="0"/>
        <pt x="493" y="913" on="0"/>
        <pt x="493" y="915" on="1"/>
        <pt x="567" y="915" on="1"/>
        <pt x="567" y="908" on="0"/>
        <pt x="555" y="866" on="0"/>
        <pt x="526" y="822" on="0"/>
        <pt x="479" y="787" on="0"/>
      </contour>
    </TTGlyph>
    <TTGlyph name="O" xMin="31" yMin="-5" xMax="724" yMax="715">
      <contour>
        <pt x="377" y="-5" on="1"/>
        <pt x="299" y="-5" on="0"/>
        <pt x="172" y="56" on="0"/>
        <pt x="81" y="157" on="0"/>
        <pt x="31" y="287" on="0"/>
        <pt x="31" y="355" on="1"/>
        <pt x="31" y="426" on="0"/>
        <pt x="84" y="556" on="0"/>
        <pt x="177" y="656" on="0"/>
        <pt x="305" y="715" on="0"/>
        <pt x="380" y="715" on="1"/>
        <pt x="457" y="715" on="0"/>
        <pt x="584" y="652" on="0"/>
        <pt x="674" y="550" on="0"/>
        <pt x="724" y="420" on="0"/>
        <pt x="724" y="353" on="1"/>
        <pt x="724" y="282" on="0"/>
        <pt x="672" y="153" on="0"/>
        <pt x="580" y="54" on="0"/>
        <pt x="452" y="-5" on="0"/>
      </contour>
      <contour>
        <pt x="171" y="355" on="1"/>
        <pt x="171" y="309" on="0"/>
        <pt x="199" y="223" on="0"/>
        <pt x="252" y="157" on="0"/>
        <pt x="329" y="117" on="0"/>
        <pt x="378" y="117" on="1"/>
        <pt x="428" y="117" on="0"/>
        <pt x="505" y="158" on="0"/>
        <pt x="558" y="226" on="0"/>
        <pt x="585" y="311" on="0"/>
        <pt x="585" y="355" on="1"/>
        <pt x="585" y="401" on="0"/>
        <pt x="556" y="487" on="0"/>
        <pt x="503" y="553" on="0"/>
        <pt x="426" y="592" on="0"/>
        <pt x="378" y="592" on="1"/>
        <pt x="328" y="592" on="0"/>
        <pt x="250" y="551" on="0"/>
        <pt x="198" y="484" on="0"/>
        <pt x="171" y="399" on="0"/>
      </contour>
    </TTGlyph>
    <TTGlyph name="O.sc" xMin="32" yMin="-4" xMax="621" yMax="562">
      <contour>
        <pt x="326" y="-4" on="1"/>
        <pt x="260" y="-4" on="0"/>
        <pt x="152" y="44" on="0"/>
        <pt x="74" y="124" on="0"/>
        <pt x="32" y="226" on="0"/>
        <pt x="32" y="280" on="1"/>
        <pt x="32" y="335" on="0"/>
        <pt x="76" y="437" on="0"/>
        <pt x="155" y="515" on="0"/>
        <pt x="264" y="562" on="0"/>
        <pt x="328" y="562" on="1"/>
        <pt x="394" y="562" on="0"/>
        <pt x="502" y="513" on="0"/>
        <pt x="579" y="433" on="0"/>
        <pt x="621" y="330" on="0"/>
        <pt x="621" y="277" on="1"/>
        <pt x="621" y="222" on="0"/>
        <pt x="577" y="120" on="0"/>
        <pt x="498" y="42" on="0"/>
        <pt x="390" y="-4" on="0"/>
      </contour>
      <contour>
        <pt x="154" y="279" on="1"/>
        <pt x="154" y="245" on="0"/>
        <pt x="178" y="182" on="0"/>
        <pt x="222" y="133" on="0"/>
        <pt x="286" y="103" on="0"/>
        <pt x="327" y="103" on="1"/>
        <pt x="369" y="103" on="0"/>
        <pt x="432" y="134" on="0"/>
        <pt x="476" y="184" on="0"/>
        <pt x="498" y="247" on="0"/>
        <pt x="498" y="280" on="1"/>
        <pt x="498" y="314" on="0"/>
        <pt x="474" y="377" on="0"/>
        <pt x="429" y="425" on="0"/>
        <pt x="366" y="454" on="0"/>
        <pt x="326" y="454" on="1"/>
        <pt x="285" y="454" on="0"/>
        <pt x="221" y="423" on="0"/>
        <pt x="177" y="374" on="0"/>
        <pt x="154" y="311" on="0"/>
      </contour>
    </TTGlyph>
    <TTGlyph name="OE" xMin="31" yMin="-5" xMax="1052" yMax="715">
      <contour>
        <pt x="1052" y="121" on="1"/>
        <pt x="1052" y="0" on="1"/>
        <pt x="572" y="0" on="1"/>
        <pt x="572" y="105" on="1"/>
        <pt x="538" y="57" on="0"/>
        <pt x="432" y="-5" on="0"/>
        <pt x="368" y="-5" on="1"/>
        <pt x="293" y="-5" on="0"/>
        <pt x="168" y="56" on="0"/>
        <pt x="80" y="157" on="0"/>
        <pt x="31" y="287" on="0"/>
        <pt x="31" y="355" on="1"/>
        <pt x="31" y="426" on="0"/>
        <pt x="82" y="556" on="0"/>
        <pt x="173" y="656" on="0"/>
        <pt x="297" y="715" on="0"/>
        <pt x="370" y="715" on="1"/>
        <pt x="436" y="715" on="0"/>
        <pt x="539" y="653" on="0"/>
        <pt x="572" y="606" on="1"/>
        <pt x="572" y="710" on="1"/>
        <pt x="1043" y="710" on="1"/>
        <pt x="1043" y="589" on="1"/>
        <pt x="710" y="589" on="1"/>
        <pt x="710" y="422" on="1"/>
        <pt x="989" y="422" on="1"/>
        <pt x="989" y="301" on="1"/>
        <pt x="710" y="301" on="1"/>
        <pt x="710" y="121" on="1"/>
      </contour>
      <contour>
        <pt x="369" y="117" on="1"/>
        <pt x="417" y="117" on="0"/>
        <pt x="491" y="158" on="0"/>
        <pt x="540" y="226" on="0"/>
        <pt x="566" y="312" on="0"/>
        <pt x="566" y="356" on="1"/>
        <pt x="566" y="402" on="0"/>
        <pt x="539" y="487" on="0"/>
        <pt x="488" y="553" on="0"/>
        <pt x="415" y="593" on="0"/>
        <pt x="369" y="593" on="1"/>
        <pt x="321" y="593" on="0"/>
        <pt x="247" y="552" on="0"/>
        <pt x="197" y="484" on="0"/>
        <pt x="171" y="399" on="0"/>
        <pt x="171" y="355" on="1"/>
        <pt x="171" y="309" on="0"/>
        <pt x="198" y="223" on="0"/>
        <pt x="249" y="157" on="0"/>
        <pt x="322" y="117" on="0"/>
      </contour>
    </TTGlyph>
    <TTGlyph name="Oacute" xMin="31" yMin="-5" xMax="724" yMax="915">
      <contour>
        <pt x="418" y="770" on="1"/>
        <pt x="332" y="796" on="1"/>
        <pt x="386" y="915" on="1"/>
        <pt x="511" y="915" on="1"/>
      </contour>
      <contour>
        <pt x="377" y="-5" on="1"/>
        <pt x="299" y="-5" on="0"/>
        <pt x="172" y="56" on="0"/>
        <pt x="81" y="157" on="0"/>
        <pt x="31" y="287" on="0"/>
        <pt x="31" y="355" on="1"/>
        <pt x="31" y="426" on="0"/>
        <pt x="84" y="556" on="0"/>
        <pt x="177" y="656" on="0"/>
        <pt x="305" y="715" on="0"/>
        <pt x="380" y="715" on="1"/>
        <pt x="457" y="715" on="0"/>
        <pt x="584" y="652" on="0"/>
        <pt x="674" y="550" on="0"/>
        <pt x="724" y="420" on="0"/>
        <pt x="724" y="353" on="1"/>
        <pt x="724" y="282" on="0"/>
        <pt x="672" y="153" on="0"/>
        <pt x="580" y="54" on="0"/>
        <pt x="452" y="-5" on="0"/>
      </contour>
      <contour>
        <pt x="171" y="355" on="1"/>
        <pt x="171" y="309" on="0"/>
        <pt x="199" y="223" on="0"/>
        <pt x="252" y="157" on="0"/>
        <pt x="329" y="117" on="0"/>
        <pt x="378" y="117" on="1"/>
        <pt x="428" y="117" on="0"/>
        <pt x="505" y="158" on="0"/>
        <pt x="558" y="226" on="0"/>
        <pt x="585" y="311" on="0"/>
        <pt x="585" y="355" on="1"/>
        <pt x="585" y="401" on="0"/>
        <pt x="556" y="487" on="0"/>
        <pt x="503" y="553" on="0"/>
        <pt x="426" y="592" on="0"/>
        <pt x="378" y="592" on="1"/>
        <pt x="328" y="592" on="0"/>
        <pt x="250" y="551" on="0"/>
        <pt x="198" y="484" on="0"/>
        <pt x="171" y="399" on="0"/>
      </contour>
    </TTGlyph>
    <TTGlyph name="Obreve" xMin="31" yMin="-5" xMax="724" yMax="915">
      <contour>
        <pt x="377" y="-5" on="1"/>
        <pt x="299" y="-5" on="0"/>
        <pt x="172" y="56" on="0"/>
        <pt x="81" y="157" on="0"/>
        <pt x="31" y="287" on="0"/>
        <pt x="31" y="355" on="1"/>
        <pt x="31" y="426" on="0"/>
        <pt x="84" y="556" on="0"/>
        <pt x="177" y="656" on="0"/>
        <pt x="305" y="715" on="0"/>
        <pt x="380" y="715" on="1"/>
        <pt x="457" y="715" on="0"/>
        <pt x="584" y="652" on="0"/>
        <pt x="674" y="550" on="0"/>
        <pt x="724" y="420" on="0"/>
        <pt x="724" y="353" on="1"/>
        <pt x="724" y="282" on="0"/>
        <pt x="672" y="153" on="0"/>
        <pt x="580" y="54" on="0"/>
        <pt x="452" y="-5" on="0"/>
      </contour>
      <contour>
        <pt x="171" y="355" on="1"/>
        <pt x="171" y="309" on="0"/>
        <pt x="199" y="223" on="0"/>
        <pt x="252" y="157" on="0"/>
        <pt x="329" y="117" on="0"/>
        <pt x="378" y="117" on="1"/>
        <pt x="428" y="117" on="0"/>
        <pt x="505" y="158" on="0"/>
        <pt x="558" y="226" on="0"/>
        <pt x="585" y="311" on="0"/>
        <pt x="585" y="355" on="1"/>
        <pt x="585" y="401" on="0"/>
        <pt x="556" y="487" on="0"/>
        <pt x="503" y="553" on="0"/>
        <pt x="426" y="592" on="0"/>
        <pt x="378" y="592" on="1"/>
        <pt x="328" y="592" on="0"/>
        <pt x="250" y="551" on="0"/>
        <pt x="198" y="484" on="0"/>
        <pt x="171" y="399" on="0"/>
      </contour>
      <contour>
        <pt x="381" y="841" on="1"/>
        <pt x="404" y="841" on="0"/>
        <pt x="438" y="883" on="0"/>
        <pt x="441" y="915" on="1"/>
        <pt x="512" y="915" on="1"/>
        <pt x="512" y="886" on="0"/>
        <pt x="492" y="837" on="0"/>
        <pt x="458" y="801" on="0"/>
        <pt x="409" y="781" on="0"/>
        <pt x="381" y="781" on="1"/>
        <pt x="352" y="781" on="0"/>
        <pt x="304" y="801" on="0"/>
        <pt x="270" y="837" on="0"/>
        <pt x="250" y="886" on="0"/>
        <pt x="250" y="915" on="1"/>
        <pt x="322" y="915" on="1"/>
        <pt x="322" y="885" on="0"/>
        <pt x="358" y="841" on="0"/>
      </contour>
    </TTGlyph>
    <TTGlyph name="Ocircumflex" xMin="31" yMin="-5" xMax="724" yMax="915">
      <contour>
        <pt x="225" y="814" on="1"/>
        <pt x="331" y="915" on="1"/>
        <pt x="428" y="915" on="1"/>
        <pt x="534" y="814" on="1"/>
        <pt x="465" y="782" on="1"/>
        <pt x="380" y="845" on="1"/>
        <pt x="295" y="782" on="1"/>
      </contour>
      <contour>
        <pt x="377" y="-5" on="1"/>
        <pt x="299" y="-5" on="0"/>
        <pt x="172" y="56" on="0"/>
        <pt x="81" y="157" on="0"/>
        <pt x="31" y="287" on="0"/>
        <pt x="31" y="355" on="1"/>
        <pt x="31" y="426" on="0"/>
        <pt x="84" y="556" on="0"/>
        <pt x="177" y="656" on="0"/>
        <pt x="305" y="715" on="0"/>
        <pt x="380" y="715" on="1"/>
        <pt x="457" y="715" on="0"/>
        <pt x="584" y="652" on="0"/>
        <pt x="674" y="550" on="0"/>
        <pt x="724" y="420" on="0"/>
        <pt x="724" y="353" on="1"/>
        <pt x="724" y="282" on="0"/>
        <pt x="672" y="153" on="0"/>
        <pt x="580" y="54" on="0"/>
        <pt x="452" y="-5" on="0"/>
      </contour>
      <contour>
        <pt x="171" y="355" on="1"/>
        <pt x="171" y="309" on="0"/>
        <pt x="199" y="223" on="0"/>
        <pt x="252" y="157" on="0"/>
        <pt x="329" y="117" on="0"/>
        <pt x="378" y="117" on="1"/>
        <pt x="428" y="117" on="0"/>
        <pt x="505" y="158" on="0"/>
        <pt x="558" y="226" on="0"/>
        <pt x="585" y="311" on="0"/>
        <pt x="585" y="355" on="1"/>
        <pt x="585" y="401" on="0"/>
        <pt x="556" y="487" on="0"/>
        <pt x="503" y="553" on="0"/>
        <pt x="426" y="592" on="0"/>
        <pt x="378" y="592" on="1"/>
        <pt x="328" y="592" on="0"/>
        <pt x="250" y="551" on="0"/>
        <pt x="198" y="484" on="0"/>
        <pt x="171" y="399" on="0"/>
      </contour>
    </TTGlyph>
    <TTGlyph name="Odblgrave" xMin="31" yMin="-5" xMax="724" yMax="917">
      <contour>
        <pt x="352" y="917" on="1"/>
        <pt x="457" y="917" on="1"/>
        <pt x="504" y="798" on="1"/>
        <pt x="438" y="772" on="1"/>
      </contour>
      <contour>
        <pt x="192" y="917" on="1"/>
        <pt x="296" y="917" on="1"/>
        <pt x="344" y="798" on="1"/>
        <pt x="278" y="772" on="1"/>
      </contour>
      <contour>
        <pt x="377" y="-5" on="1"/>
        <pt x="299" y="-5" on="0"/>
        <pt x="172" y="56" on="0"/>
        <pt x="81" y="157" on="0"/>
        <pt x="31" y="287" on="0"/>
        <pt x="31" y="355" on="1"/>
        <pt x="31" y="426" on="0"/>
        <pt x="84" y="556" on="0"/>
        <pt x="177" y="656" on="0"/>
        <pt x="305" y="715" on="0"/>
        <pt x="380" y="715" on="1"/>
        <pt x="457" y="715" on="0"/>
        <pt x="584" y="652" on="0"/>
        <pt x="674" y="550" on="0"/>
        <pt x="724" y="420" on="0"/>
        <pt x="724" y="353" on="1"/>
        <pt x="724" y="282" on="0"/>
        <pt x="672" y="153" on="0"/>
        <pt x="580" y="54" on="0"/>
        <pt x="452" y="-5" on="0"/>
      </contour>
      <contour>
        <pt x="171" y="355" on="1"/>
        <pt x="171" y="309" on="0"/>
        <pt x="199" y="223" on="0"/>
        <pt x="252" y="157" on="0"/>
        <pt x="329" y="117" on="0"/>
        <pt x="378" y="117" on="1"/>
        <pt x="428" y="117" on="0"/>
        <pt x="505" y="158" on="0"/>
        <pt x="558" y="226" on="0"/>
        <pt x="585" y="311" on="0"/>
        <pt x="585" y="355" on="1"/>
        <pt x="585" y="401" on="0"/>
        <pt x="556" y="487" on="0"/>
        <pt x="503" y="553" on="0"/>
        <pt x="426" y="592" on="0"/>
        <pt x="378" y="592" on="1"/>
        <pt x="328" y="592" on="0"/>
        <pt x="250" y="551" on="0"/>
        <pt x="198" y="484" on="0"/>
        <pt x="171" y="399" on="0"/>
      </contour>
    </TTGlyph>
    <TTGlyph name="Odieresis" xMin="31" yMin="-5" xMax="724" yMax="909">
      <contour>
        <pt x="227" y="790" on="1"/>
        <pt x="227" y="909" on="1"/>
        <pt x="338" y="909" on="1"/>
        <pt x="338" y="790" on="1"/>
      </contour>
      <contour>
        <pt x="419" y="790" on="1"/>
        <pt x="419" y="909" on="1"/>
        <pt x="530" y="909" on="1"/>
        <pt x="530" y="790" on="1"/>
      </contour>
      <contour>
        <pt x="377" y="-5" on="1"/>
        <pt x="299" y="-5" on="0"/>
        <pt x="172" y="56" on="0"/>
        <pt x="81" y="157" on="0"/>
        <pt x="31" y="287" on="0"/>
        <pt x="31" y="355" on="1"/>
        <pt x="31" y="426" on="0"/>
        <pt x="84" y="556" on="0"/>
        <pt x="177" y="656" on="0"/>
        <pt x="305" y="715" on="0"/>
        <pt x="380" y="715" on="1"/>
        <pt x="457" y="715" on="0"/>
        <pt x="584" y="652" on="0"/>
        <pt x="674" y="550" on="0"/>
        <pt x="724" y="420" on="0"/>
        <pt x="724" y="353" on="1"/>
        <pt x="724" y="282" on="0"/>
        <pt x="672" y="153" on="0"/>
        <pt x="580" y="54" on="0"/>
        <pt x="452" y="-5" on="0"/>
      </contour>
      <contour>
        <pt x="171" y="355" on="1"/>
        <pt x="171" y="309" on="0"/>
        <pt x="199" y="223" on="0"/>
        <pt x="252" y="157" on="0"/>
        <pt x="329" y="117" on="0"/>
        <pt x="378" y="117" on="1"/>
        <pt x="428" y="117" on="0"/>
        <pt x="505" y="158" on="0"/>
        <pt x="558" y="226" on="0"/>
        <pt x="585" y="311" on="0"/>
        <pt x="585" y="355" on="1"/>
        <pt x="585" y="401" on="0"/>
        <pt x="556" y="487" on="0"/>
        <pt x="503" y="553" on="0"/>
        <pt x="426" y="592" on="0"/>
        <pt x="378" y="592" on="1"/>
        <pt x="328" y="592" on="0"/>
        <pt x="250" y="551" on="0"/>
        <pt x="198" y="484" on="0"/>
        <pt x="171" y="399" on="0"/>
      </contour>
    </TTGlyph>
    <TTGlyph name="Odotbelow" xMin="31" yMin="-196" xMax="724" yMax="715">
      <contour>
        <pt x="316" y="-196" on="1"/>
        <pt x="316" y="-70" on="1"/>
        <pt x="437" y="-70" on="1"/>
        <pt x="437" y="-196" on="1"/>
      </contour>
      <contour>
        <pt x="377" y="-5" on="1"/>
        <pt x="299" y="-5" on="0"/>
        <pt x="172" y="56" on="0"/>
        <pt x="81" y="157" on="0"/>
        <pt x="31" y="287" on="0"/>
        <pt x="31" y="355" on="1"/>
        <pt x="31" y="426" on="0"/>
        <pt x="84" y="556" on="0"/>
        <pt x="177" y="656" on="0"/>
        <pt x="305" y="715" on="0"/>
        <pt x="380" y="715" on="1"/>
        <pt x="457" y="715" on="0"/>
        <pt x="584" y="652" on="0"/>
        <pt x="674" y="550" on="0"/>
        <pt x="724" y="420" on="0"/>
        <pt x="724" y="353" on="1"/>
        <pt x="724" y="282" on="0"/>
        <pt x="672" y="153" on="0"/>
        <pt x="580" y="54" on="0"/>
        <pt x="452" y="-5" on="0"/>
      </contour>
      <contour>
        <pt x="171" y="355" on="1"/>
        <pt x="171" y="309" on="0"/>
        <pt x="199" y="223" on="0"/>
        <pt x="252" y="157" on="0"/>
        <pt x="329" y="117" on="0"/>
        <pt x="378" y="117" on="1"/>
        <pt x="428" y="117" on="0"/>
        <pt x="505" y="158" on="0"/>
        <pt x="558" y="226" on="0"/>
        <pt x="585" y="311" on="0"/>
        <pt x="585" y="355" on="1"/>
        <pt x="585" y="401" on="0"/>
        <pt x="556" y="487" on="0"/>
        <pt x="503" y="553" on="0"/>
        <pt x="426" y="592" on="0"/>
        <pt x="378" y="592" on="1"/>
        <pt x="328" y="592" on="0"/>
        <pt x="250" y="551" on="0"/>
        <pt x="198" y="484" on="0"/>
        <pt x="171" y="399" on="0"/>
      </contour>
    </TTGlyph>
    <TTGlyph name="Ograve" xMin="31" yMin="-5" xMax="724" yMax="916">
      <contour>
        <pt x="377" y="-5" on="1"/>
        <pt x="299" y="-5" on="0"/>
        <pt x="172" y="56" on="0"/>
        <pt x="81" y="157" on="0"/>
        <pt x="31" y="287" on="0"/>
        <pt x="31" y="355" on="1"/>
        <pt x="31" y="426" on="0"/>
        <pt x="84" y="556" on="0"/>
        <pt x="177" y="656" on="0"/>
        <pt x="305" y="715" on="0"/>
        <pt x="380" y="715" on="1"/>
        <pt x="457" y="715" on="0"/>
        <pt x="584" y="652" on="0"/>
        <pt x="674" y="550" on="0"/>
        <pt x="724" y="420" on="0"/>
        <pt x="724" y="353" on="1"/>
        <pt x="724" y="282" on="0"/>
        <pt x="672" y="153" on="0"/>
        <pt x="580" y="54" on="0"/>
        <pt x="452" y="-5" on="0"/>
      </contour>
      <contour>
        <pt x="171" y="355" on="1"/>
        <pt x="171" y="309" on="0"/>
        <pt x="199" y="223" on="0"/>
        <pt x="252" y="157" on="0"/>
        <pt x="329" y="117" on="0"/>
        <pt x="378" y="117" on="1"/>
        <pt x="428" y="117" on="0"/>
        <pt x="505" y="158" on="0"/>
        <pt x="558" y="226" on="0"/>
        <pt x="585" y="311" on="0"/>
        <pt x="585" y="355" on="1"/>
        <pt x="585" y="401" on="0"/>
        <pt x="556" y="487" on="0"/>
        <pt x="503" y="553" on="0"/>
        <pt x="426" y="592" on="0"/>
        <pt x="378" y="592" on="1"/>
        <pt x="328" y="592" on="0"/>
        <pt x="250" y="551" on="0"/>
        <pt x="198" y="484" on="0"/>
        <pt x="171" y="399" on="0"/>
      </contour>
      <contour>
        <pt x="254" y="916" on="1"/>
        <pt x="378" y="916" on="1"/>
        <pt x="433" y="797" on="1"/>
        <pt x="347" y="771" on="1"/>
      </contour>
    </TTGlyph>
    <TTGlyph name="Ohungarumlaut" xMin="31" yMin="-5" xMax="724" yMax="916">
      <contour>
        <pt x="318" y="771" on="1"/>
        <pt x="252" y="797" on="1"/>
        <pt x="300" y="916" on="1"/>
        <pt x="404" y="916" on="1"/>
      </contour>
      <contour>
        <pt x="478" y="771" on="1"/>
        <pt x="413" y="797" on="1"/>
        <pt x="460" y="916" on="1"/>
        <pt x="565" y="916" on="1"/>
      </contour>
      <contour>
        <pt x="377" y="-5" on="1"/>
        <pt x="299" y="-5" on="0"/>
        <pt x="172" y="56" on="0"/>
        <pt x="81" y="157" on="0"/>
        <pt x="31" y="287" on="0"/>
        <pt x="31" y="355" on="1"/>
        <pt x="31" y="426" on="0"/>
        <pt x="84" y="556" on="0"/>
        <pt x="177" y="656" on="0"/>
        <pt x="305" y="715" on="0"/>
        <pt x="380" y="715" on="1"/>
        <pt x="457" y="715" on="0"/>
        <pt x="584" y="652" on="0"/>
        <pt x="674" y="550" on="0"/>
        <pt x="724" y="420" on="0"/>
        <pt x="724" y="353" on="1"/>
        <pt x="724" y="282" on="0"/>
        <pt x="672" y="153" on="0"/>
        <pt x="580" y="54" on="0"/>
        <pt x="452" y="-5" on="0"/>
      </contour>
      <contour>
        <pt x="171" y="355" on="1"/>
        <pt x="171" y="309" on="0"/>
        <pt x="199" y="223" on="0"/>
        <pt x="252" y="157" on="0"/>
        <pt x="329" y="117" on="0"/>
        <pt x="378" y="117" on="1"/>
        <pt x="428" y="117" on="0"/>
        <pt x="505" y="158" on="0"/>
        <pt x="558" y="226" on="0"/>
        <pt x="585" y="311" on="0"/>
        <pt x="585" y="355" on="1"/>
        <pt x="585" y="401" on="0"/>
        <pt x="556" y="487" on="0"/>
        <pt x="503" y="553" on="0"/>
        <pt x="426" y="592" on="0"/>
        <pt x="378" y="592" on="1"/>
        <pt x="328" y="592" on="0"/>
        <pt x="250" y="551" on="0"/>
        <pt x="198" y="484" on="0"/>
        <pt x="171" y="399" on="0"/>
      </contour>
    </TTGlyph>
    <TTGlyph name="Oinvertedbreve" xMin="31" yMin="-5" xMax="724" yMax="915">
      <contour>
        <pt x="379" y="855" on="1"/>
        <pt x="356" y="855" on="0"/>
        <pt x="320" y="811" on="0"/>
        <pt x="320" y="781" on="1"/>
        <pt x="248" y="781" on="1"/>
        <pt x="248" y="810" on="0"/>
        <pt x="268" y="859" on="0"/>
        <pt x="302" y="895" on="0"/>
        <pt x="350" y="915" on="0"/>
        <pt x="379" y="915" on="1"/>
        <pt x="407" y="915" on="0"/>
        <pt x="456" y="895" on="0"/>
        <pt x="490" y="859" on="0"/>
        <pt x="510" y="810" on="0"/>
        <pt x="510" y="781" on="1"/>
        <pt x="439" y="781" on="1"/>
        <pt x="436" y="813" on="0"/>
        <pt x="402" y="855" on="0"/>
      </contour>
      <contour>
        <pt x="377" y="-5" on="1"/>
        <pt x="299" y="-5" on="0"/>
        <pt x="172" y="56" on="0"/>
        <pt x="81" y="157" on="0"/>
        <pt x="31" y="287" on="0"/>
        <pt x="31" y="355" on="1"/>
        <pt x="31" y="426" on="0"/>
        <pt x="84" y="556" on="0"/>
        <pt x="177" y="656" on="0"/>
        <pt x="305" y="715" on="0"/>
        <pt x="380" y="715" on="1"/>
        <pt x="457" y="715" on="0"/>
        <pt x="584" y="652" on="0"/>
        <pt x="674" y="550" on="0"/>
        <pt x="724" y="420" on="0"/>
        <pt x="724" y="353" on="1"/>
        <pt x="724" y="282" on="0"/>
        <pt x="672" y="153" on="0"/>
        <pt x="580" y="54" on="0"/>
        <pt x="452" y="-5" on="0"/>
      </contour>
      <contour>
        <pt x="171" y="355" on="1"/>
        <pt x="171" y="309" on="0"/>
        <pt x="199" y="223" on="0"/>
        <pt x="252" y="157" on="0"/>
        <pt x="329" y="117" on="0"/>
        <pt x="378" y="117" on="1"/>
        <pt x="428" y="117" on="0"/>
        <pt x="505" y="158" on="0"/>
        <pt x="558" y="226" on="0"/>
        <pt x="585" y="311" on="0"/>
        <pt x="585" y="355" on="1"/>
        <pt x="585" y="401" on="0"/>
        <pt x="556" y="487" on="0"/>
        <pt x="503" y="553" on="0"/>
        <pt x="426" y="592" on="0"/>
        <pt x="378" y="592" on="1"/>
        <pt x="328" y="592" on="0"/>
        <pt x="250" y="551" on="0"/>
        <pt x="198" y="484" on="0"/>
        <pt x="171" y="399" on="0"/>
      </contour>
    </TTGlyph>
    <TTGlyph name="Omacron" xMin="31" yMin="-5" xMax="724" yMax="901">
      <contour>
        <pt x="231" y="818" on="1"/>
        <pt x="231" y="901" on="1"/>
        <pt x="531" y="901" on="1"/>
        <pt x="531" y="818" on="1"/>
      </contour>
      <contour>
        <pt x="377" y="-5" on="1"/>
        <pt x="299" y="-5" on="0"/>
        <pt x="172" y="56" on="0"/>
        <pt x="81" y="157" on="0"/>
        <pt x="31" y="287" on="0"/>
        <pt x="31" y="355" on="1"/>
        <pt x="31" y="426" on="0"/>
        <pt x="84" y="556" on="0"/>
        <pt x="177" y="656" on="0"/>
        <pt x="305" y="715" on="0"/>
        <pt x="380" y="715" on="1"/>
        <pt x="457" y="715" on="0"/>
        <pt x="584" y="652" on="0"/>
        <pt x="674" y="550" on="0"/>
        <pt x="724" y="420" on="0"/>
        <pt x="724" y="353" on="1"/>
        <pt x="724" y="282" on="0"/>
        <pt x="672" y="153" on="0"/>
        <pt x="580" y="54" on="0"/>
        <pt x="452" y="-5" on="0"/>
      </contour>
      <contour>
        <pt x="171" y="355" on="1"/>
        <pt x="171" y="309" on="0"/>
        <pt x="199" y="223" on="0"/>
        <pt x="252" y="157" on="0"/>
        <pt x="329" y="117" on="0"/>
        <pt x="378" y="117" on="1"/>
        <pt x="428" y="117" on="0"/>
        <pt x="505" y="158" on="0"/>
        <pt x="558" y="226" on="0"/>
        <pt x="585" y="311" on="0"/>
        <pt x="585" y="355" on="1"/>
        <pt x="585" y="401" on="0"/>
        <pt x="556" y="487" on="0"/>
        <pt x="503" y="553" on="0"/>
        <pt x="426" y="592" on="0"/>
        <pt x="378" y="592" on="1"/>
        <pt x="328" y="592" on="0"/>
        <pt x="250" y="551" on="0"/>
        <pt x="198" y="484" on="0"/>
        <pt x="171" y="399" on="0"/>
      </contour>
    </TTGlyph>
    <TTGlyph name="Omega" xMin="38" yMin="0" xMax="737" yMax="715">
      <contour>
        <pt x="38" y="102" on="1"/>
        <pt x="203" y="102" on="1"/>
        <pt x="131" y="143" on="0"/>
        <pt x="48" y="282" on="0"/>
        <pt x="48" y="370" on="1"/>
        <pt x="48" y="438" on="0"/>
        <pt x="99" y="563" on="0"/>
        <pt x="190" y="658" on="0"/>
        <pt x="314" y="715" on="0"/>
        <pt x="387" y="715" on="1"/>
        <pt x="460" y="715" on="0"/>
        <pt x="584" y="658" on="0"/>
        <pt x="675" y="563" on="0"/>
        <pt x="727" y="438" on="0"/>
        <pt x="727" y="370" on="1"/>
        <pt x="727" y="282" on="0"/>
        <pt x="643" y="143" on="0"/>
        <pt x="571" y="102" on="1"/>
        <pt x="737" y="102" on="1"/>
        <pt x="737" y="0" on="1"/>
        <pt x="430" y="0" on="1"/>
        <pt x="430" y="102" on="1"/>
        <pt x="467" y="115" on="0"/>
        <pt x="526" y="171" on="0"/>
        <pt x="568" y="243" on="0"/>
        <pt x="591" y="328" on="0"/>
        <pt x="591" y="370" on="1"/>
        <pt x="591" y="411" on="0"/>
        <pt x="563" y="491" on="0"/>
        <pt x="510" y="554" on="0"/>
        <pt x="434" y="592" on="0"/>
        <pt x="387" y="592" on="1"/>
        <pt x="340" y="592" on="0"/>
        <pt x="264" y="554" on="0"/>
        <pt x="212" y="491" on="0"/>
        <pt x="184" y="411" on="0"/>
        <pt x="184" y="370" on="1"/>
        <pt x="184" y="328" on="0"/>
        <pt x="206" y="243" on="0"/>
        <pt x="248" y="171" on="0"/>
        <pt x="308" y="115" on="0"/>
        <pt x="345" y="102" on="1"/>
        <pt x="345" y="0" on="1"/>
        <pt x="38" y="0" on="1"/>
      </contour>
    </TTGlyph>
    <TTGlyph name="Oogonek" xMin="31" yMin="-197" xMax="724" yMax="715">
      <contour>
        <pt x="367" y="-197" on="1"/>
        <pt x="309" y="-189" on="0"/>
        <pt x="252" y="-141" on="0"/>
        <pt x="252" y="-110" on="1"/>
        <pt x="252" y="-83" on="0"/>
        <pt x="291" y="-28" on="0"/>
        <pt x="332" y="-2" on="1"/>
        <pt x="264" y="7" on="0"/>
        <pt x="153" y="73" on="0"/>
        <pt x="74" y="171" on="0"/>
        <pt x="31" y="292" on="0"/>
        <pt x="31" y="355" on="1"/>
        <pt x="31" y="426" on="0"/>
        <pt x="84" y="556" on="0"/>
        <pt x="177" y="656" on="0"/>
        <pt x="305" y="715" on="0"/>
        <pt x="380" y="715" on="1"/>
        <pt x="457" y="715" on="0"/>
        <pt x="584" y="652" on="0"/>
        <pt x="674" y="550" on="0"/>
        <pt x="724" y="420" on="0"/>
        <pt x="724" y="353" on="1"/>
        <pt x="724" y="286" on="0"/>
        <pt x="677" y="162" on="0"/>
        <pt x="592" y="65" on="0"/>
        <pt x="475" y="3" on="0"/>
        <pt x="405" y="-3" on="1"/>
        <pt x="333" y="-47" on="0"/>
        <pt x="333" y="-86" on="1"/>
        <pt x="333" y="-123" on="0"/>
        <pt x="395" y="-127" on="1"/>
      </contour>
      <contour>
        <pt x="171" y="355" on="1"/>
        <pt x="171" y="309" on="0"/>
        <pt x="199" y="223" on="0"/>
        <pt x="252" y="157" on="0"/>
        <pt x="329" y="117" on="0"/>
        <pt x="378" y="117" on="1"/>
        <pt x="428" y="117" on="0"/>
        <pt x="505" y="158" on="0"/>
        <pt x="558" y="226" on="0"/>
        <pt x="585" y="311" on="0"/>
        <pt x="585" y="355" on="1"/>
        <pt x="585" y="401" on="0"/>
        <pt x="556" y="487" on="0"/>
        <pt x="503" y="553" on="0"/>
        <pt x="426" y="592" on="0"/>
        <pt x="378" y="592" on="1"/>
        <pt x="328" y="592" on="0"/>
        <pt x="250" y="551" on="0"/>
        <pt x="198" y="484" on="0"/>
        <pt x="171" y="399" on="0"/>
      </contour>
    </TTGlyph>
    <TTGlyph name="Oslash" xMin="31" yMin="-5" xMax="724" yMax="715">
      <contour>
        <pt x="700" y="710" on="1"/>
        <pt x="626" y="604" on="1"/>
        <pt x="673" y="553" on="0"/>
        <pt x="724" y="422" on="0"/>
        <pt x="724" y="353" on="1"/>
        <pt x="724" y="282" on="0"/>
        <pt x="672" y="153" on="0"/>
        <pt x="580" y="54" on="0"/>
        <pt x="452" y="-5" on="0"/>
        <pt x="377" y="-5" on="1"/>
        <pt x="335" y="-5" on="0"/>
        <pt x="259" y="13" on="0"/>
        <pt x="225" y="30" on="1"/>
        <pt x="204" y="0" on="1"/>
        <pt x="56" y="0" on="1"/>
        <pt x="129" y="104" on="1"/>
        <pt x="82" y="155" on="0"/>
        <pt x="31" y="286" on="0"/>
        <pt x="31" y="355" on="1"/>
        <pt x="31" y="426" on="0"/>
        <pt x="84" y="556" on="0"/>
        <pt x="177" y="656" on="0"/>
        <pt x="305" y="715" on="0"/>
        <pt x="380" y="715" on="1"/>
        <pt x="422" y="715" on="0"/>
        <pt x="496" y="696" on="0"/>
        <pt x="529" y="679" on="1"/>
        <pt x="551" y="710" on="1"/>
      </contour>
      <contour>
        <pt x="585" y="355" on="1"/>
        <pt x="585" y="430" on="0"/>
        <pt x="548" y="492" on="1"/>
        <pt x="297" y="133" on="1"/>
        <pt x="335" y="117" on="0"/>
        <pt x="378" y="117" on="1"/>
        <pt x="428" y="117" on="0"/>
        <pt x="505" y="158" on="0"/>
        <pt x="558" y="226" on="0"/>
        <pt x="585" y="311" on="0"/>
      </contour>
      <contour>
        <pt x="171" y="355" on="1"/>
        <pt x="171" y="317" on="0"/>
        <pt x="189" y="246" on="0"/>
        <pt x="207" y="216" on="1"/>
        <pt x="457" y="575" on="1"/>
        <pt x="421" y="592" on="0"/>
        <pt x="378" y="592" on="1"/>
        <pt x="328" y="592" on="0"/>
        <pt x="250" y="551" on="0"/>
        <pt x="198" y="484" on="0"/>
        <pt x="171" y="399" on="0"/>
      </contour>
    </TTGlyph>
    <TTGlyph name="Oslashacute" xMin="31" yMin="-5" xMax="724" yMax="915">
      <contour>
        <pt x="700" y="710" on="1"/>
        <pt x="626" y="604" on="1"/>
        <pt x="673" y="553" on="0"/>
        <pt x="724" y="422" on="0"/>
        <pt x="724" y="353" on="1"/>
        <pt x="724" y="282" on="0"/>
        <pt x="672" y="153" on="0"/>
        <pt x="580" y="54" on="0"/>
        <pt x="452" y="-5" on="0"/>
        <pt x="377" y="-5" on="1"/>
        <pt x="335" y="-5" on="0"/>
        <pt x="259" y="13" on="0"/>
        <pt x="225" y="30" on="1"/>
        <pt x="204" y="0" on="1"/>
        <pt x="56" y="0" on="1"/>
        <pt x="129" y="104" on="1"/>
        <pt x="82" y="155" on="0"/>
        <pt x="31" y="286" on="0"/>
        <pt x="31" y="355" on="1"/>
        <pt x="31" y="426" on="0"/>
        <pt x="84" y="556" on="0"/>
        <pt x="177" y="656" on="0"/>
        <pt x="305" y="715" on="0"/>
        <pt x="380" y="715" on="1"/>
        <pt x="422" y="715" on="0"/>
        <pt x="496" y="696" on="0"/>
        <pt x="529" y="679" on="1"/>
        <pt x="551" y="710" on="1"/>
      </contour>
      <contour>
        <pt x="585" y="355" on="1"/>
        <pt x="585" y="430" on="0"/>
        <pt x="548" y="492" on="1"/>
        <pt x="297" y="133" on="1"/>
        <pt x="335" y="117" on="0"/>
        <pt x="378" y="117" on="1"/>
        <pt x="428" y="117" on="0"/>
        <pt x="505" y="158" on="0"/>
        <pt x="558" y="226" on="0"/>
        <pt x="585" y="311" on="0"/>
      </contour>
      <contour>
        <pt x="171" y="355" on="1"/>
        <pt x="171" y="317" on="0"/>
        <pt x="189" y="246" on="0"/>
        <pt x="207" y="216" on="1"/>
        <pt x="457" y="575" on="1"/>
        <pt x="421" y="592" on="0"/>
        <pt x="378" y="592" on="1"/>
        <pt x="328" y="592" on="0"/>
        <pt x="250" y="551" on="0"/>
        <pt x="198" y="484" on="0"/>
        <pt x="171" y="399" on="0"/>
      </contour>
      <contour>
        <pt x="412" y="770" on="1"/>
        <pt x="326" y="796" on="1"/>
        <pt x="380" y="915" on="1"/>
        <pt x="505" y="915" on="1"/>
      </contour>
    </TTGlyph>
    <TTGlyph name="Otilde" xMin="31" yMin="-5" xMax="724" yMax="915">
      <contour>
        <pt x="377" y="-5" on="1"/>
        <pt x="299" y="-5" on="0"/>
        <pt x="172" y="56" on="0"/>
        <pt x="81" y="157" on="0"/>
        <pt x="31" y="287" on="0"/>
        <pt x="31" y="355" on="1"/>
        <pt x="31" y="426" on="0"/>
        <pt x="84" y="556" on="0"/>
        <pt x="177" y="656" on="0"/>
        <pt x="305" y="715" on="0"/>
        <pt x="380" y="715" on="1"/>
        <pt x="457" y="715" on="0"/>
        <pt x="584" y="652" on="0"/>
        <pt x="674" y="550" on="0"/>
        <pt x="724" y="420" on="0"/>
        <pt x="724" y="353" on="1"/>
        <pt x="724" y="282" on="0"/>
        <pt x="672" y="153" on="0"/>
        <pt x="580" y="54" on="0"/>
        <pt x="452" y="-5" on="0"/>
      </contour>
      <contour>
        <pt x="171" y="355" on="1"/>
        <pt x="171" y="309" on="0"/>
        <pt x="199" y="223" on="0"/>
        <pt x="252" y="157" on="0"/>
        <pt x="329" y="117" on="0"/>
        <pt x="378" y="117" on="1"/>
        <pt x="428" y="117" on="0"/>
        <pt x="505" y="158" on="0"/>
        <pt x="558" y="226" on="0"/>
        <pt x="585" y="311" on="0"/>
        <pt x="585" y="355" on="1"/>
        <pt x="585" y="401" on="0"/>
        <pt x="556" y="487" on="0"/>
        <pt x="503" y="553" on="0"/>
        <pt x="426" y="592" on="0"/>
        <pt x="378" y="592" on="1"/>
        <pt x="328" y="592" on="0"/>
        <pt x="250" y="551" on="0"/>
        <pt x="198" y="484" on="0"/>
        <pt x="171" y="399" on="0"/>
      </contour>
      <contour>
        <pt x="444" y="787" on="1"/>
        <pt x="421" y="787" on="0"/>
        <pt x="387" y="801" on="0"/>
        <pt x="358" y="818" on="0"/>
        <pt x="329" y="832" on="0"/>
        <pt x="313" y="832" on="1"/>
        <pt x="296" y="832" on="0"/>
        <pt x="277" y="818" on="0"/>
        <pt x="267" y="800" on="0"/>
        <pt x="265" y="785" on="0"/>
        <pt x="265" y="784" on="1"/>
        <pt x="191" y="784" on="1"/>
        <pt x="191" y="793" on="0"/>
        <pt x="203" y="836" on="0"/>
        <pt x="230" y="879" on="0"/>
        <pt x="275" y="912" on="0"/>
        <pt x="308" y="912" on="1"/>
        <pt x="331" y="912" on="0"/>
        <pt x="364" y="897" on="0"/>
        <pt x="393" y="880" on="0"/>
        <pt x="422" y="865" on="0"/>
        <pt x="440" y="865" on="1"/>
        <pt x="458" y="865" on="0"/>
        <pt x="479" y="879" on="0"/>
        <pt x="490" y="897" on="0"/>
        <pt x="493" y="913" on="0"/>
        <pt x="493" y="915" on="1"/>
        <pt x="567" y="915" on="1"/>
        <pt x="567" y="908" on="0"/>
        <pt x="555" y="866" on="0"/>
        <pt x="526" y="822" on="0"/>
        <pt x="479" y="787" on="0"/>
      </contour>
    </TTGlyph>
    <TTGlyph name="P" xMin="74" yMin="0" xMax="601" yMax="710">
      <contour>
        <pt x="74" y="0" on="1"/>
        <pt x="74" y="710" on="1"/>
        <pt x="375" y="710" on="1"/>
        <pt x="424" y="710" on="0"/>
        <pt x="507" y="669" on="0"/>
        <pt x="567" y="602" on="0"/>
        <pt x="601" y="517" on="0"/>
        <pt x="601" y="474" on="1"/>
        <pt x="601" y="429" on="0"/>
        <pt x="569" y="344" on="0"/>
        <pt x="511" y="278" on="0"/>
        <pt x="429" y="238" on="0"/>
        <pt x="380" y="238" on="1"/>
        <pt x="212" y="238" on="1"/>
        <pt x="212" y="0" on="1"/>
      </contour>
      <contour>
        <pt x="212" y="359" on="1"/>
        <pt x="372" y="359" on="1"/>
        <pt x="410" y="359" on="0"/>
        <pt x="461" y="421" on="0"/>
        <pt x="461" y="474" on="1"/>
        <pt x="461" y="501" on="0"/>
        <pt x="445" y="544" on="0"/>
        <pt x="419" y="574" on="0"/>
        <pt x="384" y="589" on="0"/>
        <pt x="366" y="589" on="1"/>
        <pt x="212" y="589" on="1"/>
      </contour>
    </TTGlyph>
    <TTGlyph name="P.sc" xMin="68" yMin="0" xMax="529" yMax="559">
      <contour>
        <pt x="68" y="0" on="1"/>
        <pt x="68" y="559" on="1"/>
        <pt x="331" y="559" on="1"/>
        <pt x="374" y="559" on="0"/>
        <pt x="447" y="526" on="0"/>
        <pt x="499" y="473" on="0"/>
        <pt x="529" y="405" on="0"/>
        <pt x="529" y="371" on="1"/>
        <pt x="529" y="335" on="0"/>
        <pt x="501" y="267" on="0"/>
        <pt x="450" y="215" on="0"/>
        <pt x="379" y="183" on="0"/>
        <pt x="336" y="183" on="1"/>
        <pt x="189" y="183" on="1"/>
        <pt x="189" y="0" on="1"/>
      </contour>
      <contour>
        <pt x="189" y="289" on="1"/>
        <pt x="328" y="289" on="1"/>
        <pt x="362" y="289" on="0"/>
        <pt x="406" y="331" on="0"/>
        <pt x="406" y="371" on="1"/>
        <pt x="406" y="412" on="0"/>
        <pt x="355" y="453" on="0"/>
        <pt x="323" y="453" on="1"/>
        <pt x="189" y="453" on="1"/>
      </contour>
    </TTGlyph>
    <TTGlyph name="Q" xMin="31" yMin="-5" xMax="728" yMax="715">
      <contour>
        <pt x="557" y="46" on="1"/>
        <pt x="518" y="22" on="0"/>
        <pt x="428" y="-5" on="0"/>
        <pt x="377" y="-5" on="1"/>
        <pt x="299" y="-5" on="0"/>
        <pt x="172" y="57" on="0"/>
        <pt x="81" y="157" on="0"/>
        <pt x="31" y="287" on="0"/>
        <pt x="31" y="355" on="1"/>
        <pt x="31" y="426" on="0"/>
        <pt x="84" y="556" on="0"/>
        <pt x="177" y="656" on="0"/>
        <pt x="305" y="715" on="0"/>
        <pt x="380" y="715" on="1"/>
        <pt x="457" y="715" on="0"/>
        <pt x="584" y="652" on="0"/>
        <pt x="674" y="550" on="0"/>
        <pt x="724" y="420" on="0"/>
        <pt x="724" y="353" on="1"/>
        <pt x="724" y="284" on="0"/>
        <pt x="675" y="158" on="0"/>
        <pt x="631" y="109" on="1"/>
        <pt x="728" y="0" on="1"/>
        <pt x="598" y="0" on="1"/>
      </contour>
      <contour>
        <pt x="378" y="117" on="1"/>
        <pt x="405" y="117" on="0"/>
        <pt x="452" y="130" on="0"/>
        <pt x="472" y="141" on="1"/>
        <pt x="364" y="263" on="1"/>
        <pt x="494" y="263" on="1"/>
        <pt x="543" y="208" on="1"/>
        <pt x="563" y="240" on="0"/>
        <pt x="585" y="316" on="0"/>
        <pt x="585" y="355" on="1"/>
        <pt x="585" y="401" on="0"/>
        <pt x="556" y="487" on="0"/>
        <pt x="503" y="553" on="0"/>
        <pt x="426" y="593" on="0"/>
        <pt x="378" y="593" on="1"/>
        <pt x="328" y="593" on="0"/>
        <pt x="250" y="552" on="0"/>
        <pt x="198" y="484" on="0"/>
        <pt x="171" y="399" on="0"/>
        <pt x="171" y="355" on="1"/>
        <pt x="171" y="309" on="0"/>
        <pt x="199" y="223" on="0"/>
        <pt x="252" y="157" on="0"/>
        <pt x="329" y="117" on="0"/>
      </contour>
    </TTGlyph>
    <TTGlyph name="Q.sc" xMin="32" yMin="-4" xMax="633" yMax="563">
      <contour>
        <pt x="482" y="38" on="1"/>
        <pt x="449" y="18" on="0"/>
        <pt x="371" y="-4" on="0"/>
        <pt x="326" y="-4" on="1"/>
        <pt x="260" y="-4" on="0"/>
        <pt x="152" y="44" on="0"/>
        <pt x="74" y="124" on="0"/>
        <pt x="32" y="226" on="0"/>
        <pt x="32" y="280" on="1"/>
        <pt x="32" y="335" on="0"/>
        <pt x="76" y="438" on="0"/>
        <pt x="155" y="516" on="0"/>
        <pt x="264" y="563" on="0"/>
        <pt x="328" y="563" on="1"/>
        <pt x="394" y="563" on="0"/>
        <pt x="502" y="514" on="0"/>
        <pt x="579" y="433" on="0"/>
        <pt x="621" y="330" on="0"/>
        <pt x="621" y="277" on="1"/>
        <pt x="621" y="225" on="0"/>
        <pt x="581" y="129" on="0"/>
        <pt x="546" y="91" on="1"/>
        <pt x="633" y="0" on="1"/>
        <pt x="519" y="0" on="1"/>
      </contour>
      <contour>
        <pt x="327" y="104" on="1"/>
        <pt x="369" y="104" on="0"/>
        <pt x="403" y="121" on="1"/>
        <pt x="313" y="215" on="1"/>
        <pt x="429" y="215" on="1"/>
        <pt x="466" y="175" on="1"/>
        <pt x="498" y="222" on="0"/>
        <pt x="498" y="280" on="1"/>
        <pt x="498" y="314" on="0"/>
        <pt x="474" y="377" on="0"/>
        <pt x="429" y="426" on="0"/>
        <pt x="366" y="455" on="0"/>
        <pt x="326" y="455" on="1"/>
        <pt x="285" y="455" on="0"/>
        <pt x="221" y="424" on="0"/>
        <pt x="177" y="374" on="0"/>
        <pt x="154" y="311" on="0"/>
        <pt x="154" y="279" on="1"/>
        <pt x="154" y="245" on="0"/>
        <pt x="178" y="182" on="0"/>
        <pt x="222" y="133" on="0"/>
        <pt x="286" y="104" on="0"/>
      </contour>
    </TTGlyph>
    <TTGlyph name="R" xMin="74" yMin="0" xMax="648" yMax="710">
      <contour>
        <pt x="74" y="0" on="1"/>
        <pt x="74" y="710" on="1"/>
        <pt x="388" y="710" on="1"/>
        <pt x="437" y="710" on="0"/>
        <pt x="520" y="669" on="0"/>
        <pt x="580" y="602" on="0"/>
        <pt x="614" y="517" on="0"/>
        <pt x="614" y="474" on="1"/>
        <pt x="614" y="405" on="0"/>
        <pt x="545" y="292" on="0"/>
        <pt x="486" y="267" on="1"/>
        <pt x="648" y="0" on="1"/>
        <pt x="493" y="0" on="1"/>
        <pt x="348" y="238" on="1"/>
        <pt x="212" y="238" on="1"/>
        <pt x="212" y="0" on="1"/>
      </contour>
      <contour>
        <pt x="212" y="359" on="1"/>
        <pt x="385" y="359" on="1"/>
        <pt x="404" y="359" on="0"/>
        <pt x="437" y="377" on="0"/>
        <pt x="461" y="408" on="0"/>
        <pt x="475" y="450" on="0"/>
        <pt x="475" y="474" on="1"/>
        <pt x="475" y="499" on="0"/>
        <pt x="459" y="541" on="0"/>
        <pt x="432" y="572" on="0"/>
        <pt x="397" y="589" on="0"/>
        <pt x="379" y="589" on="1"/>
        <pt x="212" y="589" on="1"/>
      </contour>
    </TTGlyph>
    <TTGlyph name="R.sc" xMin="68" yMin="0" xMax="575" yMax="559">
      <contour>
        <pt x="68" y="0" on="1"/>
        <pt x="68" y="559" on="1"/>
        <pt x="343" y="559" on="1"/>
        <pt x="386" y="559" on="0"/>
        <pt x="458" y="526" on="0"/>
        <pt x="511" y="473" on="0"/>
        <pt x="540" y="405" on="0"/>
        <pt x="540" y="371" on="1"/>
        <pt x="540" y="318" on="0"/>
        <pt x="480" y="230" on="0"/>
        <pt x="429" y="209" on="1"/>
        <pt x="575" y="0" on="1"/>
        <pt x="437" y="0" on="1"/>
        <pt x="307" y="183" on="1"/>
        <pt x="189" y="183" on="1"/>
        <pt x="189" y="0" on="1"/>
      </contour>
      <contour>
        <pt x="189" y="289" on="1"/>
        <pt x="340" y="289" on="1"/>
        <pt x="373" y="289" on="0"/>
        <pt x="418" y="336" on="0"/>
        <pt x="418" y="371" on="1"/>
        <pt x="418" y="389" on="0"/>
        <pt x="404" y="419" on="0"/>
        <pt x="381" y="441" on="0"/>
        <pt x="351" y="453" on="0"/>
        <pt x="335" y="453" on="1"/>
        <pt x="189" y="453" on="1"/>
      </contour>
    </TTGlyph>
    <TTGlyph name="Racute" xMin="74" yMin="0" xMax="648" yMax="916">
      <contour>
        <pt x="354" y="771" on="1"/>
        <pt x="268" y="797" on="1"/>
        <pt x="322" y="916" on="1"/>
        <pt x="447" y="916" on="1"/>
      </contour>
      <contour>
        <pt x="74" y="0" on="1"/>
        <pt x="74" y="710" on="1"/>
        <pt x="388" y="710" on="1"/>
        <pt x="437" y="710" on="0"/>
        <pt x="520" y="669" on="0"/>
        <pt x="580" y="602" on="0"/>
        <pt x="614" y="517" on="0"/>
        <pt x="614" y="474" on="1"/>
        <pt x="614" y="405" on="0"/>
        <pt x="545" y="292" on="0"/>
        <pt x="486" y="267" on="1"/>
        <pt x="648" y="0" on="1"/>
        <pt x="493" y="0" on="1"/>
        <pt x="348" y="238" on="1"/>
        <pt x="212" y="238" on="1"/>
        <pt x="212" y="0" on="1"/>
      </contour>
      <contour>
        <pt x="212" y="359" on="1"/>
        <pt x="385" y="359" on="1"/>
        <pt x="404" y="359" on="0"/>
        <pt x="437" y="377" on="0"/>
        <pt x="461" y="408" on="0"/>
        <pt x="475" y="450" on="0"/>
        <pt x="475" y="474" on="1"/>
        <pt x="475" y="499" on="0"/>
        <pt x="459" y="541" on="0"/>
        <pt x="432" y="572" on="0"/>
        <pt x="397" y="589" on="0"/>
        <pt x="379" y="589" on="1"/>
        <pt x="212" y="589" on="1"/>
      </contour>
    </TTGlyph>
    <TTGlyph name="Rcaron" xMin="74" yMin="0" xMax="648" yMax="916">
      <contour>
        <pt x="234" y="916" on="1"/>
        <pt x="319" y="853" on="1"/>
        <pt x="404" y="916" on="1"/>
        <pt x="473" y="884" on="1"/>
        <pt x="367" y="783" on="1"/>
        <pt x="270" y="783" on="1"/>
        <pt x="164" y="884" on="1"/>
      </contour>
      <contour>
        <pt x="74" y="0" on="1"/>
        <pt x="74" y="710" on="1"/>
        <pt x="388" y="710" on="1"/>
        <pt x="437" y="710" on="0"/>
        <pt x="520" y="669" on="0"/>
        <pt x="580" y="602" on="0"/>
        <pt x="614" y="517" on="0"/>
        <pt x="614" y="474" on="1"/>
        <pt x="614" y="405" on="0"/>
        <pt x="545" y="292" on="0"/>
        <pt x="486" y="267" on="1"/>
        <pt x="648" y="0" on="1"/>
        <pt x="493" y="0" on="1"/>
        <pt x="348" y="238" on="1"/>
        <pt x="212" y="238" on="1"/>
        <pt x="212" y="0" on="1"/>
      </contour>
      <contour>
        <pt x="212" y="359" on="1"/>
        <pt x="385" y="359" on="1"/>
        <pt x="404" y="359" on="0"/>
        <pt x="437" y="377" on="0"/>
        <pt x="461" y="408" on="0"/>
        <pt x="475" y="450" on="0"/>
        <pt x="475" y="474" on="1"/>
        <pt x="475" y="499" on="0"/>
        <pt x="459" y="541" on="0"/>
        <pt x="432" y="572" on="0"/>
        <pt x="397" y="589" on="0"/>
        <pt x="379" y="589" on="1"/>
        <pt x="212" y="589" on="1"/>
      </contour>
    </TTGlyph>
    <TTGlyph name="Rcommaaccent" xMin="74" yMin="-213" xMax="648" yMax="710">
      <contour>
        <pt x="294" y="-213" on="1"/>
        <pt x="321" y="-141" on="1"/>
        <pt x="282" y="-141" on="1"/>
        <pt x="282" y="-47" on="1"/>
        <pt x="395" y="-47" on="1"/>
        <pt x="395" y="-141" on="1"/>
        <pt x="355" y="-213" on="1"/>
      </contour>
      <contour>
        <pt x="74" y="0" on="1"/>
        <pt x="74" y="710" on="1"/>
        <pt x="388" y="710" on="1"/>
        <pt x="437" y="710" on="0"/>
        <pt x="520" y="669" on="0"/>
        <pt x="580" y="602" on="0"/>
        <pt x="614" y="517" on="0"/>
        <pt x="614" y="474" on="1"/>
        <pt x="614" y="405" on="0"/>
        <pt x="545" y="292" on="0"/>
        <pt x="486" y="267" on="1"/>
        <pt x="648" y="0" on="1"/>
        <pt x="493" y="0" on="1"/>
        <pt x="348" y="238" on="1"/>
        <pt x="212" y="238" on="1"/>
        <pt x="212" y="0" on="1"/>
      </contour>
      <contour>
        <pt x="212" y="359" on="1"/>
        <pt x="385" y="359" on="1"/>
        <pt x="404" y="359" on="0"/>
        <pt x="437" y="377" on="0"/>
        <pt x="461" y="408" on="0"/>
        <pt x="475" y="450" on="0"/>
        <pt x="475" y="474" on="1"/>
        <pt x="475" y="499" on="0"/>
        <pt x="459" y="541" on="0"/>
        <pt x="432" y="572" on="0"/>
        <pt x="397" y="589" on="0"/>
        <pt x="379" y="589" on="1"/>
        <pt x="212" y="589" on="1"/>
      </contour>
    </TTGlyph>
    <TTGlyph name="Rdblgrave" xMin="74" yMin="0" xMax="648" yMax="917">
      <contour>
        <pt x="294" y="917" on="1"/>
        <pt x="399" y="917" on="1"/>
        <pt x="446" y="798" on="1"/>
        <pt x="380" y="772" on="1"/>
      </contour>
      <contour>
        <pt x="134" y="917" on="1"/>
        <pt x="238" y="917" on="1"/>
        <pt x="286" y="798" on="1"/>
        <pt x="220" y="772" on="1"/>
      </contour>
      <contour>
        <pt x="74" y="0" on="1"/>
        <pt x="74" y="710" on="1"/>
        <pt x="388" y="710" on="1"/>
        <pt x="437" y="710" on="0"/>
        <pt x="520" y="669" on="0"/>
        <pt x="580" y="602" on="0"/>
        <pt x="614" y="517" on="0"/>
        <pt x="614" y="474" on="1"/>
        <pt x="614" y="405" on="0"/>
        <pt x="545" y="292" on="0"/>
        <pt x="486" y="267" on="1"/>
        <pt x="648" y="0" on="1"/>
        <pt x="493" y="0" on="1"/>
        <pt x="348" y="238" on="1"/>
        <pt x="212" y="238" on="1"/>
        <pt x="212" y="0" on="1"/>
      </contour>
      <contour>
        <pt x="212" y="359" on="1"/>
        <pt x="385" y="359" on="1"/>
        <pt x="404" y="359" on="0"/>
        <pt x="437" y="377" on="0"/>
        <pt x="461" y="408" on="0"/>
        <pt x="475" y="450" on="0"/>
        <pt x="475" y="474" on="1"/>
        <pt x="475" y="499" on="0"/>
        <pt x="459" y="541" on="0"/>
        <pt x="432" y="572" on="0"/>
        <pt x="397" y="589" on="0"/>
        <pt x="379" y="589" on="1"/>
        <pt x="212" y="589" on="1"/>
      </contour>
    </TTGlyph>
    <TTGlyph name="Rdotbelow" xMin="74" yMin="-196" xMax="648" yMax="710">
      <contour>
        <pt x="74" y="0" on="1"/>
        <pt x="74" y="710" on="1"/>
        <pt x="388" y="710" on="1"/>
        <pt x="437" y="710" on="0"/>
        <pt x="520" y="669" on="0"/>
        <pt x="580" y="602" on="0"/>
        <pt x="614" y="517" on="0"/>
        <pt x="614" y="474" on="1"/>
        <pt x="614" y="405" on="0"/>
        <pt x="545" y="292" on="0"/>
        <pt x="486" y="267" on="1"/>
        <pt x="648" y="0" on="1"/>
        <pt x="493" y="0" on="1"/>
        <pt x="348" y="238" on="1"/>
        <pt x="212" y="238" on="1"/>
        <pt x="212" y="0" on="1"/>
      </contour>
      <contour>
        <pt x="212" y="359" on="1"/>
        <pt x="385" y="359" on="1"/>
        <pt x="404" y="359" on="0"/>
        <pt x="437" y="377" on="0"/>
        <pt x="461" y="408" on="0"/>
        <pt x="475" y="450" on="0"/>
        <pt x="475" y="474" on="1"/>
        <pt x="475" y="499" on="0"/>
        <pt x="459" y="541" on="0"/>
        <pt x="432" y="572" on="0"/>
        <pt x="397" y="589" on="0"/>
        <pt x="379" y="589" on="1"/>
        <pt x="212" y="589" on="1"/>
      </contour>
      <contour>
        <pt x="275" y="-196" on="1"/>
        <pt x="275" y="-70" on="1"/>
        <pt x="396" y="-70" on="1"/>
        <pt x="396" y="-196" on="1"/>
      </contour>
    </TTGlyph>
    <TTGlyph name="Rinvertedbreve" xMin="74" yMin="0" xMax="648" yMax="915">
      <contour>
        <pt x="322" y="855" on="1"/>
        <pt x="299" y="855" on="0"/>
        <pt x="263" y="811" on="0"/>
        <pt x="263" y="781" on="1"/>
        <pt x="191" y="781" on="1"/>
        <pt x="191" y="810" on="0"/>
        <pt x="211" y="859" on="0"/>
        <pt x="245" y="895" on="0"/>
        <pt x="293" y="915" on="0"/>
        <pt x="322" y="915" on="1"/>
        <pt x="350" y="915" on="0"/>
        <pt x="399" y="895" on="0"/>
        <pt x="433" y="859" on="0"/>
        <pt x="453" y="810" on="0"/>
        <pt x="453" y="781" on="1"/>
        <pt x="382" y="781" on="1"/>
        <pt x="379" y="813" on="0"/>
        <pt x="345" y="855" on="0"/>
      </contour>
      <contour>
        <pt x="74" y="0" on="1"/>
        <pt x="74" y="710" on="1"/>
        <pt x="388" y="710" on="1"/>
        <pt x="437" y="710" on="0"/>
        <pt x="520" y="669" on="0"/>
        <pt x="580" y="602" on="0"/>
        <pt x="614" y="517" on="0"/>
        <pt x="614" y="474" on="1"/>
        <pt x="614" y="405" on="0"/>
        <pt x="545" y="292" on="0"/>
        <pt x="486" y="267" on="1"/>
        <pt x="648" y="0" on="1"/>
        <pt x="493" y="0" on="1"/>
        <pt x="348" y="238" on="1"/>
        <pt x="212" y="238" on="1"/>
        <pt x="212" y="0" on="1"/>
      </contour>
      <contour>
        <pt x="212" y="359" on="1"/>
        <pt x="385" y="359" on="1"/>
        <pt x="404" y="359" on="0"/>
        <pt x="437" y="377" on="0"/>
        <pt x="461" y="408" on="0"/>
        <pt x="475" y="450" on="0"/>
        <pt x="475" y="474" on="1"/>
        <pt x="475" y="499" on="0"/>
        <pt x="459" y="541" on="0"/>
        <pt x="432" y="572" on="0"/>
        <pt x="397" y="589" on="0"/>
        <pt x="379" y="589" on="1"/>
        <pt x="212" y="589" on="1"/>
      </contour>
    </TTGlyph>
    <TTGlyph name="S" xMin="22" yMin="-8" xMax="583" yMax="715">
      <contour>
        <pt x="497" y="524" on="1"/>
        <pt x="490" y="531" on="0"/>
        <pt x="453" y="555" on="0"/>
        <pt x="400" y="578" on="0"/>
        <pt x="338" y="594" on="0"/>
        <pt x="306" y="594" on="1"/>
        <pt x="249" y="594" on="0"/>
        <pt x="193" y="552" on="0"/>
        <pt x="193" y="514" on="1"/>
        <pt x="193" y="492" on="0"/>
        <pt x="214" y="463" on="0"/>
        <pt x="254" y="441" on="0"/>
        <pt x="315" y="423" on="0"/>
        <pt x="355" y="413" on="1"/>
        <pt x="407" y="399" on="0"/>
        <pt x="492" y="367" on="0"/>
        <pt x="551" y="319" on="0"/>
        <pt x="583" y="252" on="0"/>
        <pt x="583" y="203" on="1"/>
        <pt x="583" y="146" on="0"/>
        <pt x="540" y="65" on="0"/>
        <pt x="467" y="15" on="0"/>
        <pt x="372" y="-8" on="0"/>
        <pt x="320" y="-8" on="1"/>
        <pt x="240" y="-8" on="0"/>
        <pt x="84" y="40" on="0"/>
        <pt x="22" y="84" on="1"/>
        <pt x="83" y="203" on="1"/>
        <pt x="92" y="194" on="0"/>
        <pt x="139" y="165" on="0"/>
        <pt x="203" y="136" on="0"/>
        <pt x="281" y="116" on="0"/>
        <pt x="322" y="116" on="1"/>
        <pt x="436" y="116" on="0"/>
        <pt x="436" y="189" on="1"/>
        <pt x="436" y="212" on="0"/>
        <pt x="410" y="244" on="0"/>
        <pt x="362" y="268" on="0"/>
        <pt x="294" y="288" on="0"/>
        <pt x="252" y="300" on="1"/>
        <pt x="201" y="314" on="0"/>
        <pt x="126" y="347" on="0"/>
        <pt x="76" y="392" on="0"/>
        <pt x="51" y="451" on="0"/>
        <pt x="51" y="492" on="1"/>
        <pt x="51" y="546" on="0"/>
        <pt x="91" y="630" on="0"/>
        <pt x="162" y="686" on="0"/>
        <pt x="256" y="715" on="0"/>
        <pt x="310" y="715" on="1"/>
        <pt x="385" y="715" on="0"/>
        <pt x="511" y="668" on="0"/>
        <pt x="558" y="636" on="1"/>
      </contour>
    </TTGlyph>
    <TTGlyph name="S.sc" xMin="24" yMin="-7" xMax="502" yMax="563">
      <contour>
        <pt x="428" y="402" on="1"/>
        <pt x="420" y="409" on="0"/>
        <pt x="387" y="428" on="0"/>
        <pt x="344" y="444" on="0"/>
        <pt x="293" y="456" on="0"/>
        <pt x="267" y="456" on="1"/>
        <pt x="173" y="456" on="0"/>
        <pt x="173" y="403" on="1"/>
        <pt x="173" y="388" on="0"/>
        <pt x="190" y="367" on="0"/>
        <pt x="224" y="352" on="0"/>
        <pt x="275" y="338" on="0"/>
        <pt x="309" y="330" on="1"/>
        <pt x="353" y="319" on="0"/>
        <pt x="425" y="293" on="0"/>
        <pt x="475" y="255" on="0"/>
        <pt x="502" y="202" on="0"/>
        <pt x="502" y="163" on="1"/>
        <pt x="502" y="116" on="0"/>
        <pt x="465" y="52" on="0"/>
        <pt x="403" y="11" on="0"/>
        <pt x="322" y="-7" on="0"/>
        <pt x="278" y="-7" on="1"/>
        <pt x="210" y="-7" on="0"/>
        <pt x="76" y="31" on="0"/>
        <pt x="24" y="64" on="1"/>
        <pt x="78" y="169" on="1"/>
        <pt x="88" y="159" on="0"/>
        <pt x="127" y="135" on="0"/>
        <pt x="181" y="115" on="0"/>
        <pt x="245" y="102" on="0"/>
        <pt x="280" y="102" on="1"/>
        <pt x="325" y="102" on="0"/>
        <pt x="372" y="128" on="0"/>
        <pt x="372" y="151" on="1"/>
        <pt x="372" y="167" on="0"/>
        <pt x="350" y="189" on="0"/>
        <pt x="310" y="207" on="0"/>
        <pt x="253" y="222" on="0"/>
        <pt x="218" y="231" on="1"/>
        <pt x="132" y="253" on="0"/>
        <pt x="49" y="322" on="0"/>
        <pt x="49" y="387" on="1"/>
        <pt x="49" y="430" on="0"/>
        <pt x="84" y="496" on="0"/>
        <pt x="144" y="540" on="0"/>
        <pt x="224" y="563" on="0"/>
        <pt x="269" y="563" on="1"/>
        <pt x="332" y="563" on="0"/>
        <pt x="441" y="525" on="0"/>
        <pt x="480" y="501" on="1"/>
      </contour>
    </TTGlyph>
    <TTGlyph name="Sacute" xMin="22" yMin="-8" xMax="583" yMax="923">
      <contour>
        <pt x="356" y="778" on="1"/>
        <pt x="270" y="804" on="1"/>
        <pt x="324" y="923" on="1"/>
        <pt x="449" y="923" on="1"/>
      </contour>
      <contour>
        <pt x="497" y="524" on="1"/>
        <pt x="490" y="531" on="0"/>
        <pt x="453" y="555" on="0"/>
        <pt x="400" y="578" on="0"/>
        <pt x="338" y="594" on="0"/>
        <pt x="306" y="594" on="1"/>
        <pt x="249" y="594" on="0"/>
        <pt x="193" y="552" on="0"/>
        <pt x="193" y="514" on="1"/>
        <pt x="193" y="492" on="0"/>
        <pt x="214" y="463" on="0"/>
        <pt x="254" y="441" on="0"/>
        <pt x="315" y="423" on="0"/>
        <pt x="355" y="413" on="1"/>
        <pt x="407" y="399" on="0"/>
        <pt x="492" y="367" on="0"/>
        <pt x="551" y="319" on="0"/>
        <pt x="583" y="252" on="0"/>
        <pt x="583" y="203" on="1"/>
        <pt x="583" y="146" on="0"/>
        <pt x="540" y="65" on="0"/>
        <pt x="467" y="15" on="0"/>
        <pt x="372" y="-8" on="0"/>
        <pt x="320" y="-8" on="1"/>
        <pt x="240" y="-8" on="0"/>
        <pt x="84" y="40" on="0"/>
        <pt x="22" y="84" on="1"/>
        <pt x="83" y="203" on="1"/>
        <pt x="92" y="194" on="0"/>
        <pt x="139" y="165" on="0"/>
        <pt x="203" y="136" on="0"/>
        <pt x="281" y="116" on="0"/>
        <pt x="322" y="116" on="1"/>
        <pt x="436" y="116" on="0"/>
        <pt x="436" y="189" on="1"/>
        <pt x="436" y="212" on="0"/>
        <pt x="410" y="244" on="0"/>
        <pt x="362" y="268" on="0"/>
        <pt x="294" y="288" on="0"/>
        <pt x="252" y="300" on="1"/>
        <pt x="201" y="314" on="0"/>
        <pt x="126" y="347" on="0"/>
        <pt x="76" y="392" on="0"/>
        <pt x="51" y="451" on="0"/>
        <pt x="51" y="492" on="1"/>
        <pt x="51" y="546" on="0"/>
        <pt x="91" y="630" on="0"/>
        <pt x="162" y="686" on="0"/>
        <pt x="256" y="715" on="0"/>
        <pt x="310" y="715" on="1"/>
        <pt x="385" y="715" on="0"/>
        <pt x="511" y="668" on="0"/>
        <pt x="558" y="636" on="1"/>
      </contour>
    </TTGlyph>
    <TTGlyph name="Scaron" xMin="22" yMin="-8" xMax="583" yMax="923">
      <contour>
        <pt x="236" y="923" on="1"/>
        <pt x="321" y="860" on="1"/>
        <pt x="406" y="923" on="1"/>
        <pt x="475" y="891" on="1"/>
        <pt x="369" y="790" on="1"/>
        <pt x="272" y="790" on="1"/>
        <pt x="166" y="891" on="1"/>
      </contour>
      <contour>
        <pt x="497" y="524" on="1"/>
        <pt x="490" y="531" on="0"/>
        <pt x="453" y="555" on="0"/>
        <pt x="400" y="578" on="0"/>
        <pt x="338" y="594" on="0"/>
        <pt x="306" y="594" on="1"/>
        <pt x="249" y="594" on="0"/>
        <pt x="193" y="552" on="0"/>
        <pt x="193" y="514" on="1"/>
        <pt x="193" y="492" on="0"/>
        <pt x="214" y="463" on="0"/>
        <pt x="254" y="441" on="0"/>
        <pt x="315" y="423" on="0"/>
        <pt x="355" y="413" on="1"/>
        <pt x="407" y="399" on="0"/>
        <pt x="492" y="367" on="0"/>
        <pt x="551" y="319" on="0"/>
        <pt x="583" y="252" on="0"/>
        <pt x="583" y="203" on="1"/>
        <pt x="583" y="146" on="0"/>
        <pt x="540" y="65" on="0"/>
        <pt x="467" y="15" on="0"/>
        <pt x="372" y="-8" on="0"/>
        <pt x="320" y="-8" on="1"/>
        <pt x="240" y="-8" on="0"/>
        <pt x="84" y="40" on="0"/>
        <pt x="22" y="84" on="1"/>
        <pt x="83" y="203" on="1"/>
        <pt x="92" y="194" on="0"/>
        <pt x="139" y="165" on="0"/>
        <pt x="203" y="136" on="0"/>
        <pt x="281" y="116" on="0"/>
        <pt x="322" y="116" on="1"/>
        <pt x="436" y="116" on="0"/>
        <pt x="436" y="189" on="1"/>
        <pt x="436" y="212" on="0"/>
        <pt x="410" y="244" on="0"/>
        <pt x="362" y="268" on="0"/>
        <pt x="294" y="288" on="0"/>
        <pt x="252" y="300" on="1"/>
        <pt x="201" y="314" on="0"/>
        <pt x="126" y="347" on="0"/>
        <pt x="76" y="392" on="0"/>
        <pt x="51" y="451" on="0"/>
        <pt x="51" y="492" on="1"/>
        <pt x="51" y="546" on="0"/>
        <pt x="91" y="630" on="0"/>
        <pt x="162" y="686" on="0"/>
        <pt x="256" y="715" on="0"/>
        <pt x="310" y="715" on="1"/>
        <pt x="385" y="715" on="0"/>
        <pt x="511" y="668" on="0"/>
        <pt x="558" y="636" on="1"/>
      </contour>
    </TTGlyph>
    <TTGlyph name="Schwa" xMin="20" yMin="-5" xMax="714" yMax="715">
      <contour>
        <pt x="369" y="-5" on="1"/>
        <pt x="291" y="-5" on="0"/>
        <pt x="162" y="55" on="0"/>
        <pt x="70" y="153" on="0"/>
        <pt x="20" y="279" on="0"/>
        <pt x="20" y="344" on="1"/>
        <pt x="20" y="378" on="0"/>
        <pt x="25" y="401" on="1"/>
        <pt x="564" y="401" on="1"/>
        <pt x="559" y="445" on="0"/>
        <pt x="525" y="516" on="0"/>
        <pt x="472" y="565" on="0"/>
        <pt x="404" y="592" on="0"/>
        <pt x="367" y="592" on="1"/>
        <pt x="338" y="592" on="0"/>
        <pt x="284" y="576" on="0"/>
        <pt x="239" y="548" on="0"/>
        <pt x="206" y="507" on="0"/>
        <pt x="199" y="483" on="1"/>
        <pt x="60" y="530" on="1"/>
        <pt x="80" y="571" on="0"/>
        <pt x="143" y="639" on="0"/>
        <pt x="223" y="688" on="0"/>
        <pt x="318" y="715" on="0"/>
        <pt x="371" y="715" on="1"/>
        <pt x="448" y="715" on="0"/>
        <pt x="574" y="655" on="0"/>
        <pt x="664" y="556" on="0"/>
        <pt x="714" y="427" on="0"/>
        <pt x="714" y="359" on="1"/>
        <pt x="714" y="287" on="0"/>
        <pt x="665" y="156" on="0"/>
        <pt x="575" y="55" on="0"/>
        <pt x="447" y="-5" on="0"/>
      </contour>
      <contour>
        <pt x="371" y="116" on="1"/>
        <pt x="410" y="116" on="0"/>
        <pt x="476" y="142" on="0"/>
        <pt x="527" y="189" on="0"/>
        <pt x="559" y="254" on="0"/>
        <pt x="562" y="293" on="1"/>
        <pt x="171" y="293" on="1"/>
        <pt x="175" y="254" on="0"/>
        <pt x="208" y="189" on="0"/>
        <pt x="262" y="142" on="0"/>
        <pt x="331" y="116" on="0"/>
      </contour>
    </TTGlyph>
    <TTGlyph name="Scircumflex" xMin="22" yMin="-8" xMax="583" yMax="923">
      <contour>
        <pt x="166" y="822" on="1"/>
        <pt x="272" y="923" on="1"/>
        <pt x="369" y="923" on="1"/>
        <pt x="475" y="822" on="1"/>
        <pt x="406" y="790" on="1"/>
        <pt x="321" y="853" on="1"/>
        <pt x="236" y="790" on="1"/>
      </contour>
      <contour>
        <pt x="497" y="524" on="1"/>
        <pt x="490" y="531" on="0"/>
        <pt x="453" y="555" on="0"/>
        <pt x="400" y="578" on="0"/>
        <pt x="338" y="594" on="0"/>
        <pt x="306" y="594" on="1"/>
        <pt x="249" y="594" on="0"/>
        <pt x="193" y="552" on="0"/>
        <pt x="193" y="514" on="1"/>
        <pt x="193" y="492" on="0"/>
        <pt x="214" y="463" on="0"/>
        <pt x="254" y="441" on="0"/>
        <pt x="315" y="423" on="0"/>
        <pt x="355" y="413" on="1"/>
        <pt x="407" y="399" on="0"/>
        <pt x="492" y="367" on="0"/>
        <pt x="551" y="319" on="0"/>
        <pt x="583" y="252" on="0"/>
        <pt x="583" y="203" on="1"/>
        <pt x="583" y="146" on="0"/>
        <pt x="540" y="65" on="0"/>
        <pt x="467" y="15" on="0"/>
        <pt x="372" y="-8" on="0"/>
        <pt x="320" y="-8" on="1"/>
        <pt x="240" y="-8" on="0"/>
        <pt x="84" y="40" on="0"/>
        <pt x="22" y="84" on="1"/>
        <pt x="83" y="203" on="1"/>
        <pt x="92" y="194" on="0"/>
        <pt x="139" y="165" on="0"/>
        <pt x="203" y="136" on="0"/>
        <pt x="281" y="116" on="0"/>
        <pt x="322" y="116" on="1"/>
        <pt x="436" y="116" on="0"/>
        <pt x="436" y="189" on="1"/>
        <pt x="436" y="212" on="0"/>
        <pt x="410" y="244" on="0"/>
        <pt x="362" y="268" on="0"/>
        <pt x="294" y="288" on="0"/>
        <pt x="252" y="300" on="1"/>
        <pt x="201" y="314" on="0"/>
        <pt x="126" y="347" on="0"/>
        <pt x="76" y="392" on="0"/>
        <pt x="51" y="451" on="0"/>
        <pt x="51" y="492" on="1"/>
        <pt x="51" y="546" on="0"/>
        <pt x="91" y="630" on="0"/>
        <pt x="162" y="686" on="0"/>
        <pt x="256" y="715" on="0"/>
        <pt x="310" y="715" on="1"/>
        <pt x="385" y="715" on="0"/>
        <pt x="511" y="668" on="0"/>
        <pt x="558" y="636" on="1"/>
      </contour>
    </TTGlyph>
    <TTGlyph name="Sdotbelow" xMin="22" yMin="-196" xMax="583" yMax="715">
      <contour>
        <pt x="497" y="524" on="1"/>
        <pt x="490" y="531" on="0"/>
        <pt x="453" y="555" on="0"/>
        <pt x="400" y="578" on="0"/>
        <pt x="338" y="594" on="0"/>
        <pt x="306" y="594" on="1"/>
        <pt x="249" y="594" on="0"/>
        <pt x="193" y="552" on="0"/>
        <pt x="193" y="514" on="1"/>
        <pt x="193" y="492" on="0"/>
        <pt x="214" y="463" on="0"/>
        <pt x="254" y="441" on="0"/>
        <pt x="315" y="423" on="0"/>
        <pt x="355" y="413" on="1"/>
        <pt x="407" y="399" on="0"/>
        <pt x="492" y="367" on="0"/>
        <pt x="551" y="319" on="0"/>
        <pt x="583" y="252" on="0"/>
        <pt x="583" y="203" on="1"/>
        <pt x="583" y="146" on="0"/>
        <pt x="540" y="65" on="0"/>
        <pt x="467" y="15" on="0"/>
        <pt x="372" y="-8" on="0"/>
        <pt x="320" y="-8" on="1"/>
        <pt x="240" y="-8" on="0"/>
        <pt x="84" y="40" on="0"/>
        <pt x="22" y="84" on="1"/>
        <pt x="83" y="203" on="1"/>
        <pt x="92" y="194" on="0"/>
        <pt x="139" y="165" on="0"/>
        <pt x="203" y="136" on="0"/>
        <pt x="281" y="116" on="0"/>
        <pt x="322" y="116" on="1"/>
        <pt x="436" y="116" on="0"/>
        <pt x="436" y="189" on="1"/>
        <pt x="436" y="212" on="0"/>
        <pt x="410" y="244" on="0"/>
        <pt x="362" y="268" on="0"/>
        <pt x="294" y="288" on="0"/>
        <pt x="252" y="300" on="1"/>
        <pt x="201" y="314" on="0"/>
        <pt x="126" y="347" on="0"/>
        <pt x="76" y="392" on="0"/>
        <pt x="51" y="451" on="0"/>
        <pt x="51" y="492" on="1"/>
        <pt x="51" y="546" on="0"/>
        <pt x="91" y="630" on="0"/>
        <pt x="162" y="686" on="0"/>
        <pt x="256" y="715" on="0"/>
        <pt x="310" y="715" on="1"/>
        <pt x="385" y="715" on="0"/>
        <pt x="511" y="668" on="0"/>
        <pt x="558" y="636" on="1"/>
      </contour>
      <contour>
        <pt x="243" y="-196" on="1"/>
        <pt x="243" y="-70" on="1"/>
        <pt x="364" y="-70" on="1"/>
        <pt x="364" y="-196" on="1"/>
      </contour>
    </TTGlyph>
    <TTGlyph name="T" xMin="14" yMin="0" xMax="605" yMax="710">
      <contour>
        <pt x="605" y="589" on="1"/>
        <pt x="378" y="589" on="1"/>
        <pt x="378" y="0" on="1"/>
        <pt x="241" y="0" on="1"/>
        <pt x="241" y="589" on="1"/>
        <pt x="14" y="589" on="1"/>
        <pt x="14" y="710" on="1"/>
        <pt x="605" y="710" on="1"/>
      </contour>
    </TTGlyph>
    <TTGlyph name="T.sc" xMin="17" yMin="0" xMax="533" yMax="559">
      <contour>
        <pt x="533" y="453" on="1"/>
        <pt x="336" y="453" on="1"/>
        <pt x="336" y="0" on="1"/>
        <pt x="215" y="0" on="1"/>
        <pt x="215" y="453" on="1"/>
        <pt x="17" y="453" on="1"/>
        <pt x="17" y="559" on="1"/>
        <pt x="533" y="559" on="1"/>
      </contour>
    </TTGlyph>
    <TTGlyph name="Tbar" xMin="27" yMin="0" xMax="618" yMax="710">
      <contour>
        <pt x="618" y="589" on="1"/>
        <pt x="391" y="589" on="1"/>
        <pt x="391" y="379" on="1"/>
        <pt x="581" y="379" on="1"/>
        <pt x="581" y="313" on="1"/>
        <pt x="391" y="313" on="1"/>
        <pt x="391" y="0" on="1"/>
        <pt x="254" y="0" on="1"/>
        <pt x="254" y="313" on="1"/>
        <pt x="63" y="313" on="1"/>
        <pt x="63" y="379" on="1"/>
        <pt x="254" y="379" on="1"/>
        <pt x="254" y="589" on="1"/>
        <pt x="27" y="589" on="1"/>
        <pt x="27" y="710" on="1"/>
        <pt x="618" y="710" on="1"/>
      </contour>
    </TTGlyph>
    <TTGlyph name="Tcaron" xMin="14" yMin="0" xMax="605" yMax="915">
      <contour>
        <pt x="230" y="915" on="1"/>
        <pt x="315" y="852" on="1"/>
        <pt x="400" y="915" on="1"/>
        <pt x="469" y="883" on="1"/>
        <pt x="363" y="782" on="1"/>
        <pt x="266" y="782" on="1"/>
        <pt x="160" y="883" on="1"/>
      </contour>
      <contour>
        <pt x="605" y="589" on="1"/>
        <pt x="378" y="589" on="1"/>
        <pt x="378" y="0" on="1"/>
        <pt x="241" y="0" on="1"/>
        <pt x="241" y="589" on="1"/>
        <pt x="14" y="589" on="1"/>
        <pt x="14" y="710" on="1"/>
        <pt x="605" y="710" on="1"/>
      </contour>
    </TTGlyph>
    <TTGlyph name="Tdotbelow" xMin="14" yMin="-196" xMax="605" yMax="710">
      <contour>
        <pt x="247" y="-196" on="1"/>
        <pt x="247" y="-70" on="1"/>
        <pt x="368" y="-70" on="1"/>
        <pt x="368" y="-196" on="1"/>
      </contour>
      <contour>
        <pt x="605" y="589" on="1"/>
        <pt x="378" y="589" on="1"/>
        <pt x="378" y="0" on="1"/>
        <pt x="241" y="0" on="1"/>
        <pt x="241" y="589" on="1"/>
        <pt x="14" y="589" on="1"/>
        <pt x="14" y="710" on="1"/>
        <pt x="605" y="710" on="1"/>
      </contour>
    </TTGlyph>
    <TTGlyph name="Thorn" xMin="74" yMin="0" xMax="584" yMax="710">
      <contour>
        <pt x="358" y="582" on="1"/>
        <pt x="407" y="582" on="0"/>
        <pt x="490" y="541" on="0"/>
        <pt x="550" y="475" on="0"/>
        <pt x="584" y="390" on="0"/>
        <pt x="584" y="346" on="1"/>
        <pt x="584" y="300" on="0"/>
        <pt x="552" y="215" on="0"/>
        <pt x="494" y="149" on="0"/>
        <pt x="413" y="110" on="0"/>
        <pt x="364" y="110" on="1"/>
        <pt x="212" y="110" on="1"/>
        <pt x="212" y="0" on="1"/>
        <pt x="74" y="0" on="1"/>
        <pt x="74" y="710" on="1"/>
        <pt x="212" y="710" on="1"/>
        <pt x="212" y="582" on="1"/>
      </contour>
      <contour>
        <pt x="357" y="231" on="1"/>
        <pt x="376" y="231" on="0"/>
        <pt x="409" y="249" on="0"/>
        <pt x="433" y="281" on="0"/>
        <pt x="447" y="322" on="0"/>
        <pt x="447" y="346" on="1"/>
        <pt x="447" y="371" on="0"/>
        <pt x="431" y="413" on="0"/>
        <pt x="404" y="444" on="0"/>
        <pt x="370" y="461" on="0"/>
        <pt x="351" y="461" on="1"/>
        <pt x="212" y="461" on="1"/>
        <pt x="212" y="231" on="1"/>
      </contour>
    </TTGlyph>
    <TTGlyph name="U" xMin="64" yMin="-5" xMax="685" yMax="710">
      <contour>
        <pt x="374" y="117" on="1"/>
        <pt x="423" y="117" on="0"/>
        <pt x="490" y="157" on="0"/>
        <pt x="531" y="221" on="0"/>
        <pt x="548" y="304" on="0"/>
        <pt x="548" y="348" on="1"/>
        <pt x="548" y="710" on="1"/>
        <pt x="685" y="710" on="1"/>
        <pt x="685" y="348" on="1"/>
        <pt x="685" y="275" on="0"/>
        <pt x="650" y="147" on="0"/>
        <pt x="575" y="51" on="0"/>
        <pt x="457" y="-5" on="0"/>
        <pt x="375" y="-5" on="1"/>
        <pt x="290" y="-5" on="0"/>
        <pt x="171" y="54" on="0"/>
        <pt x="97" y="151" on="0"/>
        <pt x="64" y="279" on="0"/>
        <pt x="64" y="348" on="1"/>
        <pt x="64" y="710" on="1"/>
        <pt x="202" y="710" on="1"/>
        <pt x="202" y="348" on="1"/>
        <pt x="202" y="303" on="0"/>
        <pt x="219" y="220" on="0"/>
        <pt x="260" y="156" on="0"/>
        <pt x="326" y="117" on="0"/>
      </contour>
    </TTGlyph>
    <TTGlyph name="U.sc" xMin="60" yMin="-4" xMax="594" yMax="559">
      <contour>
        <pt x="326" y="103" on="1"/>
        <pt x="368" y="103" on="0"/>
        <pt x="425" y="132" on="0"/>
        <pt x="459" y="180" on="0"/>
        <pt x="473" y="241" on="0"/>
        <pt x="473" y="273" on="1"/>
        <pt x="473" y="559" on="1"/>
        <pt x="594" y="559" on="1"/>
        <pt x="594" y="273" on="1"/>
        <pt x="594" y="215" on="0"/>
        <pt x="563" y="114" on="0"/>
        <pt x="499" y="39" on="0"/>
        <pt x="397" y="-4" on="0"/>
        <pt x="327" y="-4" on="1"/>
        <pt x="254" y="-4" on="0"/>
        <pt x="153" y="41" on="0"/>
        <pt x="89" y="118" on="0"/>
        <pt x="60" y="218" on="0"/>
        <pt x="60" y="273" on="1"/>
        <pt x="60" y="559" on="1"/>
        <pt x="181" y="559" on="1"/>
        <pt x="181" y="273" on="1"/>
        <pt x="181" y="240" on="0"/>
        <pt x="196" y="179" on="0"/>
        <pt x="230" y="131" on="0"/>
        <pt x="285" y="103" on="0"/>
      </contour>
    </TTGlyph>
    <TTGlyph name="Uacute" xMin="64" yMin="-5" xMax="685" yMax="915">
      <contour>
        <pt x="410" y="770" on="1"/>
        <pt x="324" y="796" on="1"/>
        <pt x="378" y="915" on="1"/>
        <pt x="503" y="915" on="1"/>
      </contour>
      <contour>
        <pt x="374" y="117" on="1"/>
        <pt x="423" y="117" on="0"/>
        <pt x="490" y="157" on="0"/>
        <pt x="531" y="221" on="0"/>
        <pt x="548" y="304" on="0"/>
        <pt x="548" y="348" on="1"/>
        <pt x="548" y="710" on="1"/>
        <pt x="685" y="710" on="1"/>
        <pt x="685" y="348" on="1"/>
        <pt x="685" y="275" on="0"/>
        <pt x="650" y="147" on="0"/>
        <pt x="575" y="51" on="0"/>
        <pt x="457" y="-5" on="0"/>
        <pt x="375" y="-5" on="1"/>
        <pt x="290" y="-5" on="0"/>
        <pt x="171" y="54" on="0"/>
        <pt x="97" y="151" on="0"/>
        <pt x="64" y="279" on="0"/>
        <pt x="64" y="348" on="1"/>
        <pt x="64" y="710" on="1"/>
        <pt x="202" y="710" on="1"/>
        <pt x="202" y="348" on="1"/>
        <pt x="202" y="303" on="0"/>
        <pt x="219" y="220" on="0"/>
        <pt x="260" y="156" on="0"/>
        <pt x="326" y="117" on="0"/>
      </contour>
    </TTGlyph>
    <TTGlyph name="Ubreve" xMin="64" yMin="-5" xMax="685" yMax="915">
      <contour>
        <pt x="374" y="117" on="1"/>
        <pt x="423" y="117" on="0"/>
        <pt x="490" y="157" on="0"/>
        <pt x="531" y="221" on="0"/>
        <pt x="548" y="304" on="0"/>
        <pt x="548" y="348" on="1"/>
        <pt x="548" y="710" on="1"/>
        <pt x="685" y="710" on="1"/>
        <pt x="685" y="348" on="1"/>
        <pt x="685" y="275" on="0"/>
        <pt x="650" y="147" on="0"/>
        <pt x="575" y="51" on="0"/>
        <pt x="457" y="-5" on="0"/>
        <pt x="375" y="-5" on="1"/>
        <pt x="290" y="-5" on="0"/>
        <pt x="171" y="54" on="0"/>
        <pt x="97" y="151" on="0"/>
        <pt x="64" y="279" on="0"/>
        <pt x="64" y="348" on="1"/>
        <pt x="64" y="710" on="1"/>
        <pt x="202" y="710" on="1"/>
        <pt x="202" y="348" on="1"/>
        <pt x="202" y="303" on="0"/>
        <pt x="219" y="220" on="0"/>
        <pt x="260" y="156" on="0"/>
        <pt x="326" y="117" on="0"/>
      </contour>
      <contour>
        <pt x="375" y="841" on="1"/>
        <pt x="398" y="841" on="0"/>
        <pt x="432" y="883" on="0"/>
        <pt x="435" y="915" on="1"/>
        <pt x="506" y="915" on="1"/>
        <pt x="506" y="886" on="0"/>
        <pt x="486" y="837" on="0"/>
        <pt x="452" y="801" on="0"/>
        <pt x="403" y="781" on="0"/>
        <pt x="375" y="781" on="1"/>
        <pt x="346" y="781" on="0"/>
        <pt x="298" y="801" on="0"/>
        <pt x="264" y="837" on="0"/>
        <pt x="244" y="886" on="0"/>
        <pt x="244" y="915" on="1"/>
        <pt x="316" y="915" on="1"/>
        <pt x="316" y="885" on="0"/>
        <pt x="352" y="841" on="0"/>
      </contour>
    </TTGlyph>
    <TTGlyph name="Ucircumflex" xMin="64" yMin="-5" xMax="685" yMax="915">
      <contour>
        <pt x="220" y="814" on="1"/>
        <pt x="326" y="915" on="1"/>
        <pt x="423" y="915" on="1"/>
        <pt x="529" y="814" on="1"/>
        <pt x="460" y="782" on="1"/>
        <pt x="375" y="845" on="1"/>
        <pt x="290" y="782" on="1"/>
      </contour>
      <contour>
        <pt x="374" y="117" on="1"/>
        <pt x="423" y="117" on="0"/>
        <pt x="490" y="157" on="0"/>
        <pt x="531" y="221" on="0"/>
        <pt x="548" y="304" on="0"/>
        <pt x="548" y="348" on="1"/>
        <pt x="548" y="710" on="1"/>
        <pt x="685" y="710" on="1"/>
        <pt x="685" y="348" on="1"/>
        <pt x="685" y="275" on="0"/>
        <pt x="650" y="147" on="0"/>
        <pt x="575" y="51" on="0"/>
        <pt x="457" y="-5" on="0"/>
        <pt x="375" y="-5" on="1"/>
        <pt x="290" y="-5" on="0"/>
        <pt x="171" y="54" on="0"/>
        <pt x="97" y="151" on="0"/>
        <pt x="64" y="279" on="0"/>
        <pt x="64" y="348" on="1"/>
        <pt x="64" y="710" on="1"/>
        <pt x="202" y="710" on="1"/>
        <pt x="202" y="348" on="1"/>
        <pt x="202" y="303" on="0"/>
        <pt x="219" y="220" on="0"/>
        <pt x="260" y="156" on="0"/>
        <pt x="326" y="117" on="0"/>
      </contour>
    </TTGlyph>
    <TTGlyph name="Udblgrave" xMin="64" yMin="-5" xMax="685" yMax="917">
      <contour>
        <pt x="352" y="917" on="1"/>
        <pt x="457" y="917" on="1"/>
        <pt x="504" y="798" on="1"/>
        <pt x="438" y="772" on="1"/>
      </contour>
      <contour>
        <pt x="192" y="917" on="1"/>
        <pt x="296" y="917" on="1"/>
        <pt x="344" y="798" on="1"/>
        <pt x="278" y="772" on="1"/>
      </contour>
      <contour>
        <pt x="374" y="117" on="1"/>
        <pt x="423" y="117" on="0"/>
        <pt x="490" y="157" on="0"/>
        <pt x="531" y="221" on="0"/>
        <pt x="548" y="304" on="0"/>
        <pt x="548" y="348" on="1"/>
        <pt x="548" y="710" on="1"/>
        <pt x="685" y="710" on="1"/>
        <pt x="685" y="348" on="1"/>
        <pt x="685" y="275" on="0"/>
        <pt x="650" y="147" on="0"/>
        <pt x="575" y="51" on="0"/>
        <pt x="457" y="-5" on="0"/>
        <pt x="375" y="-5" on="1"/>
        <pt x="290" y="-5" on="0"/>
        <pt x="171" y="54" on="0"/>
        <pt x="97" y="151" on="0"/>
        <pt x="64" y="279" on="0"/>
        <pt x="64" y="348" on="1"/>
        <pt x="64" y="710" on="1"/>
        <pt x="202" y="710" on="1"/>
        <pt x="202" y="348" on="1"/>
        <pt x="202" y="303" on="0"/>
        <pt x="219" y="220" on="0"/>
        <pt x="260" y="156" on="0"/>
        <pt x="326" y="117" on="0"/>
      </contour>
    </TTGlyph>
    <TTGlyph name="Udieresis" xMin="64" yMin="-5" xMax="685" yMax="909">
      <contour>
        <pt x="223" y="790" on="1"/>
        <pt x="223" y="909" on="1"/>
        <pt x="334" y="909" on="1"/>
        <pt x="334" y="790" on="1"/>
      </contour>
      <contour>
        <pt x="415" y="790" on="1"/>
        <pt x="415" y="909" on="1"/>
        <pt x="526" y="909" on="1"/>
        <pt x="526" y="790" on="1"/>
      </contour>
      <contour>
        <pt x="374" y="117" on="1"/>
        <pt x="423" y="117" on="0"/>
        <pt x="490" y="157" on="0"/>
        <pt x="531" y="221" on="0"/>
        <pt x="548" y="304" on="0"/>
        <pt x="548" y="348" on="1"/>
        <pt x="548" y="710" on="1"/>
        <pt x="685" y="710" on="1"/>
        <pt x="685" y="348" on="1"/>
        <pt x="685" y="275" on="0"/>
        <pt x="650" y="147" on="0"/>
        <pt x="575" y="51" on="0"/>
        <pt x="457" y="-5" on="0"/>
        <pt x="375" y="-5" on="1"/>
        <pt x="290" y="-5" on="0"/>
        <pt x="171" y="54" on="0"/>
        <pt x="97" y="151" on="0"/>
        <pt x="64" y="279" on="0"/>
        <pt x="64" y="348" on="1"/>
        <pt x="64" y="710" on="1"/>
        <pt x="202" y="710" on="1"/>
        <pt x="202" y="348" on="1"/>
        <pt x="202" y="303" on="0"/>
        <pt x="219" y="220" on="0"/>
        <pt x="260" y="156" on="0"/>
        <pt x="326" y="117" on="0"/>
      </contour>
    </TTGlyph>
    <TTGlyph name="Udotbelow" xMin="64" yMin="-196" xMax="685" yMax="710">
      <contour>
        <pt x="374" y="117" on="1"/>
        <pt x="423" y="117" on="0"/>
        <pt x="490" y="157" on="0"/>
        <pt x="531" y="221" on="0"/>
        <pt x="548" y="304" on="0"/>
        <pt x="548" y="348" on="1"/>
        <pt x="548" y="710" on="1"/>
        <pt x="685" y="710" on="1"/>
        <pt x="685" y="348" on="1"/>
        <pt x="685" y="275" on="0"/>
        <pt x="650" y="147" on="0"/>
        <pt x="575" y="51" on="0"/>
        <pt x="457" y="-5" on="0"/>
        <pt x="375" y="-5" on="1"/>
        <pt x="290" y="-5" on="0"/>
        <pt x="171" y="54" on="0"/>
        <pt x="97" y="151" on="0"/>
        <pt x="64" y="279" on="0"/>
        <pt x="64" y="348" on="1"/>
        <pt x="64" y="710" on="1"/>
        <pt x="202" y="710" on="1"/>
        <pt x="202" y="348" on="1"/>
        <pt x="202" y="303" on="0"/>
        <pt x="219" y="220" on="0"/>
        <pt x="260" y="156" on="0"/>
        <pt x="326" y="117" on="0"/>
      </contour>
      <contour>
        <pt x="313" y="-196" on="1"/>
        <pt x="313" y="-70" on="1"/>
        <pt x="434" y="-70" on="1"/>
        <pt x="434" y="-196" on="1"/>
      </contour>
    </TTGlyph>
    <TTGlyph name="Ugrave" xMin="64" yMin="-5" xMax="685" yMax="916">
      <contour>
        <pt x="374" y="117" on="1"/>
        <pt x="423" y="117" on="0"/>
        <pt x="490" y="157" on="0"/>
        <pt x="531" y="221" on="0"/>
        <pt x="548" y="304" on="0"/>
        <pt x="548" y="348" on="1"/>
        <pt x="548" y="710" on="1"/>
        <pt x="685" y="710" on="1"/>
        <pt x="685" y="348" on="1"/>
        <pt x="685" y="275" on="0"/>
        <pt x="650" y="147" on="0"/>
        <pt x="575" y="51" on="0"/>
        <pt x="457" y="-5" on="0"/>
        <pt x="375" y="-5" on="1"/>
        <pt x="290" y="-5" on="0"/>
        <pt x="171" y="54" on="0"/>
        <pt x="97" y="151" on="0"/>
        <pt x="64" y="279" on="0"/>
        <pt x="64" y="348" on="1"/>
        <pt x="64" y="710" on="1"/>
        <pt x="202" y="710" on="1"/>
        <pt x="202" y="348" on="1"/>
        <pt x="202" y="303" on="0"/>
        <pt x="219" y="220" on="0"/>
        <pt x="260" y="156" on="0"/>
        <pt x="326" y="117" on="0"/>
      </contour>
      <contour>
        <pt x="247" y="916" on="1"/>
        <pt x="371" y="916" on="1"/>
        <pt x="426" y="797" on="1"/>
        <pt x="340" y="771" on="1"/>
      </contour>
    </TTGlyph>
    <TTGlyph name="Uhungarumlaut" xMin="64" yMin="-5" xMax="685" yMax="916">
      <contour>
        <pt x="374" y="117" on="1"/>
        <pt x="423" y="117" on="0"/>
        <pt x="490" y="157" on="0"/>
        <pt x="531" y="221" on="0"/>
        <pt x="548" y="304" on="0"/>
        <pt x="548" y="348" on="1"/>
        <pt x="548" y="710" on="1"/>
        <pt x="685" y="710" on="1"/>
        <pt x="685" y="348" on="1"/>
        <pt x="685" y="275" on="0"/>
        <pt x="650" y="147" on="0"/>
        <pt x="575" y="51" on="0"/>
        <pt x="457" y="-5" on="0"/>
        <pt x="375" y="-5" on="1"/>
        <pt x="290" y="-5" on="0"/>
        <pt x="171" y="54" on="0"/>
        <pt x="97" y="151" on="0"/>
        <pt x="64" y="279" on="0"/>
        <pt x="64" y="348" on="1"/>
        <pt x="64" y="710" on="1"/>
        <pt x="202" y="710" on="1"/>
        <pt x="202" y="348" on="1"/>
        <pt x="202" y="303" on="0"/>
        <pt x="219" y="220" on="0"/>
        <pt x="260" y="156" on="0"/>
        <pt x="326" y="117" on="0"/>
      </contour>
      <contour>
        <pt x="311" y="771" on="1"/>
        <pt x="245" y="797" on="1"/>
        <pt x="293" y="916" on="1"/>
        <pt x="397" y="916" on="1"/>
      </contour>
      <contour>
        <pt x="471" y="771" on="1"/>
        <pt x="406" y="797" on="1"/>
        <pt x="453" y="916" on="1"/>
        <pt x="558" y="916" on="1"/>
      </contour>
    </TTGlyph>
    <TTGlyph name="Uinvertedbreve" xMin="64" yMin="-5" xMax="685" yMax="915">
      <contour>
        <pt x="374" y="855" on="1"/>
        <pt x="351" y="855" on="0"/>
        <pt x="315" y="811" on="0"/>
        <pt x="315" y="781" on="1"/>
        <pt x="243" y="781" on="1"/>
        <pt x="243" y="810" on="0"/>
        <pt x="263" y="859" on="0"/>
        <pt x="297" y="895" on="0"/>
        <pt x="345" y="915" on="0"/>
        <pt x="374" y="915" on="1"/>
        <pt x="402" y="915" on="0"/>
        <pt x="451" y="895" on="0"/>
        <pt x="485" y="859" on="0"/>
        <pt x="505" y="810" on="0"/>
        <pt x="505" y="781" on="1"/>
        <pt x="434" y="781" on="1"/>
        <pt x="431" y="813" on="0"/>
        <pt x="397" y="855" on="0"/>
      </contour>
      <contour>
        <pt x="374" y="117" on="1"/>
        <pt x="423" y="117" on="0"/>
        <pt x="490" y="157" on="0"/>
        <pt x="531" y="221" on="0"/>
        <pt x="548" y="304" on="0"/>
        <pt x="548" y="348" on="1"/>
        <pt x="548" y="710" on="1"/>
        <pt x="685" y="710" on="1"/>
        <pt x="685" y="348" on="1"/>
        <pt x="685" y="275" on="0"/>
        <pt x="650" y="147" on="0"/>
        <pt x="575" y="51" on="0"/>
        <pt x="457" y="-5" on="0"/>
        <pt x="375" y="-5" on="1"/>
        <pt x="290" y="-5" on="0"/>
        <pt x="171" y="54" on="0"/>
        <pt x="97" y="151" on="0"/>
        <pt x="64" y="279" on="0"/>
        <pt x="64" y="348" on="1"/>
        <pt x="64" y="710" on="1"/>
        <pt x="202" y="710" on="1"/>
        <pt x="202" y="348" on="1"/>
        <pt x="202" y="303" on="0"/>
        <pt x="219" y="220" on="0"/>
        <pt x="260" y="156" on="0"/>
        <pt x="326" y="117" on="0"/>
      </contour>
    </TTGlyph>
    <TTGlyph name="Umacron" xMin="64" yMin="-5" xMax="685" yMax="901">
      <contour>
        <pt x="374" y="117" on="1"/>
        <pt x="423" y="117" on="0"/>
        <pt x="490" y="157" on="0"/>
        <pt x="531" y="221" on="0"/>
        <pt x="548" y="304" on="0"/>
        <pt x="548" y="348" on="1"/>
        <pt x="548" y="710" on="1"/>
        <pt x="685" y="710" on="1"/>
        <pt x="685" y="348" on="1"/>
        <pt x="685" y="275" on="0"/>
        <pt x="650" y="147" on="0"/>
        <pt x="575" y="51" on="0"/>
        <pt x="457" y="-5" on="0"/>
        <pt x="375" y="-5" on="1"/>
        <pt x="290" y="-5" on="0"/>
        <pt x="171" y="54" on="0"/>
        <pt x="97" y="151" on="0"/>
        <pt x="64" y="279" on="0"/>
        <pt x="64" y="348" on="1"/>
        <pt x="64" y="710" on="1"/>
        <pt x="202" y="710" on="1"/>
        <pt x="202" y="348" on="1"/>
        <pt x="202" y="303" on="0"/>
        <pt x="219" y="220" on="0"/>
        <pt x="260" y="156" on="0"/>
        <pt x="326" y="117" on="0"/>
      </contour>
      <contour>
        <pt x="226" y="818" on="1"/>
        <pt x="226" y="901" on="1"/>
        <pt x="526" y="901" on="1"/>
        <pt x="526" y="818" on="1"/>
      </contour>
    </TTGlyph>
    <TTGlyph name="Uogonek" xMin="64" yMin="-197" xMax="685" yMax="710">
      <contour>
        <pt x="374" y="117" on="1"/>
        <pt x="423" y="117" on="0"/>
        <pt x="490" y="157" on="0"/>
        <pt x="531" y="221" on="0"/>
        <pt x="548" y="304" on="0"/>
        <pt x="548" y="348" on="1"/>
        <pt x="548" y="710" on="1"/>
        <pt x="685" y="710" on="1"/>
        <pt x="685" y="348" on="1"/>
        <pt x="685" y="279" on="0"/>
        <pt x="653" y="155" on="0"/>
        <pt x="585" y="61" on="0"/>
        <pt x="479" y="1" on="0"/>
        <pt x="406" y="-4" on="1"/>
        <pt x="334" y="-48" on="0"/>
        <pt x="334" y="-86" on="1"/>
        <pt x="334" y="-123" on="0"/>
        <pt x="396" y="-127" on="1"/>
        <pt x="368" y="-197" on="1"/>
        <pt x="310" y="-189" on="0"/>
        <pt x="253" y="-141" on="0"/>
        <pt x="253" y="-110" on="1"/>
        <pt x="253" y="-83" on="0"/>
        <pt x="292" y="-28" on="0"/>
        <pt x="332" y="-2" on="1"/>
        <pt x="259" y="5" on="0"/>
        <pt x="157" y="68" on="0"/>
        <pt x="93" y="164" on="0"/>
        <pt x="64" y="283" on="0"/>
        <pt x="64" y="348" on="1"/>
        <pt x="64" y="710" on="1"/>
        <pt x="202" y="710" on="1"/>
        <pt x="202" y="348" on="1"/>
        <pt x="202" y="303" on="0"/>
        <pt x="219" y="220" on="0"/>
        <pt x="260" y="156" on="0"/>
        <pt x="326" y="117" on="0"/>
      </contour>
    </TTGlyph>
    <TTGlyph name="Uring" xMin="64" yMin="-5" xMax="685" yMax="915">
      <contour>
        <pt x="277" y="838" on="1"/>
        <pt x="277" y="875" on="0"/>
        <pt x="330" y="915" on="0"/>
        <pt x="374" y="915" on="1"/>
        <pt x="418" y="915" on="0"/>
        <pt x="471" y="875" on="0"/>
        <pt x="471" y="838" on="1"/>
        <pt x="471" y="801" on="0"/>
        <pt x="418" y="761" on="0"/>
        <pt x="374" y="761" on="1"/>
        <pt x="330" y="761" on="0"/>
        <pt x="277" y="801" on="0"/>
      </contour>
      <contour>
        <pt x="374" y="874" on="1"/>
        <pt x="357" y="874" on="0"/>
        <pt x="334" y="855" on="0"/>
        <pt x="334" y="838" on="1"/>
        <pt x="334" y="823" on="0"/>
        <pt x="357" y="802" on="0"/>
        <pt x="374" y="802" on="1"/>
        <pt x="390" y="802" on="0"/>
        <pt x="415" y="822" on="0"/>
        <pt x="415" y="838" on="1"/>
        <pt x="415" y="855" on="0"/>
        <pt x="391" y="874" on="0"/>
      </contour>
      <contour>
        <pt x="374" y="117" on="1"/>
        <pt x="423" y="117" on="0"/>
        <pt x="490" y="157" on="0"/>
        <pt x="531" y="221" on="0"/>
        <pt x="548" y="304" on="0"/>
        <pt x="548" y="348" on="1"/>
        <pt x="548" y="710" on="1"/>
        <pt x="685" y="710" on="1"/>
        <pt x="685" y="348" on="1"/>
        <pt x="685" y="275" on="0"/>
        <pt x="650" y="147" on="0"/>
        <pt x="575" y="51" on="0"/>
        <pt x="457" y="-5" on="0"/>
        <pt x="375" y="-5" on="1"/>
        <pt x="290" y="-5" on="0"/>
        <pt x="171" y="54" on="0"/>
        <pt x="97" y="151" on="0"/>
        <pt x="64" y="279" on="0"/>
        <pt x="64" y="348" on="1"/>
        <pt x="64" y="710" on="1"/>
        <pt x="202" y="710" on="1"/>
        <pt x="202" y="348" on="1"/>
        <pt x="202" y="303" on="0"/>
        <pt x="219" y="220" on="0"/>
        <pt x="260" y="156" on="0"/>
        <pt x="326" y="117" on="0"/>
      </contour>
    </TTGlyph>
    <TTGlyph name="Utilde" xMin="64" yMin="-5" xMax="685" yMax="915">
      <contour>
        <pt x="374" y="117" on="1"/>
        <pt x="423" y="117" on="0"/>
        <pt x="490" y="157" on="0"/>
        <pt x="531" y="221" on="0"/>
        <pt x="548" y="304" on="0"/>
        <pt x="548" y="348" on="1"/>
        <pt x="548" y="710" on="1"/>
        <pt x="685" y="710" on="1"/>
        <pt x="685" y="348" on="1"/>
        <pt x="685" y="275" on="0"/>
        <pt x="650" y="147" on="0"/>
        <pt x="575" y="51" on="0"/>
        <pt x="457" y="-5" on="0"/>
        <pt x="375" y="-5" on="1"/>
        <pt x="290" y="-5" on="0"/>
        <pt x="171" y="54" on="0"/>
        <pt x="97" y="151" on="0"/>
        <pt x="64" y="279" on="0"/>
        <pt x="64" y="348" on="1"/>
        <pt x="64" y="710" on="1"/>
        <pt x="202" y="710" on="1"/>
        <pt x="202" y="348" on="1"/>
        <pt x="202" y="303" on="0"/>
        <pt x="219" y="220" on="0"/>
        <pt x="260" y="156" on="0"/>
        <pt x="326" y="117" on="0"/>
      </contour>
      <contour>
        <pt x="438" y="787" on="1"/>
        <pt x="415" y="787" on="0"/>
        <pt x="381" y="801" on="0"/>
        <pt x="352" y="818" on="0"/>
        <pt x="323" y="832" on="0"/>
        <pt x="307" y="832" on="1"/>
        <pt x="290" y="832" on="0"/>
        <pt x="271" y="818" on="0"/>
        <pt x="261" y="800" on="0"/>
        <pt x="259" y="785" on="0"/>
        <pt x="259" y="784" on="1"/>
        <pt x="185" y="784" on="1"/>
        <pt x="185" y="793" on="0"/>
        <pt x="197" y="836" on="0"/>
        <pt x="224" y="879" on="0"/>
        <pt x="269" y="912" on="0"/>
        <pt x="302" y="912" on="1"/>
        <pt x="325" y="912" on="0"/>
        <pt x="358" y="897" on="0"/>
        <pt x="387" y="880" on="0"/>
        <pt x="416" y="865" on="0"/>
        <pt x="434" y="865" on="1"/>
        <pt x="452" y="865" on="0"/>
        <pt x="473" y="879" on="0"/>
        <pt x="484" y="897" on="0"/>
        <pt x="487" y="913" on="0"/>
        <pt x="487" y="915" on="1"/>
        <pt x="561" y="915" on="1"/>
        <pt x="561" y="908" on="0"/>
        <pt x="549" y="866" on="0"/>
        <pt x="520" y="822" on="0"/>
        <pt x="473" y="787" on="0"/>
      </contour>
    </TTGlyph>
    <TTGlyph name="V" xMin="2" yMin="0" xMax="674" yMax="710">
      <contour>
        <pt x="147" y="710" on="1"/>
        <pt x="339" y="173" on="1"/>
        <pt x="529" y="710" on="1"/>
        <pt x="674" y="710" on="1"/>
        <pt x="397" y="0" on="1"/>
        <pt x="281" y="0" on="1"/>
        <pt x="2" y="710" on="1"/>
      </contour>
    </TTGlyph>
    <TTGlyph name="V.sc" xMin="4" yMin="0" xMax="591" yMax="559">
      <contour>
        <pt x="131" y="559" on="1"/>
        <pt x="298" y="170" on="1"/>
        <pt x="464" y="559" on="1"/>
        <pt x="591" y="559" on="1"/>
        <pt x="349" y="0" on="1"/>
        <pt x="247" y="0" on="1"/>
        <pt x="4" y="559" on="1"/>
      </contour>
    </TTGlyph>
    <TTGlyph name="W" xMin="0" yMin="0" xMax="1054" yMax="710">
      <contour>
        <pt x="319" y="708" on="1"/>
        <pt x="446" y="708" on="1"/>
        <pt x="526" y="473" on="1"/>
        <pt x="606" y="708" on="1"/>
        <pt x="734" y="708" on="1"/>
        <pt x="613" y="385" on="1"/>
        <pt x="703" y="158" on="1"/>
        <pt x="904" y="710" on="1"/>
        <pt x="1054" y="710" on="1"/>
        <pt x="765" y="0" on="1"/>
        <pt x="649" y="0" on="1"/>
        <pt x="526" y="298" on="1"/>
        <pt x="403" y="0" on="1"/>
        <pt x="287" y="0" on="1"/>
        <pt x="0" y="710" on="1"/>
        <pt x="148" y="710" on="1"/>
        <pt x="350" y="158" on="1"/>
        <pt x="438" y="385" on="1"/>
      </contour>
    </TTGlyph>
    <TTGlyph name="W.alt" xMin="10" yMin="0" xMax="1100" yMax="710">
      <contour>
        <pt x="1100" y="710" on="1"/>
        <pt x="877" y="0" on="1"/>
        <pt x="735" y="0" on="1"/>
        <pt x="553" y="485" on="1"/>
        <pt x="375" y="0" on="1"/>
        <pt x="232" y="0" on="1"/>
        <pt x="10" y="710" on="1"/>
        <pt x="165" y="710" on="1"/>
        <pt x="317" y="206" on="1"/>
        <pt x="478" y="710" on="1"/>
        <pt x="627" y="710" on="1"/>
        <pt x="793" y="207" on="1"/>
        <pt x="943" y="710" on="1"/>
      </contour>
    </TTGlyph>
    <TTGlyph name="W.sc" xMin="2" yMin="0" xMax="924" yMax="559">
      <contour>
        <pt x="281" y="557" on="1"/>
        <pt x="393" y="557" on="1"/>
        <pt x="462" y="376" on="1"/>
        <pt x="533" y="557" on="1"/>
        <pt x="645" y="557" on="1"/>
        <pt x="539" y="300" on="1"/>
        <pt x="612" y="145" on="1"/>
        <pt x="792" y="559" on="1"/>
        <pt x="924" y="559" on="1"/>
        <pt x="672" y="0" on="1"/>
        <pt x="570" y="0" on="1"/>
        <pt x="463" y="225" on="1"/>
        <pt x="356" y="0" on="1"/>
        <pt x="254" y="0" on="1"/>
        <pt x="2" y="559" on="1"/>
        <pt x="133" y="559" on="1"/>
        <pt x="315" y="145" on="1"/>
        <pt x="385" y="300" on="1"/>
      </contour>
    </TTGlyph>
    <TTGlyph name="Wacute" xMin="0" yMin="0" xMax="1054" yMax="915">
      <contour>
        <pt x="561" y="770" on="1"/>
        <pt x="475" y="796" on="1"/>
        <pt x="529" y="915" on="1"/>
        <pt x="654" y="915" on="1"/>
      </contour>
      <contour>
        <pt x="319" y="708" on="1"/>
        <pt x="446" y="708" on="1"/>
        <pt x="526" y="473" on="1"/>
        <pt x="606" y="708" on="1"/>
        <pt x="734" y="708" on="1"/>
        <pt x="613" y="385" on="1"/>
        <pt x="703" y="158" on="1"/>
        <pt x="904" y="710" on="1"/>
        <pt x="1054" y="710" on="1"/>
        <pt x="765" y="0" on="1"/>
        <pt x="649" y="0" on="1"/>
        <pt x="526" y="298" on="1"/>
        <pt x="403" y="0" on="1"/>
        <pt x="287" y="0" on="1"/>
        <pt x="0" y="710" on="1"/>
        <pt x="148" y="710" on="1"/>
        <pt x="350" y="158" on="1"/>
        <pt x="438" y="385" on="1"/>
      </contour>
    </TTGlyph>
    <TTGlyph name="Wcircumflex" xMin="0" yMin="0" xMax="1054" yMax="915">
      <contour>
        <pt x="371" y="814" on="1"/>
        <pt x="477" y="915" on="1"/>
        <pt x="574" y="915" on="1"/>
        <pt x="680" y="814" on="1"/>
        <pt x="611" y="782" on="1"/>
        <pt x="526" y="845" on="1"/>
        <pt x="441" y="782" on="1"/>
      </contour>
      <contour>
        <pt x="319" y="708" on="1"/>
        <pt x="446" y="708" on="1"/>
        <pt x="526" y="473" on="1"/>
        <pt x="606" y="708" on="1"/>
        <pt x="734" y="708" on="1"/>
        <pt x="613" y="385" on="1"/>
        <pt x="703" y="158" on="1"/>
        <pt x="904" y="710" on="1"/>
        <pt x="1054" y="710" on="1"/>
        <pt x="765" y="0" on="1"/>
        <pt x="649" y="0" on="1"/>
        <pt x="526" y="298" on="1"/>
        <pt x="403" y="0" on="1"/>
        <pt x="287" y="0" on="1"/>
        <pt x="0" y="710" on="1"/>
        <pt x="148" y="710" on="1"/>
        <pt x="350" y="158" on="1"/>
        <pt x="438" y="385" on="1"/>
      </contour>
    </TTGlyph>
</ttFont>
